<?xml version="1.0" encoding="utf-8" ?>
<svg xmlns="http://www.w3.org/2000/svg" xmlns:xlink="http://www.w3.org/1999/xlink" width="424" height="536">
	<path fill="#1C4387" d="M340.827 29.0235C341.342 29.0583 341.825 29.1054 342.34 29.0474C345.729 29.2615 350.439 28.3262 353.242 30.7458C354.353 31.705 354.949 33.0418 355.245 34.4538C355.724 36.7404 355.527 39.2305 355.512 41.5623C355.473 47.4851 354.967 53.8429 355.474 59.7247C355.683 62.1532 356.962 63.8637 358.75 65.4101C365.703 71.4224 374.283 70.2456 379.487 74.6767C382.281 77.0567 383.042 79.8389 383.297 83.4003C383.804 90.4987 383.465 97.8445 383.472 104.968L383.489 144.546L383.496 268.127L383.488 410.347L383.466 456.167C383.465 463.996 383.833 472.019 383.396 479.82C383.252 482.391 382.264 484.653 380.577 486.58C377.536 490.053 373.581 491.457 369.07 491.71C364.442 491.97 359.737 491.723 355.096 491.787Q334.396 492.001 313.694 491.981L202.039 491.911L119.639 491.842Q111.08 491.724 102.521 491.75C97.2331 491.755 91.8595 491.919 86.6094 491.184C78.0021 489.979 68.7082 485.71 62.1738 479.9C52.5845 471.373 48.2376 456.973 47.5539 444.489C47.1104 436.39 47.4398 428.076 47.4047 419.95L47.3534 366.907L47.359 210.491L47.3646 104.116L47.4553 73.3766C47.4534 67.8263 47.0034 61.9433 47.603 56.4451C48.1012 51.8764 51.3215 47.7573 54.3257 44.4591C61.757 36.3002 73.3247 32.4617 83.9566 30.7471C87.7799 30.1306 91.7115 30.1071 95.5754 29.9984Q105.174 29.7464 114.775 29.7637C129.652 29.6499 144.508 29.3189 159.393 29.3405L278.768 29.1939L321.485 29.0928C327.914 29.065 334.406 29.2999 340.827 29.0235Z"/>
	<path fill="#608AFB" d="M52.3468 65.8991C52.2343 58.191 52.867 52.9624 58.4474 47.1826C68.248 37.0318 83.1926 34.7005 96.6555 34.54C115.465 34.3159 134.287 34.5171 153.099 34.473L277.477 34.4481L327.6 34.3636L341.411 34.3769C344.447 34.3847 347.587 34.2656 350.601 34.6778C351.164 37.1399 351.568 56.9079 350.798 58.4541C350.137 58.4882 349.816 58.4716 349.293 58.0231C348.627 57.453 348.113 56.4692 347.679 55.7157C346.842 54.2606 346.132 52.7449 345.755 51.1013C345.037 47.9774 345.72 44.1912 342.027 42.8367C341.037 42.4739 339.96 42.3339 338.912 42.2796C335.212 42.0878 331.425 42.249 327.717 42.2549L306.222 42.3011L240.661 42.3256L90.9306 42.2058C89.3435 42.2156 87.6648 42.2101 86.1097 42.548C83.7646 43.0577 81.4934 44.1636 79.2862 45.081C74.4623 47.0859 69.6559 48.7316 65.8965 52.5685C63.5886 54.9239 61.6008 58.1473 61.65 61.5487C61.6929 64.5205 63.2385 67.1504 65.3517 69.1477C70.2438 73.7716 77.7495 75.8143 84.2772 76.5142C94.8266 77.6453 107.22 76.9974 117.993 76.9776L181.015 76.7975L288.298 76.7573C311.634 76.7905 335.095 77.3104 358.416 76.4518C363.509 76.2644 372.378 74.5056 376.348 78.4033C376.982 79.0259 377.417 79.7431 377.741 80.5667C379.449 84.9058 378.646 133.631 378.654 142.862L378.642 271.218L378.674 406.743L378.709 453.168C378.71 461.134 378.853 469.133 378.667 477.095C378.603 479.845 378.26 482.312 376.203 484.358C374.623 485.93 372.773 486.377 370.631 486.52C366.561 486.793 362.405 486.649 358.325 486.641Q347.58 486.588 336.835 486.647L247.994 486.605L149.565 486.632Q129.03 486.757 108.496 486.633C103.36 486.606 98.2024 486.769 93.0703 486.601C82.0206 486.239 71.2744 482.77 63.5945 474.454C55.5834 465.78 52.6176 453.521 52.6018 441.948C51.8045 440.314 52.2837 358.914 52.2864 350.186L52.3219 160.398L52.333 97.0603C52.3382 86.7034 51.9716 76.2412 52.3468 65.8991Z"/>
	<path fill="#3060C0" d="M52.3468 65.8991C53.2468 72.2498 52.6649 83.2086 52.6548 90.0346L52.6455 137.235L52.6395 285.27L52.6088 329.085C52.5979 336.802 52.2666 344.674 52.68 352.371C60.3323 356.288 67.6655 360.726 75.1661 364.911C76.6933 365.763 79.1563 366.515 80.3934 367.672L80.1246 368.112C78.2871 368.369 77.7341 366.246 75.7586 367.336C74.0981 368.252 70.269 367.183 68.5319 366.635C60.2303 364.014 58.0339 359.026 52.6403 353.368Q52.3646 386.45 52.593 419.532L52.6738 435.035C52.688 437.153 53.0007 439.881 52.6018 441.948C51.8045 440.314 52.2837 358.914 52.2864 350.186L52.3219 160.398L52.333 97.0603C52.3382 86.7034 51.9716 76.2412 52.3468 65.8991Z"/>
	<path fill="#3060C0" d="M84.4702 86.9146C85.2863 86.8979 86.4187 86.8648 87.1476 87.2622C87.6792 87.552 87.845 87.8877 87.9711 88.4605C88.6614 91.5958 88.2319 95.5812 88.2192 98.8241L88.1472 118.401L88.1121 210.495L88.1652 397.46L88.1864 451.047C88.1725 457.832 88.3288 464.645 88.1879 471.425C88.1563 472.944 88.2243 474.748 87.4059 476.079C86.72 476.417 86.7263 476.365 85.9788 476.162L85.2724 476.378C84.7203 476.264 84.2549 476.183 83.8809 475.725C83.0985 474.767 83.1577 472.564 83.1505 471.396L83.3523 246.431L83.2925 144.981L83.334 114.359C83.2771 106.45 82.9283 98.4266 83.3313 90.5292C83.4061 89.0624 83.3346 87.9419 84.4702 86.9146Z"/>
	<path fill="#3060C0" d="M54.502 128.343C54.7522 128.378 54.7752 128.374 55.0583 128.456C58.4185 129.423 77.3012 139.539 78.4518 141.921C74.2022 142.231 70.1541 141.816 66.3207 139.85C61.9786 137.623 56.0761 133.153 54.502 128.343Z"/>
	<path fill="#3060C0" d="M54.8431 140.153C55.6156 140.474 56.0858 141.134 56.8064 141.524L69.0837 148.225C71.0373 149.294 75.2958 150.89 76.7744 152.197C77.2338 152.603 77.1724 152.92 77.2314 153.48C77.1364 153.498 77.0416 153.519 76.9463 153.536C71.7574 154.488 66.1469 152.901 61.9046 149.887C58.6953 147.607 55.5005 144.173 54.8431 140.153Z"/>
	<path fill="#3060C0" d="M54.9096 366.351C55.3059 366.468 55.1247 366.391 55.5182 366.616C60.1565 369.269 64.7368 372.31 69.4612 374.766C71.3684 375.757 73.7146 376.183 75.5142 377.331C76.0712 377.686 76.4644 378.476 76.7961 379.035C72.0515 378.609 66.9461 379.159 62.7071 376.592C60.1851 375.065 55.5774 369.094 54.9096 366.351Z"/>
	<path fill="#DFE6FC" d="M87.3447 47.2377C92.112 46.7656 97.1528 47.1121 101.949 47.1475L123.745 47.1605L194.126 47.1867L294.204 47.1868L323.341 47.1267C328.835 47.1124 334.425 46.89 339.904 47.2511C340.094 54.2005 341.397 59.3105 347.901 62.7962C349.901 63.8681 351.842 64.7567 353.338 66.5206C354.567 67.97 355.276 69.7139 355.999 71.45C348.781 71.866 341.533 71.7505 334.304 71.7764L166.503 71.9421L113.052 71.9546C104.01 71.9615 94.6617 72.5069 85.6511 71.8756C81.1569 71.5608 76.5006 70.4966 72.5149 68.3458C69.1385 66.5239 67.3776 64.6625 66.2874 60.9419C66.5886 60.0464 66.9467 59.0803 67.4663 58.2858C68.4737 56.7456 70.0949 55.4205 71.6162 54.4147C74.3151 52.6304 84.406 47.8443 87.3447 47.2377Z"/>
</svg>
