<?xml version="1.0" encoding="utf-8" ?>
<svg xmlns="http://www.w3.org/2000/svg" xmlns:xlink="http://www.w3.org/1999/xlink" width="424" height="536">
	<path fill="#6B523F" d="M90.6445 30.1276C94.1888 30.3033 97.9153 29.9074 101.481 29.858L126.899 29.5372C145.303 29.2041 163.755 29.2665 182.163 29.2333L283.583 29.1452C299.838 29.1188 316.139 29.4515 332.388 29.0762C337.906 29.5834 348.658 27.8176 352.882 30.4675C353.581 31.2041 354.399 31.9732 354.772 32.9355C356.236 36.7151 355.464 50.3382 355.431 55.3366C355.417 57.3508 355.193 59.614 355.75 61.5632C356.171 63.0353 357.558 64.4417 358.69 65.4242C361.223 67.6219 364.149 69.091 367.315 70.1464C373.348 72.1574 381.089 72.5405 382.896 80.064C383.903 84.2597 383.451 89.2816 383.457 93.5989L383.473 112.534L383.488 189.761L383.483 378.913L383.462 445.965C383.448 456.409 383.685 466.901 383.438 477.339C383.34 481.46 382.847 484.485 379.759 487.422C377.633 489.444 374.771 491.102 371.812 491.416C367.281 491.898 362.61 491.721 358.056 491.732L336.718 491.766L266.495 491.783L150.268 491.752L113.988 491.724C107.124 491.721 100.215 491.868 93.3571 491.65C81.1825 491.262 68.5636 486.812 60.0483 477.766C52.601 469.854 49.0858 458.374 47.8494 447.794C47.1879 442.133 47.5115 436.232 47.4875 430.536L47.4066 400.393L47.3388 304.304L47.4016 144.931L47.4764 84.1226C47.5118 75.6067 47.2254 67.0106 47.5141 58.5063C47.7424 51.7803 51.5871 47.536 55.8989 42.7875C66.351 33.9392 77.3802 31.4489 90.6445 30.1276Z"/>
	<path fill="#DCB47E" d="M52.3501 64.0913C52.3833 56.8568 53.7286 51.8721 59.0136 46.6687C65.5343 40.2486 74.6593 36.8855 83.5805 35.5517C95.0292 33.84 107.163 34.4988 118.728 34.4861L172.455 34.4476L281.597 34.4387C302.925 34.4127 324.297 34.0297 345.62 34.3622C347.238 34.3875 348.868 34.4558 350.466 34.7235C350.986 37.4406 351.638 56.0728 350.752 57.9664L350.369 58.1506C348.363 57.1182 346.762 54.6642 346.095 52.553C345.342 50.1691 345.456 47.6249 344.878 45.2132C343.534 43.5374 342.519 42.5572 340.288 42.2917C336.181 41.8027 331.749 42.1199 327.611 42.1402L305.568 42.1703L226.464 42.1595L129.963 42.1423L102.384 42.1155C97.2996 42.0974 91.8887 41.719 86.8404 42.2876C84.4064 42.5617 83.0434 43.6277 80.8821 44.52C76.1886 46.4579 71.7026 47.6059 67.6369 50.8665C64.5701 53.3259 62.0137 56.9192 61.649 60.9309C61.4068 63.5954 62.6144 66.1344 64.3223 68.1096C69.569 74.1774 79.233 76.3719 86.9576 76.8561C96.5052 77.4547 106.243 77.0604 115.812 77.0272L162.898 76.9704L314.457 76.9689C327.472 76.9706 340.52 77.1095 353.53 76.8472C358.83 76.7404 364.446 75.6563 369.694 76.0172C372.316 76.1975 375.148 77.056 376.927 79.0942C378.083 80.4178 378.278 83.5597 378.395 85.2431C378.727 90.0407 378.543 94.9471 378.547 99.7576L378.561 124.529L378.561 203.027L378.576 391.118L378.577 451.499L378.603 468.93C378.615 472.443 378.805 476.048 378.46 479.545C378.237 481.808 377.043 483.7 375.307 485.114C373.441 486.634 369.664 486.615 367.319 486.675C359.322 486.878 351.291 486.705 343.291 486.712L299.498 486.734L187.883 486.71L123.912 486.733L103.639 486.732C98.7311 486.732 93.813 486.9 88.9259 486.346C78.5285 485.169 68.4197 480.711 61.8228 472.337C54.431 462.955 52.8249 451.44 52.5979 439.888C51.8852 437.925 52.3519 386.02 52.3516 378.522L52.3853 154.292L52.4023 92.2155C52.4104 82.8906 51.9603 73.3942 52.3501 64.0913Z"/>
	<path fill="#987C5F" d="M52.3501 64.0913C53.2967 70.811 52.6728 79.7252 52.6758 86.7073L52.6665 131.721L52.6733 281.827L52.667 329.097L52.6614 344.004C52.6606 346.667 52.5173 349.421 52.7089 352.075C57.9128 355.539 63.712 358.4 69.1877 361.425C71.6909 362.809 74.4881 364.158 76.7363 365.937C76.816 365.971 76.8952 366.006 76.9754 366.038C77.9826 366.448 78.8709 366.565 79.9427 366.663C80.4907 367.123 80.4399 367.164 80.5591 367.88L80.34 368.472C79.4166 368.608 78.6926 368.146 77.9574 367.59C77.4786 367.228 77.0577 366.734 76.5407 366.446C75.9792 367.149 75.6157 367.753 74.6342 367.848C73.7331 367.935 72.6307 367.585 71.743 367.387C67.1265 366.36 63.1923 364.704 59.6849 361.448C56.9951 358.952 54.7989 355.899 52.6999 352.904C52.2886 374.609 52.6247 396.399 52.6427 418.113L52.6945 433.616C52.6987 435.555 53.0041 438.038 52.5979 439.888C51.8852 437.925 52.3519 386.02 52.3516 378.522L52.3853 154.292L52.4023 92.2155C52.4104 82.8906 51.9603 73.3942 52.3501 64.0913Z"/>
	<path fill="#987C5F" d="M84.2257 86.9261C85.1185 86.8956 86.3054 86.7728 87.1098 87.2179C87.5541 87.4637 87.8999 87.8135 88.0479 88.3049C88.7388 90.5997 88.2081 109.336 88.2043 113.089L88.2123 183.835L88.2184 378.843L88.1854 434.039C88.2176 446.586 88.4711 459.21 88.2012 471.751C88.1772 472.867 88.2733 474.529 87.716 475.525C87.4519 475.997 87.2566 475.955 86.7637 476.069L86.0864 476.46C85.3171 476.496 84.3727 476.382 83.8364 475.738C83.2467 475.03 83.2073 472.834 83.1632 471.925C82.9869 468.285 83.1704 464.562 83.1619 460.912L83.203 432.823L83.2039 343.507L83.1883 91.8657C83.1973 90.0805 82.9473 88.3438 84.2257 86.9261Z"/>
	<path fill="#987C5F" d="M54.5312 128.028C57.0677 128.482 73.6786 138.076 76.6498 140.09C77.4868 140.657 77.6831 140.882 77.8725 141.838C77.5888 141.885 77.5367 141.898 77.2074 141.922C70.632 142.389 65.4126 140.031 60.419 135.871C58.0763 133.92 54.8337 131.24 54.5312 128.028Z"/>
	<path fill="#987C5F" d="M54.8116 140.165C55.1954 140.337 55.5093 140.495 55.8406 140.759C57.6297 142.183 59.8665 143.108 61.8683 144.209C66.7906 146.917 71.6489 149.549 76.7081 151.998C77.1484 152.683 77.0412 152.73 76.8983 153.496Q75.6554 153.772 74.3825 153.749C68.0101 153.655 63.0017 151.653 58.5649 147.022C56.999 145.388 54.7599 142.539 54.8116 140.165Z"/>
	<path fill="#987C5F" d="M54.8516 366.324C56.5296 366.643 65.2733 372.382 67.6109 373.65C70.0831 374.991 72.8789 375.943 75.2535 377.412C75.9053 377.816 76.3581 378.458 76.8057 379.066C72.0106 378.594 67.3613 379.178 62.9961 376.714C59.9557 374.998 55.7585 369.616 54.8516 366.324Z"/>
	<path fill="#F7F1E8" d="M87.2758 47.2318C92.1481 46.8116 97.2136 47.1002 102.113 47.1209L126.869 47.153L206.437 47.1689L296.015 47.1547L323.835 47.1071C329.148 47.0975 334.588 46.8589 339.885 47.2516C340.429 66.072 351.357 58.9182 356.006 71.468C348.939 72.0114 341.71 71.7638 334.62 71.7938L166.32 71.9311L113.174 71.9398C103.936 71.9467 94.3435 72.5426 85.1414 71.7848C80.3609 71.3911 75.4216 70.1927 71.3131 67.6367C68.4294 65.8428 67.1114 64.0041 66.3517 60.6935C66.6581 59.8428 66.9894 58.9291 67.4962 58.1745C68.5042 56.6733 70.1172 55.3706 71.615 54.3856C74.209 52.6797 84.4817 47.7874 87.2758 47.2318Z"/>
</svg>
