<?xml version="1.0" encoding="utf-8" ?>
<svg xmlns="http://www.w3.org/2000/svg" xmlns:xlink="http://www.w3.org/1999/xlink" width="424" height="536">
	<path fill="#535355" d="M122.319 491.441C119.729 492.309 113.438 491.771 110.489 491.747C96.9951 491.639 84.9615 492.853 72.4489 486.631C61.7734 481.322 54.6802 473.116 50.9003 461.818C49.0191 456.194 47.7906 449.978 47.5536 444.058C47.2729 437.048 47.4565 429.97 47.4293 422.952L47.3656 379.121L47.3449 253.441L47.3506 128.772L47.427 83.3391C47.4401 75.0785 47.1983 66.7373 47.4879 58.4861C47.5705 56.1328 47.8556 54.1477 48.9078 52.0234C53.6113 42.5274 63.2524 36.5271 73.0304 33.3242C78.0916 31.6664 83.668 30.5573 88.9791 30.264C98.8427 29.7194 108.677 29.9444 118.542 29.7186Q171.162 28.9428 223.786 29.2881L303.823 29.2399L333.605 29.2202C338.379 29.2193 343.203 29.0561 347.972 29.193C349.259 29.2299 350.659 29.2244 351.816 29.8499C353.471 30.745 354.579 32.1249 355.05 33.9464C355.859 37.073 355.493 40.7881 355.488 44.0115C355.479 49.8327 355.317 55.7113 355.544 61.526L355.704 61.8053C358.921 67.3558 365.484 69.7567 371.358 71.2681C375.562 72.3496 379.303 73.2721 381.707 77.2528C382.685 78.8722 383.038 80.6105 383.216 82.4721C383.546 85.929 383.431 89.4931 383.445 92.9649L383.477 109.611L383.478 160.97L383.472 402.475L383.448 460.519C383.436 464.919 383.972 478.29 383.108 481.743C382.293 485.004 380.102 487.738 377.225 489.436C375.5 490.454 373.618 491.07 371.647 491.393C368.844 491.854 352.556 492.148 350.12 491.619C349.95 491.582 349.729 491.499 349.574 491.445C347.66 492.315 187.588 491.783 166.672 491.776C160.245 491.774 124.471 492.233 122.319 491.441Z"/>
	<path fill="#92B1C6" d="M52.5788 58.7003C53.8769 51.6586 57.7072 46.9213 63.6112 42.8915C70.6019 38.1199 79.107 35.9379 87.44 35.1327C95.4553 34.3581 103.563 34.5444 111.608 34.5295L144.785 34.4864L252.514 34.4451L320.748 34.399L338.754 34.4137C342.605 34.4049 346.736 34.1388 350.555 34.6847C351.25 38.5925 350.986 42.8123 351.02 46.7779C351.053 50.7564 351.262 54.8278 350.959 58.7925C345.276 54.1737 346.345 51.5165 344.841 45.0691C344.058 44.2514 343.299 43.4167 342.41 42.7122C336.628 41.5477 330.022 42.0917 324.129 42.1111L298.058 42.1383L190.026 42.1398L118.94 42.1184L98.9889 42.0851C95.1024 42.0671 91.0495 41.8176 87.1907 42.2228C84.6235 42.4924 83.168 43.5838 80.8867 44.5271C76.9683 46.1472 73.1622 47.1177 69.5531 49.5006C66.0376 51.8218 62.6386 55.3862 61.7972 59.6555C61.2895 62.2321 61.8942 64.7358 63.3605 66.889C67.0311 72.2792 74.6926 75.0067 80.8372 76.0983C89.701 77.6729 99.2519 77.0619 108.225 77.0477L148.051 76.9635L310.317 76.9373Q331.319 77.0372 352.32 76.844C357.945 76.7552 363.72 75.9008 369.316 76.1017C371.388 76.1761 374.266 76.6927 375.906 78.0332C376.256 78.3193 376.567 78.6671 376.832 79.0324C377.936 80.5535 378.22 82.5106 378.36 84.3388C378.807 90.1968 378.572 96.2277 378.578 102.106L378.58 132.928L378.584 225.732L378.589 410.117L378.608 459.935C378.603 465.02 379.194 475.896 378.339 480.226C377.939 482.255 376.955 483.975 375.202 485.14C374.25 485.772 373.065 486.206 371.935 486.379C368.589 486.893 364.915 486.622 361.524 486.616L344.258 486.613L281.898 486.603L151.285 486.612L117.026 486.646C114.617 486.639 108.404 487.04 106.366 486.503Q106.003 486.41 105.657 486.268C105.325 486.403 105.049 486.521 104.689 486.564C99.3599 487.209 82.626 486.705 78.4575 483.833C78.401 483.837 78.3447 483.846 78.2881 483.846C75.3011 483.803 67.3987 478.082 65.2852 476.112C55.027 466.55 53.0577 453.387 52.5979 440.132C51.8791 438.305 52.3485 369.195 52.3432 359.992L52.3684 136.034L52.3723 81.1779C52.3647 76.5798 51.7128 62.315 52.5788 58.7003Z"/>
	<path fill="#7B7A7A" d="M52.5979 440.132C51.8791 438.305 52.3485 369.195 52.3432 359.992L52.3684 136.034L52.3723 81.1779C52.3647 76.5798 51.7128 62.315 52.5788 58.7003C53.0997 82.0764 52.647 105.551 52.6591 128.939L52.6672 269.695L52.6545 325.552L52.6481 343.022C52.6472 346.056 52.4649 349.203 52.7238 352.221C60.5682 356.971 68.8732 360.965 76.6722 365.794L76.6074 366.48C76.1471 367.12 75.7972 367.63 74.9828 367.779C71.6738 368.383 64.4415 365.071 61.812 363.149C58.0615 360.408 55.3183 356.587 52.7234 352.793C52.5124 360.684 52.6414 368.599 52.6414 376.494L52.6314 417.892L52.6733 433.088C52.6833 435.286 52.9675 437.974 52.5979 440.132Z"/>
	<path fill="#7B7A7A" d="M76.6722 365.794C76.7257 365.825 76.7784 365.858 76.8327 365.887C77.8668 366.45 79.6279 366.284 80.3834 367.044C80.4354 367.716 80.5049 367.878 80.1654 368.482C79.3095 368.526 78.4229 368.033 77.7979 367.469C77.6626 367.346 77.5408 367.21 77.4137 367.079C77.1666 366.825 76.907 366.665 76.6074 366.48L76.6722 365.794Z"/>
	<path fill="#7B7A7A" d="M84.2222 86.9449C85.4622 86.8583 86.4835 86.8022 87.5596 87.5029C87.9528 88.0259 88.0308 88.4365 88.0927 89.0797C88.5105 93.423 88.2301 98.0014 88.2188 102.375L88.217 125.751L88.1909 206.072L88.1766 468.817C88.1836 470.47 88.6171 474.772 87.41 476C87.1368 476.278 86.8625 476.182 86.5016 476.19C86.4309 476.221 86.3621 476.257 86.2896 476.284C85.4925 476.575 84.9919 476.41 84.2523 476.089C83.419 475.27 83.208 474.458 83.0685 473.312C82.6837 470.151 83.1524 466.56 83.1542 463.354Q83.0798 451.175 83.1869 438.997Q82.9769 400.084 83.2311 361.173L83.1977 184.081L83.2015 120.115Q83.0841 106.167 83.1533 92.2187C83.1818 90.3097 82.9706 88.5242 84.2222 86.9449Z"/>
	<path fill="#7B7A7A" d="M54.7476 128.112C58.719 129.652 62.3967 132.022 66.1166 134.061C69.6927 136.023 73.62 137.844 76.9074 140.269C77.6901 140.847 77.726 141.183 77.8542 142.09Q77.5021 142.09 77.1503 142.074C75.0899 141.995 72.8611 142.034 70.8458 141.589C65.705 140.455 60.3417 136.205 56.8373 132.354C55.6676 131.068 54.6663 129.94 54.7476 128.112Z"/>
	<path fill="#7B7A7A" d="M54.7613 140.113C55.9182 140.626 56.9392 141.609 58.101 142.223C64.2798 145.492 70.1861 149.041 76.6036 151.851C77.0326 152.469 76.9136 152.742 76.8834 153.478Q76.4024 153.599 75.9123 153.675C71.1357 154.437 65.6315 152.629 61.8104 149.804C58.7864 147.568 55.3654 143.976 54.7613 140.113Z"/>
	<path fill="#7B7A7A" d="M54.9196 366.326C57.458 367.021 65.747 372.734 68.6294 374.343C70.3933 375.329 72.4135 375.85 74.2621 376.664C75.7034 377.298 75.9338 377.64 76.5188 379.124C71.6785 378.702 66.7158 379.068 62.4312 376.359C60.0145 374.831 55.5596 369.105 54.9196 366.326Z"/>
	<path fill="#ECEEF0" d="M87.5951 47.2358C92.5861 46.8019 97.7725 47.1073 102.793 47.1291L127.988 47.164L210.471 47.1782L297.18 47.1704L324.429 47.1132C329.544 47.1021 334.811 46.8486 339.903 47.271C340.065 54.0644 341.371 59.2453 347.718 62.699C349.812 63.8385 351.892 64.7808 353.461 66.6363C354.677 68.0751 355.359 69.765 356.044 71.4992C348.755 71.8925 341.405 71.758 334.106 71.7866L166.101 71.9315L112.901 71.9386C103.871 71.9447 94.5297 72.5088 85.5301 71.8424C80.8316 71.4944 76.0384 70.386 71.9316 68.0097C68.7738 66.1826 67.2175 64.2829 66.2844 60.7509C66.6616 59.8024 67.0504 58.7817 67.6626 57.9578C68.805 56.4205 70.4304 55.1536 72.0339 54.1327C74.7725 52.3892 84.7087 47.7185 87.5951 47.2358Z"/>
	<defs>
		<linearGradient id="gradient_0" gradientUnits="userSpaceOnUse" x1="232.5632" y1="496.33655" x2="232.77071" y2="488.69415">
			<stop offset="0" stop-color="#9DA0A3" stop-opacity="0"/>
			<stop offset="1" stop-color="#B2ABAC" stop-opacity="0.019607844"/>
		</linearGradient>
	</defs>
	<path fill="url(#gradient_0)" d="M122.319 491.441C124.471 492.233 160.245 491.774 166.672 491.776C187.588 491.783 347.66 492.315 349.574 491.445C351.724 493.173 357.423 491.248 359.86 492.375C359.558 492.632 349.745 493.351 348.295 493.373C342.558 493.461 336.827 493.087 331.091 493.08L275.469 493.066L124.103 493.36C120.843 493.359 117.522 493.484 114.27 493.28C112.411 493.163 110.576 492.797 108.715 492.669C104.66 492.391 97.3751 492.277 93.3845 492.582L93.1108 492.605L93.1876 492.307L92.6837 492.387L93.0661 492.558L92.8557 492.257C92.9208 492.282 92.9821 492.321 93.0511 492.33C94.466 492.514 120.828 492.152 121.55 491.949C121.759 491.89 122.122 491.571 122.319 491.441Z"/>
</svg>
