<?xml version="1.0" encoding="utf-8" ?>
<svg xmlns="http://www.w3.org/2000/svg" xmlns:xlink="http://www.w3.org/1999/xlink" width="424" height="536">
	<path fill="#1C5B86" d="M198.747 29.1754C211.899 29.5359 225.112 29.2176 238.27 29.1882L308.82 29.1335L335.112 29.0875C339.652 29.0887 344.263 28.9253 348.796 29.1814C349.895 29.2435 351.043 29.3811 352.042 29.8762C353.676 30.6862 354.653 32.3565 355.126 34.0562C356.138 37.6895 355.452 50.5519 355.425 55.0162C355.412 57.0863 355.186 59.4836 355.829 61.4718C356.361 63.1174 357.655 64.506 358.955 65.6008C362.912 68.9338 367.416 70.16 372.301 71.4806C374.089 71.9639 375.847 72.3821 377.483 73.2764C379.829 74.5585 381.928 76.763 382.675 79.3734C384.175 84.6163 383.476 101.992 383.481 108.332L383.505 158.45L383.494 389.641L383.481 450.533L383.483 469.976C383.482 473.447 383.687 477.089 383.349 480.537C383.215 481.899 382.718 483.303 382.055 484.495C380.16 487.899 376.697 490.224 372.986 491.208C368.703 492.344 363.267 491.73 358.808 491.794Q340.911 492.007 323.012 491.989L264.542 491.966C254.91 491.952 245.161 492.303 235.55 491.907C234.965 491.883 234.618 491.768 234.111 491.478C233.517 491.846 233.077 491.899 232.382 491.929C223.751 492.299 214.98 491.955 206.328 491.958L152.3 491.936Q131.516 492.095 110.733 491.77C101.585 491.71 92.1166 492.348 83.1002 490.606C75.6987 489.176 67.0209 484.462 61.5431 479.329C52.184 470.559 47.8428 455.819 47.4954 443.257C47.3088 436.512 47.4759 429.737 47.4225 422.988L47.3306 357.955L47.34 189.033L47.3648 95.6695L47.4433 70.7566C47.4376 65.9164 47.0543 60.7825 47.632 55.9883C48.1624 51.5862 51.849 47.0446 54.8182 43.9218C60.8752 37.5511 70.0534 33.635 78.571 31.7831C90.9389 29.0941 103.913 29.926 116.509 29.7043Q142.556 29.1203 168.609 29.2866C178.651 29.2689 188.709 29.4008 198.747 29.1754Z"/>
	<path fill="#60AFFA" d="M52.3459 65.6257C52.258 57.8687 53.0257 52.7078 58.6865 46.9536C69.6121 35.8479 85.8773 34.5551 100.533 34.5194L279.317 34.4626C302.07 34.5385 324.889 33.8663 347.633 34.4355C348.482 34.4567 349.841 34.3479 350.486 34.8876C351.518 38.4601 351.352 54.6919 350.91 58.9446C349.006 57.3936 347.446 55.7959 346.459 53.5107C345.221 50.6426 345.69 43.8726 342.276 42.7398C338.893 41.617 302.448 42.2775 296.428 42.2775L164.704 42.2632L112.456 42.2323L97.454 42.1917C94.3337 42.1797 91.1134 42.0257 88.0064 42.3272C83.6224 42.7528 73.6967 46.9784 69.8465 49.4143C67.9484 50.6152 66.2077 52.0669 64.7937 53.8185C62.8226 56.2601 61.3032 59.4105 61.7027 62.6218C62.095 65.7753 64.1659 68.3774 66.6303 70.251C71.4176 73.8907 77.9202 75.8926 83.8678 76.5041C94.9921 77.648 106.637 77.0052 117.819 76.9894L178.696 76.8256L287.572 76.7533Q319.234 76.9847 350.896 76.6749Q355.79 76.5948 360.68 76.3868C365.677 76.1631 373.097 74.7075 376.873 78.9097C377.778 79.9175 378.059 81.867 378.249 83.1686C378.954 88.0074 378.669 93.1459 378.672 98.0317L378.656 122.058L378.667 201.642L378.676 391.683C378.646 419.963 379.098 448.291 378.69 476.564C378.653 479.096 378.495 481.56 376.878 483.64C375.435 485.497 373.254 486.329 370.979 486.548C367.212 486.912 363.254 486.624 359.464 486.619L336.726 486.649L242.335 486.611L144.139 486.651L108.011 486.634C101.407 486.611 94.5376 487.026 87.974 486.253C79.9538 485.307 72.6662 482.355 66.4448 477.161C57.5162 469.706 53.8692 458.542 52.919 447.315C52.7613 445.452 52.614 443.58 52.5943 441.709C51.7791 439.9 52.3009 393.685 52.2994 388.466L52.3194 173.499L52.3319 99.2082C52.3522 88.0452 51.9467 76.7715 52.3459 65.6257Z"/>
	<path fill="#2F82C0" d="M52.3459 65.6257C53.1803 71.8647 52.6374 78.66 52.6439 84.9557L52.601 124.792L52.6418 283.234L52.618 330.696L52.5787 344.168C52.5652 346.816 52.4073 349.609 52.6898 352.24C57.9285 355.391 63.4128 358.144 68.7562 361.116C71.5749 362.684 74.2715 364.464 77.0744 366.058C78.1426 366.666 79.5392 366.369 80.4141 366.967C80.5163 367.607 80.4314 367.631 80.0962 368.199C78.7538 368.412 78.1703 367.21 77.0611 367.02C76.2769 366.885 74.9112 367.47 74.0299 367.519C70.0506 367.74 65.3351 365.745 62.1603 363.464C58.2311 360.64 55.9903 356.706 52.6098 353.433L52.5875 418.282L52.6573 434.194C52.673 436.56 53.0062 439.407 52.5943 441.709C51.7791 439.9 52.3009 393.685 52.2994 388.466L52.3194 173.499L52.3319 99.2082C52.3522 88.0452 51.9467 76.7715 52.3459 65.6257Z"/>
	<path fill="#2F82C0" d="M84.5174 86.9507C85.3043 86.9282 86.3197 86.8773 87.0477 87.1941C87.5706 87.4217 87.8382 87.6539 87.9769 88.2122C88.6975 91.1121 88.2334 95.155 88.2247 98.1929L88.1602 118.054L88.1252 210.331L88.1896 396.267L88.205 449.467C88.1926 456.797 88.3424 464.156 88.1859 471.482C88.1536 472.991 88.2224 474.754 87.4149 476.081C86.8631 476.345 86.8429 476.31 86.24 476.171C85.9777 476.294 85.7437 476.385 85.4465 476.389C84.9152 476.398 84.2796 476.13 83.9283 475.735C82.7975 474.463 83.1502 470.816 83.1667 469.155L83.2783 203.438L83.3378 120.684Q83.3722 110.869 83.2436 101.054C83.2202 97.0726 83.0638 92.9908 83.4368 89.024C83.5356 87.9734 83.7234 87.5978 84.5174 86.9507Z"/>
	<path fill="#2F82C0" d="M54.6327 128.332C54.7104 128.341 54.7889 128.344 54.8658 128.359C57.674 128.886 77.0082 139.629 78.4744 141.815C73.463 142.521 68.6475 141.417 64.3745 138.751C60.9225 136.596 55.5917 132.464 54.6327 128.332Z"/>
	<path fill="#2F82C0" d="M54.8852 140.168C55.2191 140.333 55.5017 140.468 55.7743 140.726C57.3622 142.229 60.0399 143.124 61.9675 144.189C65.1393 145.94 68.227 147.864 71.4675 149.489C72.9715 150.244 75.4631 151.012 76.6942 152.086C77.1294 152.466 77.0697 152.919 77.1372 153.454Q76.6311 153.574 76.1155 153.641C70.7783 154.382 65.3129 152.572 61.1216 149.303C58.3152 147.114 55.3552 143.835 54.8852 140.168Z"/>
	<path fill="#2F82C0" d="M55.0628 366.362C61.1111 369.812 66.9015 373.665 73.3213 376.354C75.0791 377.09 75.9091 377.28 76.6645 379.108C74.7995 378.825 72.9163 378.796 71.0359 378.687C67.2531 378.468 62.6633 377.644 60.0582 374.584C59.3621 373.766 58.9388 372.671 58.3679 371.761C57.3312 370.11 54.9265 368.47 55.0628 366.362Z"/>
	<path fill="#DFEEFC" d="M87.6239 47.2054C92.5929 46.8212 97.7584 47.1272 102.751 47.1583L126.176 47.1789L199.698 47.1887L295.242 47.1914L323.809 47.131C329.151 47.1169 334.575 46.9181 339.904 47.2429C340.096 54.2589 341.412 59.2155 347.907 62.8073C349.827 63.8696 351.712 64.7143 353.197 66.3813C354.524 67.8717 355.27 69.6553 356.063 71.4641C348.758 71.896 341.403 71.7533 334.086 71.777L165.032 71.9476L112.644 71.9551C103.724 71.963 94.4505 72.5389 85.5691 71.8683C80.9845 71.5221 76.27 70.4434 72.2292 68.1894C68.9555 66.3633 67.3271 64.5087 66.2805 60.8961C66.5727 60.02 66.9499 59.0534 67.4588 58.2768C68.4643 56.7425 70.1014 55.4172 71.6181 54.4159C74.4371 52.5549 84.5762 47.7545 87.6239 47.2054Z"/>
</svg>
