<?xml version="1.0" encoding="utf-8" ?>
<svg xmlns="http://www.w3.org/2000/svg" xmlns:xlink="http://www.w3.org/1999/xlink" width="1247" height="1199">
	<path transform="scale(7.99545 7.99545)" d="M74.6751 16.1145Q75.5115 16.0802 76.3486 16.0687C89.4234 15.8971 113.202 17.2976 122.77 26.6927C124.153 28.0507 125.376 29.9926 125.843 31.8889C126.579 34.8796 126.134 47.7206 126.168 51.8003Q126.279 73.6746 126.159 95.5489C126.142 100.394 126.672 109.851 125.927 114.217C125.651 115.828 124.597 117.366 123.468 118.504C114.692 127.349 92.2701 129.249 80.2951 129.277C64.8048 129.303 44.0817 130.052 31.9433 118.721C29.3693 116.319 28.6331 114.291 28.5207 110.844C28.3224 104.769 28.4647 98.6515 28.4633 92.5702L28.4496 59.2883Q28.4704 52.1388 28.3779 44.9899C28.311 40.6976 27.9863 36.1668 28.6344 31.9108C28.911 30.094 30.0462 28.5091 31.2788 27.2055C40.7747 17.1621 61.6599 16.4708 74.6751 16.1145Z"/>
	<path fill="#7999C9" transform="scale(7.99545 7.99545)" d="M70.3789 18.8559L70.4523 18.8485C83.0268 17.6825 110.688 20.0893 120.208 27.9807C121.9 29.3837 122.91 31.1486 123.109 33.3505C123.295 35.4006 122.792 37.3002 121.462 38.8872C114.933 46.6793 93.2936 48.1445 83.4518 48.9544C70.6706 49.5012 43.7068 48.7507 34.1094 40.4196C32.4823 39.0071 30.9565 37.0859 30.8226 34.8499C30.6957 32.7316 31.6321 30.6502 33.0233 29.0969C39.9232 21.3931 60.2971 19.4027 70.3789 18.8559Z"/>
	<path fill="#7999C9" transform="scale(7.99545 7.99545)" d="M30.8785 40.841C31.9252 41.2698 34.9749 44.0638 36.4865 44.9896C42.3843 48.602 50.3444 49.8399 57.097 50.7459C73.3585 52.928 99.8945 52.433 115.147 46.1296C118.184 44.8743 120.733 43.2165 123.337 41.2283C123.345 46.8136 124.023 60.0293 122.573 64.5639Q121.921 65.309 121.219 66.0074C112.419 74.6198 85.8632 75.7736 73.7475 75.6081C62.7171 75.4575 41.1642 74.1775 33.4254 66.1383C32.4986 65.1755 31.7846 64.1265 31.4038 62.8377C30.0206 58.1553 30.7744 46.1975 30.8785 40.841Z"/>
	<path fill="#7999C9" transform="scale(7.99545 7.99545)" d="M123.271 93.725L123.581 94.0385C123.944 96.8189 123.656 99.8777 123.653 102.689C123.65 105.305 123.844 107.936 123.765 110.548C123.686 113.143 122.921 115.363 120.998 117.154C111.593 125.91 80.4956 127.216 67.4005 126.695C56.7113 126.27 40.6896 124.149 33.0552 115.881C33.0371 115.858 33.0186 115.834 33.0007 115.811C32.4512 115.084 31.8801 114.377 31.6143 113.491C30.3614 109.317 31.0436 98.5569 31.0212 93.6305C38.6662 98.3954 45.9845 101.089 54.925 102.378C74.1857 105.156 107.201 105.749 123.271 93.725Z"/>
	<path fill="#7999C9" transform="scale(7.99545 7.99545)" d="M30.8578 68.3414C31.8436 68.5951 36.0147 71.3728 37.3288 72.0371C43.4812 75.1476 50.3848 76.4199 57.1639 77.3255C75.0281 79.7117 108.742 79.5635 123.443 68.3237C123.219 73.9779 124.388 85.283 122.628 90.0502Q122.095 90.7706 121.456 91.3987C112.746 100.109 88.4048 101.202 76.2899 101.236C64.7506 101.268 41.8212 99.7812 33.4843 91.4156C32.4691 90.397 31.6796 89.2659 31.2701 87.8795C30.0455 83.7333 30.8416 73.1065 30.8578 68.3414Z"/>
</svg>
