<?xml version="1.0" encoding="utf-8" ?>
<svg xmlns="http://www.w3.org/2000/svg" xmlns:xlink="http://www.w3.org/1999/xlink" width="548" height="430">
	<path fill="#010000" transform="scale(2.36393 2.36393)" d="M108.182 26.3572C108.258 26.3476 108.333 26.3384 108.409 26.3345C120.364 25.7102 131.503 26.8138 142.47 31.9078C145.242 33.1954 148.089 34.6198 150.361 36.6887C150.817 36.1193 151.281 35.5496 151.781 35.0174C155.784 30.7547 162.609 26.5289 168.508 26.4032C171.407 26.3415 174.488 27.2553 176.601 29.3065C178.223 30.8808 179.031 32.9395 179.055 35.1862C179.131 42.4265 171.544 53.0642 166.609 58.1168C167.373 59.2211 167.896 60.3749 168.371 61.6246C172.402 72.2218 172.24 87.3727 163.116 95.2497C160.185 97.7801 153.24 100.343 151.84 103.595C149.101 109.96 156.353 115.917 158.467 121.417C160.392 126.428 159.609 132.48 157.436 137.28C153.405 146.184 144.444 152.11 135.585 155.421C130.803 156.876 125.964 158.049 120.967 158.46C102.587 159.974 81.0502 157.368 66.5044 145.009C53.8054 134.219 47.1149 119.246 45.7925 102.754C44.3312 84.5321 51.1953 63.3576 63.0681 49.4529Q64.1178 48.2107 65.2277 47.022Q66.3376 45.8333 67.5049 44.7009Q68.6723 43.5686 69.8942 42.4954Q71.1162 41.4222 72.3897 40.4108Q73.6633 39.3993 74.9854 38.4522Q76.3074 37.505 77.6747 36.6245Q79.042 35.7439 80.4512 34.9321Q81.8604 34.1202 83.308 33.3791Q84.7557 32.638 86.2382 31.9694Q87.7208 31.3009 89.2346 30.7065Q90.7484 30.1121 92.2897 29.5933Q93.8311 29.0746 95.3963 28.6328Q96.9614 28.1909 98.5465 27.8271Q100.132 27.4632 101.733 27.1782Q103.334 26.8933 104.947 26.6879Q106.561 26.4825 108.182 26.3572Z"/>
	<path fill="#96B5ED" transform="scale(2.36393 2.36393)" d="M111.109 30.6075C122.91 29.6883 137.305 32.68 147.12 39.461C140.203 46.1922 131.022 58.2153 125.817 66.3116C123.819 69.4189 122.081 72.7143 120.194 75.8923C117.315 76.4984 114.3 77.1289 111.986 79.0767C107.432 82.9081 97.6816 101.866 97.1936 107.787C97.1422 108.411 97.133 109.508 97.5859 110.001C98.9073 111.438 106.233 112.628 108.161 112.783C114.449 113.288 120.415 110.859 125.146 106.804C131.291 101.535 135.482 94.1256 136.084 86.0224C140.152 82.3378 144.849 79.2064 149.047 75.6328C154.16 71.2795 158.826 66.3991 163.676 61.7557C167.724 71.6675 168.682 85.2901 159.499 92.7686C154.462 96.8709 149.891 96.7231 147.189 103.604C144.326 112.749 154.696 118.167 155.205 126.702C155.537 132.284 152.612 137.714 148.98 141.756C141.685 149.875 130.271 153.76 119.619 154.322C101.309 155.288 81.6841 152.961 67.5366 140.2C56.6929 130.419 51.13 116.061 50.4142 101.697C49.4636 82.6184 55.6616 64.0848 68.546 49.8662C79.5456 37.7275 94.9487 31.4128 111.109 30.6075Z"/>
	<path fill="#010000" transform="scale(2.36393 2.36393)" d="M81.5345 57.9786Q81.8394 57.9365 82.146 57.9093Q82.4526 57.8822 82.7601 57.87Q83.0677 57.8578 83.3755 57.8607Q83.6832 57.8636 83.9905 57.8815Q84.2978 57.8994 84.6038 57.9323Q84.9098 57.9652 85.2139 58.0131Q85.5179 58.0609 85.8193 58.1235Q86.1206 58.1861 86.4186 58.2633Q86.7165 58.3406 87.0103 58.4323Q87.3041 58.524 87.5931 58.6299Q87.8821 58.7359 88.1656 58.8558Q88.449 58.9758 88.7263 59.1094Q89.0035 59.2431 89.2739 59.3901Q89.5443 59.5371 89.8072 59.6972Q90.0701 59.8572 90.3249 60.0299Q90.5797 60.2027 90.8257 60.3876Q91.0717 60.5726 91.3084 60.7693Q91.5451 60.966 91.7719 61.1741Q91.9987 61.3822 92.2151 61.6011Q92.4315 61.82 92.6369 62.0492Q92.8423 62.2784 93.0363 62.5174Q93.2303 62.7564 93.4123 63.0045Q93.5944 63.2527 93.7641 63.5094Q93.9339 63.7662 94.0909 64.0309Q94.2479 64.2957 94.3917 64.5678Q94.5356 64.8399 94.666 65.1187Q94.7964 65.3975 94.913 65.6823Q95.0297 65.9671 95.1322 66.2573Q95.2348 66.5475 95.3231 66.8424Q95.4114 67.1372 95.4852 67.4361Q95.5589 67.7349 95.618 68.0369Q95.6771 68.339 95.7214 68.6436Q95.7657 68.9482 95.795 69.2546Q95.8243 69.561 95.8387 69.8684Q95.853 70.1759 95.8523 70.4837Q95.8516 70.7915 95.8359 71.0989Q95.8201 71.4062 95.7894 71.7125Q95.7587 72.0188 95.713 72.3231Q95.6673 72.6275 95.6069 72.9293Q95.5464 73.2311 95.4713 73.5296Q95.3961 73.8281 95.3065 74.1225Q95.2169 74.417 95.113 74.7067Q95.009 74.9964 94.8911 75.2807Q94.7732 75.565 94.6415 75.8432Q94.5098 76.1214 94.3647 76.3929Q94.2196 76.6643 94.0614 76.9283Q93.9032 77.1923 93.7323 77.4483Q93.5614 77.7043 93.3782 77.9516Q93.195 78.1989 92.9999 78.437Q92.8048 78.6751 92.5984 78.9034Q92.3919 79.1317 92.1746 79.3496Q91.9572 79.5675 91.7294 79.7745Q91.5017 79.9816 91.2641 80.1772Q91.0265 80.3729 90.7796 80.5567Q90.5327 80.7405 90.2772 80.9121Q90.0216 81.0836 89.758 81.2425Q89.4944 81.4013 89.2233 81.5471Q88.9523 81.6929 88.6744 81.8253Q88.3965 81.9577 88.1125 82.0763Q87.8285 82.195 87.539 82.2996Q87.2496 82.4042 86.9554 82.4946Q86.6611 82.585 86.3628 82.6609Q86.0646 82.7367 85.7629 82.798Q85.4613 82.8592 85.157 82.9056Q84.85 82.9524 84.541 82.9841Q84.2321 83.0157 83.9219 83.0321Q83.6118 83.0485 83.3012 83.0496Q82.9906 83.0507 82.6804 83.0364Q82.3701 83.0222 82.0609 82.9927Q81.7518 82.9632 81.4444 82.9185Q81.1371 82.8737 80.8323 82.8139Q80.5275 82.7541 80.2261 82.6794Q79.9247 82.6046 79.6273 82.5151Q79.3299 82.4256 79.0372 82.3215Q78.7446 82.2175 78.4575 82.0991Q78.1703 81.9807 77.8894 81.8483Q77.6084 81.716 77.3344 81.5699Q77.0603 81.4238 76.7937 81.2645Q76.5272 81.1051 76.2688 80.9327Q76.0104 80.7604 75.7608 80.5755Q75.5113 80.3907 75.2711 80.1937Q75.031 79.9968 74.8008 79.7882Q74.5707 79.5797 74.3511 79.3601Q74.1315 79.1404 73.923 78.9103Q73.7145 78.6801 73.5176 78.4399Q73.3206 78.1997 73.1358 77.9501Q72.951 77.7005 72.7787 77.4421Q72.6064 77.1837 72.447 76.9172Q72.2877 76.6506 72.1417 76.3765Q71.9956 76.1024 71.8633 75.8214Q71.731 75.5404 71.6126 75.2533Q71.4943 74.9661 71.3903 74.6735Q71.2863 74.3808 71.1968 74.0834Q71.1073 73.786 71.0326 73.4846Q70.9579 73.1831 70.8981 72.8783Q70.8384 72.5735 70.7937 72.2662Q70.749 71.9589 70.7196 71.6497Q70.6901 71.3405 70.6759 71.0303Q70.6618 70.72 70.6629 70.4094Q70.664 70.0988 70.6804 69.7887Q70.6969 69.4786 70.7286 69.1696Q70.7603 68.8607 70.8071 68.5536Q70.854 68.2466 70.916 67.9423Q70.978 67.638 71.0548 67.337Q71.1317 67.0361 71.2233 66.7394Q71.315 66.4426 71.4211 66.1507Q71.5273 65.8589 71.6476 65.5726Q71.768 65.2863 71.9024 65.0063Q72.0368 64.7263 72.1848 64.4532Q72.3328 64.1802 72.494 63.9148Q72.6553 63.6493 72.8295 63.3922Q73.0036 63.135 73.1903 62.8868Q73.3769 62.6385 73.5755 62.3998Q73.7742 62.161 73.9843 61.9324Q74.1945 61.7037 74.4156 61.4857Q74.6368 61.2676 74.8685 61.0608Q75.1001 60.8539 75.3417 60.6587Q75.5833 60.4635 75.8342 60.2804Q76.0851 60.0974 76.3447 59.9269Q76.6043 59.7564 76.872 59.599Q77.1397 59.4415 77.4148 59.2974Q77.69 59.1534 77.9719 59.023Q78.2538 58.8927 78.5417 58.7764Q78.8297 58.6601 79.1231 58.5581Q79.4165 58.4562 79.7145 58.3688Q80.0125 58.2814 80.3145 58.2089Q80.6165 58.1363 80.9217 58.0787Q81.2269 58.0211 81.5345 57.9786Z"/>
	<path fill="#364976" transform="scale(2.36393 2.36393)" d="M82.5347 62.8207C84.2836 62.416 86.5762 62.5428 88.1205 63.4989C89.8051 64.5419 90.9624 66.3812 91.3886 68.2956Q91.4768 68.7077 91.524 69.1266Q91.5713 69.5454 91.5771 69.9668Q91.583 70.3883 91.5474 70.8082Q91.5118 71.2282 91.4351 71.6426Q91.3584 72.0571 91.2413 72.462Q91.1243 72.8669 90.968 73.2583Q90.8117 73.6497 90.6177 74.0239Q90.4237 74.398 90.1938 74.7513C88.9785 76.6511 87.1031 77.8862 84.9075 78.3556C82.7257 78.822 80.2928 78.606 78.3923 77.3718Q78.0791 77.1703 77.7876 76.9385Q77.496 76.7068 77.2291 76.4471Q76.9621 76.1875 76.7223 75.9025Q76.4825 75.6175 76.2724 75.31Q76.0622 75.0025 75.8838 74.6757Q75.7053 74.3488 75.5603 74.0057Q75.4154 73.6627 75.3053 73.3069Q75.1952 72.9511 75.1212 72.5861C74.9269 71.6232 74.8461 70.4306 75.1186 69.4808C75.3554 68.4547 75.6272 67.3601 76.19 66.4587C77.6629 64.0994 79.959 63.4176 82.5347 62.8207Z"/>
	<path fill="#96B5ED" transform="scale(2.36393 2.36393)" d="M82.5347 62.8207L83.0709 63.1744C82.0161 64.4766 79.9032 64.8512 78.712 66.0636C77.5236 67.2731 76.4463 70.5747 75.3656 71.309C75.0662 70.7099 75.1091 70.1333 75.1186 69.4808C75.3554 68.4547 75.6272 67.3601 76.19 66.4587C77.6629 64.0994 79.959 63.4176 82.5347 62.8207Z"/>
	<path fill="#010000" transform="scale(2.36393 2.36393)" d="M104.24 121.526Q104.514 121.514 104.789 121.515Q105.064 121.517 105.338 121.531Q105.612 121.546 105.885 121.574Q106.158 121.602 106.43 121.644Q106.701 121.685 106.97 121.74Q107.239 121.794 107.506 121.862Q107.772 121.93 108.034 122.01Q108.297 122.091 108.555 122.184Q108.813 122.278 109.067 122.383Q109.32 122.489 109.568 122.607Q109.816 122.725 110.058 122.855Q110.299 122.986 110.535 123.127Q110.77 123.269 110.998 123.422Q111.226 123.575 111.446 123.739Q111.666 123.903 111.878 124.078Q112.09 124.252 112.293 124.437Q112.497 124.622 112.691 124.816Q112.884 125.01 113.069 125.214Q113.253 125.418 113.427 125.63Q113.601 125.843 113.764 126.063Q113.928 126.284 114.08 126.512Q114.233 126.741 114.374 126.976Q114.515 127.212 114.645 127.454Q114.774 127.696 114.891 127.944Q115.009 128.192 115.114 128.446Q115.219 128.7 115.312 128.958Q115.405 129.217 115.485 129.479Q115.565 129.742 115.632 130.008Q115.699 130.275 115.753 130.544Q115.807 130.813 115.847 131.085Q115.888 131.356 115.916 131.63Q115.943 131.903 115.957 132.177Q115.971 132.451 115.972 132.726Q115.972 133 115.959 133.275Q115.947 133.549 115.92 133.822Q115.894 134.096 115.855 134.367Q115.815 134.639 115.763 134.908Q115.71 135.178 115.644 135.444Q115.578 135.711 115.499 135.974Q115.421 136.237 115.329 136.496Q115.238 136.755 115.134 137.009Q115.03 137.263 114.913 137.512Q114.797 137.76 114.669 138.003Q114.54 138.246 114.4 138.482Q114.26 138.718 114.109 138.947Q113.957 139.176 113.795 139.398Q113.632 139.619 113.459 139.832Q113.286 140.045 113.103 140.25Q112.92 140.454 112.727 140.65Q112.534 140.845 112.331 141.031Q112.129 141.216 111.918 141.392Q111.707 141.567 111.487 141.732Q111.268 141.897 111.041 142.051Q110.813 142.205 110.579 142.348Q110.344 142.491 110.103 142.622Q109.862 142.753 109.615 142.872Q109.367 142.992 109.114 143.099Q108.862 143.206 108.604 143.3Q108.346 143.395 108.084 143.477Q107.822 143.558 107.556 143.627Q107.29 143.696 107.021 143.752Q106.753 143.808 106.481 143.851Q106.21 143.893 105.937 143.923Q105.664 143.952 105.39 143.968Q105.113 143.984 104.836 143.987Q104.559 143.989 104.282 143.978Q104.006 143.967 103.73 143.942Q103.454 143.917 103.179 143.879Q102.905 143.84 102.633 143.789Q102.36 143.737 102.091 143.672Q101.822 143.606 101.556 143.528Q101.29 143.45 101.029 143.358Q100.767 143.267 100.51 143.163Q100.254 143.058 100.002 142.942Q99.751 142.825 99.5058 142.696Q99.2606 142.567 99.022 142.426Q98.7834 142.285 98.552 142.133Q98.3207 141.98 98.0971 141.817Q97.8736 141.653 97.6583 141.478Q97.4431 141.304 97.2368 141.119Q97.0304 140.934 96.8334 140.739Q96.6364 140.544 96.4493 140.34Q96.2621 140.136 96.0853 139.922Q95.9084 139.709 95.7423 139.487Q95.5762 139.266 95.4212 139.036Q95.2662 138.806 95.1227 138.569Q94.9793 138.332 94.8477 138.088Q94.716 137.845 94.5966 137.595Q94.4771 137.344 94.3702 137.089Q94.2632 136.833 94.1689 136.573Q94.0747 136.312 93.9934 136.047Q93.9121 135.782 93.844 135.514Q93.7758 135.245 93.721 134.974Q93.6662 134.702 93.6249 134.428Q93.5835 134.154 93.5557 133.878Q93.5279 133.603 93.5137 133.326Q93.4995 133.049 93.499 132.772Q93.4985 132.495 93.5117 132.218Q93.5248 131.942 93.5516 131.666Q93.5783 131.39 93.6187 131.116Q93.659 130.842 93.7128 130.57Q93.7666 130.298 93.8337 130.029Q93.9008 129.761 93.9811 129.495Q94.0614 129.23 94.1547 128.969Q94.2479 128.708 94.3539 128.452Q94.4599 128.196 94.5784 127.946Q94.697 127.695 94.8277 127.451Q94.9584 127.207 95.1009 126.969Q95.2435 126.732 95.3976 126.501Q95.5518 126.271 95.717 126.049Q95.8823 125.826 96.0584 125.612Q96.2344 125.398 96.4208 125.193Q96.6071 124.988 96.8034 124.793Q96.9997 124.597 97.2053 124.412Q97.411 124.226 97.6255 124.051Q97.8401 123.875 98.063 123.711Q98.2859 123.546 98.5167 123.393Q98.7475 123.239 98.9855 123.098Q99.2236 122.956 99.4684 122.826Q99.7131 122.696 99.964 122.578Q100.215 122.461 100.471 122.356Q100.728 122.25 100.989 122.158Q101.25 122.066 101.515 121.986Q101.781 121.907 102.05 121.841Q102.319 121.774 102.591 121.722Q102.863 121.669 103.137 121.629Q103.411 121.59 103.687 121.564Q103.963 121.538 104.24 121.526Z"/>
	<path fill="#364976" transform="scale(2.36393 2.36393)" d="M99.4886 137.215C99.4336 137.146 99.3765 137.079 99.327 137.006C98.241 135.411 97.441 133.29 97.8343 131.358C98.1496 129.809 99.1362 128.559 100.436 127.704C102.154 126.573 104.773 126.075 106.778 126.489C108.335 126.885 110.025 128.045 110.852 129.453C111.665 130.838 111.757 132.558 111.341 134.085Q111.245 134.434 111.115 134.772Q110.984 135.11 110.821 135.434Q110.658 135.757 110.463 136.063Q110.269 136.369 110.045 136.653Q109.821 136.938 109.57 137.199Q109.319 137.461 109.043 137.695Q108.767 137.93 108.47 138.137Q108.172 138.343 107.855 138.519C105.996 139.565 104.23 139.559 102.151 139.501C101.13 138.901 100.063 138.306 99.4886 137.215Z"/>
	<path fill="#96B5ED" transform="scale(2.36393 2.36393)" d="M99.4886 137.215C99.4336 137.146 99.3765 137.079 99.327 137.006C98.241 135.411 97.441 133.29 97.8343 131.358C98.1496 129.809 99.1362 128.559 100.436 127.704C102.154 126.573 104.773 126.075 106.778 126.489L106.662 126.623C103.855 129.788 101.802 128.817 100.157 133.771C99.7823 134.899 99.8462 136.129 99.4886 137.215Z"/>
	<path fill="#010000" transform="scale(2.36393 2.36393)" d="M72.9517 98.0064Q73.2181 97.9635 73.4863 97.9338Q73.7546 97.9041 74.0239 97.8876Q74.2933 97.8711 74.5631 97.8678Q74.8329 97.8645 75.1026 97.8746Q75.3723 97.8846 75.6411 97.9078Q75.91 97.9311 76.1773 97.9675Q76.4447 98.0039 76.71 98.0535Q76.9753 98.103 77.2378 98.1655Q77.5003 98.228 77.7594 98.3033Q78.0186 98.3787 78.2737 98.4666Q78.5288 98.5546 78.7793 98.655Q79.0297 98.7554 79.275 98.868Q79.5202 98.9806 79.7596 99.1051Q79.9991 99.2296 80.2321 99.3657Q80.4651 99.5018 80.6911 99.6492Q80.9171 99.7966 81.1357 99.955Q81.3542 100.113 81.5647 100.282Q81.7751 100.451 81.9771 100.63Q82.179 100.809 82.3719 100.998Q82.5647 101.187 82.7481 101.385Q82.9315 101.583 83.1049 101.789Q83.2783 101.996 83.4414 102.211Q83.6044 102.426 83.7567 102.649Q83.909 102.872 84.0501 103.102Q84.1913 103.332 84.321 103.568Q84.4507 103.805 84.5686 104.048Q84.6865 104.29 84.7923 104.539Q84.8981 104.787 84.9916 105.04Q85.0851 105.293 85.1661 105.551Q85.247 105.808 85.3152 106.069Q85.3834 106.33 85.4387 106.594Q85.494 106.858 85.5362 107.125Q85.5784 107.392 85.6075 107.66Q85.6366 107.928 85.6525 108.198Q85.6684 108.467 85.671 108.737Q85.6736 109.007 85.663 109.276Q85.6523 109.546 85.6284 109.815Q85.6045 110.084 85.5675 110.351Q85.5304 110.618 85.4803 110.883Q85.4301 111.148 85.367 111.411Q85.3038 111.673 85.2279 111.932Q85.1519 112.191 85.0633 112.446Q84.9748 112.701 84.8738 112.951Q84.7728 113.201 84.6596 113.446Q84.5464 113.691 84.4213 113.931Q84.2962 114.17 84.1596 114.402Q84.0229 114.635 83.8749 114.861Q83.727 115.086 83.5681 115.305Q83.4092 115.523 83.2399 115.733Q83.0705 115.943 82.8909 116.144Q82.7114 116.346 82.5222 116.538Q82.333 116.731 82.1346 116.914Q81.9362 117.097 81.729 117.269Q81.5218 117.442 81.3064 117.605Q81.091 117.767 80.8678 117.919Q80.6447 118.071 80.4144 118.212Q80.184 118.352 79.9471 118.481Q79.7101 118.61 79.467 118.728Q79.224 118.845 78.9755 118.95Q78.727 119.056 78.4736 119.148Q78.2203 119.241 77.9626 119.322Q77.705 119.402 77.4437 119.47Q77.1825 119.537 76.9182 119.592Q76.6539 119.646 76.3873 119.688Q76.1215 119.729 75.8539 119.758Q75.5864 119.786 75.3178 119.802Q75.0492 119.817 74.7802 119.819Q74.5112 119.821 74.2424 119.81Q73.9735 119.799 73.7056 119.774Q73.4377 119.75 73.1712 119.713Q72.9048 119.675 72.6405 119.625Q72.3763 119.575 72.1148 119.511Q71.8533 119.448 71.5952 119.372Q71.3371 119.296 71.0831 119.208Q70.829 119.119 70.5796 119.018Q70.3302 118.917 70.086 118.804Q69.8419 118.691 69.6035 118.567Q69.3652 118.442 69.1333 118.305Q68.9014 118.169 68.6764 118.022Q68.4514 117.874 68.2339 117.716Q68.0164 117.557 67.807 117.388Q67.5975 117.22 67.3966 117.041Q67.1957 116.862 67.0038 116.673Q66.8118 116.485 66.6294 116.287Q66.4469 116.089 66.2744 115.883Q66.1018 115.677 65.9396 115.462Q65.7773 115.247 65.6258 115.025Q65.4743 114.803 65.3338 114.573Q65.1934 114.344 65.0644 114.108Q64.9353 113.872 64.818 113.629Q64.7007 113.387 64.5954 113.14Q64.4901 112.892 64.397 112.64Q64.3039 112.387 64.2234 112.131Q64.1428 111.874 64.0749 111.614Q64.007 111.353 63.9519 111.09Q63.8968 110.827 63.8547 110.561Q63.8126 110.295 63.7835 110.028Q63.7545 109.76 63.7386 109.492Q63.7227 109.223 63.72 108.954Q63.7173 108.685 63.7277 108.416Q63.7382 108.147 63.7618 107.879Q63.7854 107.611 63.8221 107.345Q63.8588 107.078 63.9086 106.814Q63.9583 106.55 64.0209 106.288Q64.0836 106.026 64.1589 105.768Q64.2343 105.51 64.3222 105.256Q64.4102 105.001 64.5105 104.752Q64.6107 104.502 64.7231 104.258Q64.8355 104.013 64.9598 103.774Q65.084 103.536 65.2198 103.304Q65.3556 103.071 65.5026 102.846Q65.6496 102.621 65.8074 102.403Q65.9653 102.185 66.1336 101.975Q66.302 101.765 66.4804 101.564Q66.6588 101.363 66.8469 101.17Q67.035 100.978 67.2322 100.795Q67.4295 100.612 67.6355 100.439Q67.8415 100.266 68.0557 100.103Q68.27 99.9403 68.4919 99.7882Q68.7139 99.6362 68.943 99.4952Q69.1721 99.3542 69.4079 99.2245Q69.6436 99.0949 69.8855 98.977Q70.1273 98.8591 70.3746 98.7532Q70.6219 98.6473 70.8741 98.5537Q71.1263 98.46 71.3828 98.3788Q71.6393 98.2976 71.8995 98.2291Q72.1597 98.1606 72.4229 98.1048Q72.6861 98.0491 72.9517 98.0064Z"/>
	<path fill="#FAE486" transform="scale(2.36393 2.36393)" d="M74.6045 102.076C75.918 101.936 77.5533 102.434 78.6588 103.138C79.9404 103.953 80.8015 105.303 81.1411 106.771C81.5781 108.66 81.1854 110.706 80.143 112.334C79.0097 114.105 77.4221 115.09 75.3962 115.546C73.5709 115.557 72.0747 115.559 70.5318 114.419C69.1757 113.417 68.3442 111.95 68.1051 110.287Q68.0561 109.931 68.0426 109.571Q68.0291 109.212 68.0511 108.853Q68.0732 108.494 68.1305 108.139Q68.1879 107.784 68.2801 107.437Q68.3723 107.089 68.4984 106.752Q68.6244 106.415 68.7831 106.093Q68.9419 105.77 69.1317 105.465Q69.3215 105.159 69.5406 104.874C70.8615 103.131 72.4828 102.379 74.6045 102.076Z"/>
	<path fill="#FAE486" transform="scale(2.36393 2.36393)" d="M168.067 30.5519C169.627 30.4163 171.527 30.6693 172.862 31.523Q173.048 31.6402 173.222 31.7758Q173.395 31.9114 173.553 32.064Q173.712 32.2165 173.854 32.3845Q173.996 32.5524 174.121 32.734Q174.245 32.9156 174.35 33.1089Q174.455 33.3022 174.54 33.5053Q174.625 33.7083 174.688 33.9189Q174.752 34.1296 174.794 34.3456C175.684 38.8527 170.39 46.1976 167.905 49.7649C160.328 60.6413 149.56 70.4621 139.158 78.6239C137.89 79.6195 135.592 81.8479 134.076 82.1197L133.591 81.7009C130.996 79.0064 128.432 76.9742 125.138 75.1835C126.633 72.6238 128.128 70.0655 129.794 67.6114C133.136 62.6879 136.846 58.0809 140.594 53.4678C147.268 45.253 157.157 32.6397 168.067 30.5519Z"/>
	<path fill="#FAE486" transform="scale(2.36393 2.36393)" d="M118.301 80.3063C121.085 80.0968 124.165 79.8655 126.747 81.1102C128.786 82.0936 130.438 83.7926 131.183 85.9456C132.069 88.5044 131.474 90.9844 130.329 93.3542C127.117 99.9982 121.761 105.622 114.718 108.063C110.281 109.043 105.567 108.7 101.42 106.851C102.013 104.583 102.906 102.52 103.937 100.424C106.191 95.8461 111.521 85.1741 114.961 82.0544C115.974 81.1358 117.03 80.7374 118.301 80.3063Z"/>
</svg>
