<?xml version="1.0" encoding="utf-8" ?>
<svg xmlns="http://www.w3.org/2000/svg" xmlns:xlink="http://www.w3.org/1999/xlink" width="1281" height="370">
	<defs>
		<linearGradient id="gradient_0" gradientUnits="userSpaceOnUse" x1="643.58252" y1="256.65948" x2="638.86554" y2="-9.3687086">
			<stop offset="0" stop-color="#BFE9E1"/>
			<stop offset="1" stop-color="#B6EDFF"/>
		</linearGradient>
	</defs>
	<path fill="url(#gradient_0)" d="M1.21781 1.16653C94.7732 0.0041635 188.466 1.05225 282.033 1.05447L825.761 1.06861L1130.34 1.07255L1228.59 1.07201C1245.08 1.07148 1262.06 0.124895 1278.48 1.23619L1280.51 1.21226C1281.98 7.84716 1281.02 16.0097 1281.01 22.8759L1281.02 63.6192L1281.01 137.77C1281.01 150.434 1281.7 163.535 1280.82 176.155C1281.47 190.436 1281.02 204.892 1281.02 219.191C1281.02 231.698 1281.52 244.44 1280.84 256.921C1281.25 267.744 1281.95 360.412 1280.17 364.409C1280.76 366.25 1281.26 367.458 1280.29 369.32Q1280.11 369.666 1279.91 370L1.19116 370C1.0649 367.596 1.13048 365.245 1.254 362.842C0.38504 348.901 1.17223 334.423 1.18127 320.433L1.13785 237.897L1.21781 1.16653Z"/>
	<path fill="#B6CD71" d="M1080.4 211.159C1091.59 203.285 1101.36 194.454 1113.64 188.028C1161.03 163.229 1222.24 157.704 1273.39 173.671C1275.61 174.351 1278.28 174.921 1280.24 176.155L1280.82 176.155C1281.47 190.436 1281.02 204.892 1281.02 219.191C1281.02 231.698 1281.52 244.44 1280.84 256.921C1281.25 267.744 1281.95 360.412 1280.17 364.409C1280.76 366.25 1281.26 367.458 1280.29 369.32Q1280.11 369.666 1279.91 370L1.19116 370C1.0649 367.596 1.13048 365.245 1.254 362.842Q1.92603 358.607 2.39141 354.344C3.34637 344.024 2.49443 332.822 2.48303 322.419L2.49605 256.824Q11.7259 256.764 20.9475 257.156Q30.1691 257.549 39.3604 258.394Q48.5516 259.238 57.6902 260.532Q66.8289 261.827 75.8929 263.568C81.4864 258.516 87.8838 253.365 94.6216 249.915C97.6294 263.91 102.869 275.382 115.35 283.446Q118.752 285.605 122.447 287.211Q126.142 288.818 130.042 289.834Q133.878 290.607 137.767 291.043Q141.656 291.479 145.568 291.575Q149.48 291.671 153.385 291.427Q157.291 291.182 161.16 290.599C168.139 302.107 175.599 308.38 188.789 311.634C196.841 313.62 227.675 317.379 234.153 313.482C237.441 311.504 240.271 308.009 242.333 304.816C259.974 306.99 274.675 315.356 290.796 302.682C293.843 300.287 296.247 297.494 298.532 294.384C300.984 289.167 303.351 283.136 301.429 277.346C300.693 275.13 299.194 273.285 297.072 272.264C292.574 270.099 287.984 271.737 283.593 273.273C282.614 270.605 281.461 268.587 279.733 266.333C286.948 261.711 291.781 256.628 296.177 249.301C299.191 247.893 301.395 247.132 303.587 244.443C306.69 240.633 307.186 235.754 306.703 231.017C327.02 234.483 346.943 238.551 367.675 238.653C383.473 238.73 399.388 237.181 415.182 236.557C425.23 236.161 435.282 236.657 445.333 236.4C454.899 236.157 464.789 234.916 474.321 235.829L466.083 236.345C474.008 236.513 481.898 236.04 489.818 236.022C497.137 236.004 504.647 236.484 511.934 236.019C519.217 235.553 526.416 234.065 533.748 233.65C541.719 233.2 549.734 233.538 557.716 233.21C574.036 232.54 590.262 231.382 606.614 231.384C616.073 231.385 625.517 232.126 634.962 232.122C651.199 232.116 667.389 231.337 683.658 231.614C693.619 231.783 703.57 232.616 713.52 232.775C719.398 232.869 725.272 232.242 731.146 232.245C736.764 232.247 742.478 233.052 748.114 233.253C754.547 233.482 761.012 233.137 767.437 233.463C774.911 233.843 782.367 234.69 789.846 235.056C798.176 235.463 806.455 235.362 814.774 236.15C825.502 237.166 836.15 239.254 846.85 240.393C852.749 241.02 858.97 240.866 864.91 241.124C872.787 241.466 880.575 241.616 888.088 244.31C894.763 246.704 900.509 251.221 907.742 251.938C914.344 252.593 921.727 250.748 928.293 249.823C933.219 248.108 947.889 233.593 956.99 229.523C965.658 225.647 974.647 221.305 983.621 218.24C1005.68 210.707 1030.69 208.775 1053.89 209.193C1062.65 209.351 1071.74 211.573 1080.4 211.159Z"/>
	<path fill="#8EB873" d="M1080.4 211.159C1091.59 203.285 1101.36 194.454 1113.64 188.028C1161.03 163.229 1222.24 157.704 1273.39 173.671C1275.61 174.351 1278.28 174.921 1280.24 176.155L1280.27 229.894C1280.28 238.412 1281.07 247.83 1280.05 256.269C1277.61 257.911 1258.26 256.894 1253.93 257.007C1230.81 257.611 1208.29 259.503 1185.33 262.169C1185.29 262.048 1185.23 261.83 1185.17 261.707C1183.32 258.328 1173.96 251.931 1170.62 249.45C1150.04 234.151 1128.98 222.679 1103.99 216.201C1096.25 214.195 1087.96 213.416 1080.4 211.159Z"/>
	<path fill="#FDFEFE" d="M2.39141 354.344L2.41858 364.554C7.97678 366.155 22.0831 365.025 28.6666 365.023L86.7433 365.015L360.026 365L987.289 364.994L1185.26 365.005L1247.72 365.018C1258.21 365.018 1269.22 365.727 1279.62 364.79L1280.17 364.409C1280.76 366.25 1281.26 367.458 1280.29 369.32Q1280.11 369.666 1279.91 370L1.19116 370C1.0649 367.596 1.13048 365.245 1.254 362.842Q1.92603 358.607 2.39141 354.344Z"/>
	<path fill="#8EB873" d="M130.042 289.834Q133.878 290.607 137.767 291.043Q141.656 291.479 145.568 291.575Q149.48 291.671 153.385 291.427Q157.291 291.182 161.16 290.599C168.139 302.107 175.599 308.38 188.789 311.634C196.841 313.62 227.675 317.379 234.153 313.482C237.441 311.504 240.271 308.009 242.333 304.816C259.974 306.99 274.675 315.356 290.796 302.682C293.843 300.287 296.247 297.494 298.532 294.384C302.238 298.253 312.203 296.534 316.448 302.143C316.804 303.644 317.114 304.418 316.19 305.81C313.218 310.291 299.963 312.756 294.748 313.802C283.583 316.042 271.878 317.485 260.522 318.23C232.933 320.04 124.613 321.683 104.472 308.053C102.479 306.704 101.701 305.598 101.24 303.261C103.257 293.749 124.521 295.085 130.042 289.834Z"/>
	<path fill="#E4EBC9" d="M1280.24 176.155L1280.82 176.155C1281.47 190.436 1281.02 204.892 1281.02 219.191C1281.02 231.698 1281.52 244.44 1280.84 256.921C1281.25 267.744 1281.95 360.412 1280.17 364.409L1279.62 364.79C1269.22 365.727 1258.21 365.018 1247.72 365.018L1185.26 365.005L987.289 364.994L360.026 365L86.7433 365.015L28.6666 365.023C22.0831 365.025 7.97678 366.155 2.41858 364.554C11.4452 363.254 26.2412 364.364 35.9878 364.389L108.32 364.407L368.841 364.4L1279.35 364.388C1281.66 360.378 1280.31 270.179 1280.33 256.921L1280.05 256.269C1281.07 247.83 1280.28 238.412 1280.27 229.894L1280.24 176.155Z"/>
	<path fill="#FDFEFE" d="M944.061 260.312C961.995 259.055 975.088 262.211 991.068 269.82C993.021 270.75 993.252 270.601 995.262 269.881L995.876 270.616C995.841 272.179 995.781 272.824 994.693 274.065C989.656 279.808 981.353 283.844 973.789 284.364C957.237 286.733 934.559 278.921 920.986 269.956C930.58 264.776 932.338 261.984 944.061 260.312Z"/>
	<path fill="#8EB873" d="M36.8853 296.514C38.4631 297.377 39.6257 299.182 40.3703 300.782C41.3185 302.818 41.5593 304.796 40.7844 306.939C40.5368 306.827 40.2942 306.715 40.0542 306.588C38.2838 305.649 36.4408 303.766 35.8682 301.823C35.2449 299.709 35.8819 298.321 36.8853 296.514Z"/>
	<path fill="#8EB873" d="M343.748 310.266C344.086 310.339 344.421 310.414 344.752 310.515C346.112 310.93 346.962 311.736 347.62 312.991C348.753 315.156 348.619 317.703 347.938 319.976C346.246 318.858 344.149 316.932 343.398 315.013C342.614 313.009 343.025 312.146 343.748 310.266Z"/>
	<path fill="#8EB873" d="M1134.8 280.936C1135.86 280.983 1136.15 281.142 1137.02 281.676C1138.52 284.099 1139.24 286.172 1138.81 289.082C1138.72 289.728 1137.87 290.107 1137.34 290.488C1136.51 289.176 1135.66 287.854 1134.91 286.491C1133.73 284.35 1134.16 283.116 1134.8 280.936Z"/>
	<path fill="#8EB873" d="M1145.56 280.936L1147.6 281.162C1148.26 282.364 1148.45 282.907 1148.27 284.333C1148.01 286.355 1146.7 288.512 1145.07 289.689C1144.7 289.676 1144.32 289.322 1144 289.117Q1143.81 288.139 1143.74 287.143C1143.61 284.915 1144.07 282.636 1145.56 280.936Z"/>
	<path fill="#8EB873" d="M46.8064 295.785C48.1769 296.108 48.5249 296.167 49.5 297.182C50.2424 299.725 48.9889 303.088 48.3725 305.626C47.0794 305.397 46.9504 305.092 46.0615 304.174C45.0159 301.26 45.5238 298.518 46.8064 295.785Z"/>
	<path fill="#8EB873" d="M56.933 297.132C56.9976 297.173 57.0646 297.21 57.1268 297.255C58.577 298.29 58.6742 298.623 58.9929 300.299C58.5468 302.351 57.1425 303.808 55.8464 305.389L54.6355 304.592C54.2219 301.646 55.4014 299.509 56.933 297.132Z"/>
	<path fill="#8EB873" d="M354.713 310.373C355.942 310.94 356.471 311.369 357.146 312.545C357.422 314.645 355.886 316.766 354.918 318.558C354.568 318.692 354.023 318.625 353.643 318.631C353.609 318.543 353.573 318.457 353.541 318.368C352.648 315.927 353.642 312.617 354.713 310.373Z"/>
	<path fill="#302E20" d="M234.462 84.466C239.962 74.6731 252.662 57.9135 263.943 54.8022C265.81 54.2872 267.707 54.2219 269.446 55.1844C272.033 56.6156 273.279 59.9698 273.979 62.6748C277.613 76.7084 277.759 95.6798 275.115 109.908C276.673 113.226 278.294 116.578 279.517 120.035C281.604 125.936 282.804 135.026 286.542 139.932C289.312 143.568 296.833 145.128 297.24 150.137C296.481 151.758 294.721 153.157 295.164 154.805C295.977 155.591 297.278 156.448 297.325 157.612C297.56 163.366 286.383 175.403 282.134 179.364Q278.286 182.95 274.04 186.054Q269.793 189.158 265.208 191.737C267.466 196.662 269.223 201.664 271.046 206.758C278.258 204.376 301.802 194.718 308.023 197.777C309.149 198.33 309.924 199.155 310.27 200.355C311.423 204.345 304.301 221.331 302.616 226.118C304.339 227.629 305.805 228.85 306.703 231.017C307.186 235.754 306.69 240.633 303.587 244.443C301.395 247.132 299.191 247.893 296.177 249.301C291.781 256.628 286.948 261.711 279.733 266.333C281.461 268.587 282.614 270.605 283.593 273.273C287.984 271.737 292.574 270.099 297.072 272.264C299.194 273.285 300.693 275.13 301.429 277.346C303.351 283.136 300.984 289.167 298.532 294.384C296.247 297.494 293.843 300.287 290.796 302.682C274.675 315.356 259.974 306.99 242.333 304.816C240.271 308.009 237.441 311.504 234.153 313.482C227.675 317.379 196.841 313.62 188.789 311.634C175.599 308.38 168.139 302.107 161.16 290.599Q157.291 291.182 153.385 291.427Q149.48 291.671 145.568 291.575Q141.656 291.479 137.767 291.043Q133.878 290.607 130.042 289.834Q126.142 288.818 122.447 287.211Q118.752 285.605 115.35 283.446C102.869 275.382 97.6294 263.91 94.6216 249.915C94.1519 243.298 94.0069 236.579 95.2726 230.038C97.1286 220.447 100.861 211.647 100.703 201.72C100.112 197.567 96.7505 188.318 99.108 185.079C100.263 183.493 102.598 182.818 104.472 182.596C114.885 181.363 125.277 186.726 133.184 193.062Q134.046 193.746 134.881 194.463Q135.715 195.18 136.521 195.929Q137.326 196.679 138.102 197.459Q138.877 198.24 139.621 199.05Q140.366 199.86 141.077 200.699Q141.789 201.538 142.467 202.404Q143.145 203.271 143.789 204.163Q144.432 205.055 145.04 205.972Q145.648 206.889 146.219 207.829Q146.79 208.769 147.324 209.731Q147.858 210.693 148.353 211.675Q148.849 212.657 149.305 213.657Q149.762 214.658 150.178 215.676Q150.595 216.694 150.971 217.728Q151.348 218.761 151.683 219.809Q152.018 220.856 152.312 221.916Q161.595 220.31 170.944 219.14C175.32 210.355 179.837 201.682 184.962 193.303C172.771 187.404 156.253 178.251 150.834 164.974C151.211 162.225 153.766 162.065 151.697 159.339C150.702 158.029 149.858 157.151 149.872 155.405C151.145 150.901 158.787 148.589 161.491 144.63C166.082 137.909 166.436 128.712 169.186 121.183C166.222 107.335 160.69 71.3458 168.418 59.6152C169.678 57.7033 171.425 56.2306 173.717 55.7515C177.937 54.8689 182.295 57.3906 185.636 59.6717C196.081 66.8028 205.036 75.8079 212.686 85.8236C219.561 83.6326 227.363 82.8517 234.462 84.466Z"/>
	<path fill="#B6CD71" d="M152.312 221.916Q161.595 220.31 170.944 219.14C165.943 230.257 161.936 241.461 158.635 253.199C156.443 242.747 155.103 232.257 152.312 221.916Z"/>
	<path fill="#F19C48" d="M236.223 88.8177Q238.768 84.4328 241.661 80.2687C246.226 73.7031 256.811 60.0413 265.182 58.9013C266.891 58.6685 267.576 58.9137 268.893 59.8748C273.92 69.0117 273.177 99.3905 270.985 110.239C274.606 118.733 280.373 138.298 285.456 144.063C287.558 146.448 290.809 148.316 293.433 150.112C291.594 151.667 289.464 153.129 288.569 155.439C288.906 157.614 290.23 157.163 291.335 158.736C292.047 159.75 291.582 160.605 291.347 161.734C285.784 171.274 276.659 180.086 267.235 185.82C264.367 187.566 260.763 188.684 258.112 190.67C256.999 191.504 256.632 191.741 256.501 193.121L257.518 194.233C258.954 194.171 261.292 193.41 262.313 194.414C264.418 196.485 265.492 201.97 266.356 204.835C258.002 203.508 230.442 196.617 224.502 200.135C220.604 204.66 220.574 210.2 218.939 215.673C211.714 215.098 203.298 212.111 197.944 207.206C194.366 203.928 192.456 200.162 192.257 195.33C194.054 195.061 195.938 194.866 197.189 193.43C197.258 190.806 186.849 189.239 184.209 188.159C174.037 183.997 164.504 176.819 157.639 168.268L156.113 166.395L156.324 165.698C157.804 165.725 158.978 165.619 160.393 165.174L160.754 163.937C159.642 160.946 156.411 158.337 154.198 156.079C169.544 145.777 168.071 137.278 173.579 121.637C169.01 107.515 167.111 84.3031 169.222 69.4537C169.677 66.2483 170.516 61.9472 173.299 59.9129C174.093 59.3326 175.253 59.2829 176.21 59.4587C186.053 61.2683 204.966 82.0236 210.671 90.6632C219.157 87.5755 227.416 87.6029 236.223 88.8177Z"/>
	<path fill="#FDE1C2" d="M233.961 158.452C234.555 156.477 234.739 154.709 236.765 153.658C239.809 152.081 243.745 151.744 246.969 152.868C248.407 153.369 249.376 153.981 250.342 155.183C250.714 156.628 250.775 157.72 250.569 159.198C261.597 160.379 270.445 164.685 281.988 163.576C285.208 163.267 288.181 162.257 291.347 161.734C285.784 171.274 276.659 180.086 267.235 185.82C264.367 187.566 260.763 188.684 258.112 190.67C256.999 191.504 256.632 191.741 256.501 193.121L257.518 194.233C258.954 194.171 261.292 193.41 262.313 194.414C264.418 196.485 265.492 201.97 266.356 204.835C258.002 203.508 230.442 196.617 224.502 200.135C220.604 204.66 220.574 210.2 218.939 215.673C211.714 215.098 203.298 212.111 197.944 207.206C194.366 203.928 192.456 200.162 192.257 195.33C194.054 195.061 195.938 194.866 197.189 193.43C197.258 190.806 186.849 189.239 184.209 188.159C174.037 183.997 164.504 176.819 157.639 168.268C163.075 168.028 169.784 170.776 175.412 171.356C192.702 173.14 204.005 165.232 219.352 159.441C223.977 157.697 229.241 156.311 233.961 158.452Z"/>
	<path fill="#302E20" d="M233.961 158.452C234.555 156.477 234.739 154.709 236.765 153.658C239.809 152.081 243.745 151.744 246.969 152.868C248.407 153.369 249.376 153.981 250.342 155.183C250.714 156.628 250.775 157.72 250.569 159.198C249.037 161.799 245.417 163.752 245.079 166.988C244.954 168.185 245.426 168.571 246.122 169.451C251.347 171.903 250.66 168.293 254.894 167.755C255.445 169.288 255.124 169.875 254.752 171.433C250.498 176.162 247.237 171.935 242.664 172.024C240.587 172.064 238.351 173.633 236.168 173.682C235.002 173.708 233.766 173.271 232.915 172.465C231.616 171.236 230.781 169.582 230.749 167.798L231.465 167.069C232.27 167.768 233.117 168.56 234.041 169.101C235.534 169.976 236.386 170.139 238.095 169.651C239.914 169.132 240.839 167.847 241.76 166.307C242.055 162.065 236.495 161.62 233.961 158.452Z"/>
	<path fill="#CA5B2D" d="M238.578 157.136C239.978 156.947 241.39 156.742 242.799 156.641C244.432 156.524 245.169 156.775 246.364 157.808L246.388 160.081C244.805 160.2 242.342 160.337 240.844 159.7C239.345 159.062 239.176 158.532 238.578 157.136Z"/>
	<path fill="#CA5B2D" d="M177.555 70.8701C185.912 75.6557 193.608 85.327 199.675 92.6999L187.854 104.54C185.41 107.661 182.783 110.672 180.251 113.724C176.935 101.772 173.138 82.8746 177.555 70.8701Z"/>
	<path fill="#CA5B2D" d="M264.198 72.3019C265.329 72.5128 265.549 72.7076 266.367 73.4515C269.228 80.512 266.863 96.194 266.195 104.237C263.246 102.266 260.51 99.8694 257.738 97.6557C254.586 94.5923 250.866 92.462 247.028 90.4001C251.487 83.7272 258.155 77.5444 264.198 72.3019Z"/>
	<path fill="#302E20" d="M259.597 139.098C261.683 139.71 263.513 140.668 264.683 142.576Q264.853 142.847 264.994 143.134Q265.135 143.421 265.245 143.721Q265.356 144.02 265.435 144.33Q265.514 144.64 265.561 144.956Q265.608 145.272 265.622 145.591Q265.637 145.911 265.618 146.23Q265.599 146.549 265.547 146.864Q265.496 147.18 265.412 147.488C264.74 150.034 263.192 151.193 261.062 152.453C259.316 151.931 257.825 151.257 256.684 149.776C255.577 148.339 255.082 146.825 255.345 145.017C255.758 142.185 257.472 140.73 259.597 139.098Z"/>
	<path fill="#302E20" d="M215.099 140.427C216.904 140.964 218.674 141.704 219.839 143.247C220.853 144.591 221.258 146.103 220.949 147.767C220.457 150.412 218.808 151.666 216.733 153.078C214.675 152.599 212.825 151.716 211.63 149.905C210.781 148.618 210.529 147.215 210.846 145.706C211.384 143.14 213.068 141.811 215.099 140.427Z"/>
	<path fill="#F19C48" d="M227.952 280.129C226.765 282.108 225.581 284.107 224.597 286.197C223.527 288.471 221.319 292.615 222.326 295.116C222.505 295.559 223.161 295.674 223.596 295.854C225.092 294.797 226.075 290.476 226.865 288.691C228.686 284.583 232.306 280.651 236.58 279.057C237.611 278.672 237.629 278.76 238.622 279.222C238.73 280.616 238.886 281.96 239.154 283.332L240.423 283.532C242.114 281.972 241.472 280.393 242.685 278.591C243.819 278.658 244.829 279.355 245.594 280.165C246.775 281.417 247.216 282.34 247.109 284.064C246.68 290.966 239.736 304.63 234.574 309.066C229.279 313.616 210.206 310.524 202.756 309.937C190.42 308.964 177.301 305.907 168.954 296.042C161.715 287.488 159.503 275.732 160.41 264.797C162.088 244.543 173.351 221.874 182.929 204.033C184.089 201.872 186.585 196.294 188.591 194.891C189.338 194.368 191.36 195.125 192.257 195.33C192.456 200.162 194.366 203.928 197.944 207.206C203.298 212.111 211.714 215.098 218.939 215.673L216.354 225.484C213.883 225.434 209.801 224.93 207.648 226.322C206.864 226.83 206.906 227.395 206.711 228.247C209.345 231.09 223.865 228.017 229.003 232.098C231.424 234.021 233.36 236.26 233.726 239.427C232.88 241.989 232.684 240.47 230.861 241.776C229.96 242.422 230.021 242.909 229.847 243.915C230.613 244.719 231.42 245.456 232.25 246.193L232.154 247.476C229.241 250.705 222.14 252.433 217.878 252.891C209.969 253.741 200.199 252.651 193.875 247.488C188.451 243.059 188.136 238.858 187.402 232.459C187.241 231.059 187.101 230.81 186.038 229.952C184.974 230.312 184.561 230.412 184.056 231.511C182.942 233.932 183.958 238.734 184.827 241.127C187.39 248.186 192.972 252.255 199.487 255.347C196.849 256.049 193.398 256.66 191.109 258.127C189.841 258.94 189.034 259.607 188.708 261.093C192.507 263.697 204.656 255.306 215.185 261.288C222.614 265.51 225.762 272.296 227.952 280.129Z"/>
	<path fill="#F19C48" d="M100.513 223.536C105.582 208.806 104.788 203.092 102.393 188.127C103.524 187.01 103.924 186.545 105.569 186.299C113.192 185.158 123.919 191.466 129.954 195.776C147.312 209.507 149.803 225.486 153.458 245.985C154.254 250.446 156.04 254.847 156.585 259.307C157.771 269.009 156.116 277.299 159.619 286.953C143.579 289.028 127.346 287.812 114.064 277.546C104.833 270.413 99.76 259.73 98.3491 248.302C97.3376 240.109 98.0077 231.41 100.513 223.536Z"/>
	<path fill="#FDE1C2" d="M100.513 223.536C105.582 208.806 104.788 203.092 102.393 188.127C103.524 187.01 103.924 186.545 105.569 186.299C113.192 185.158 123.919 191.466 129.954 195.776C128.822 197.876 127.389 200.212 126.725 202.502C125.088 208.144 125.384 215.194 119.392 218.373C118.342 218.46 115.046 218.346 114.313 218.713C107.043 222.351 111.82 225.259 100.513 223.536Z"/>
	<path fill="#F8D460" d="M304.026 200.477L305.786 201.001C307.303 205.452 300.776 220.767 298.932 226.049C295.08 227.319 292.201 229.69 290.378 233.37C288.741 236.675 288.692 240.729 289.93 244.18C290.505 245.785 291.64 247.213 292.664 248.56C286.689 257.33 280.09 262.599 270.173 266.51L279.721 232.195C281.067 227.389 283.021 222.288 283.944 217.427C284.141 216.389 284.053 215.276 283.541 214.339C283.407 214.094 283.243 213.878 283.069 213.661C282.567 213.699 282.128 213.599 281.78 213.986C279.237 216.815 267.231 261.983 265.878 268.135C263.382 268.678 260.864 269.323 258.343 269.725C260.724 260.555 272.311 220.196 270.555 213.43L269.666 212.537C268.612 213.146 268.149 214.29 267.842 215.456C263.187 233.119 258.572 251.301 254.781 269.167C241.661 266.801 227.594 265.911 216.998 257.055C223.917 255.759 231.19 254.623 235.474 248.33C237.479 245.386 238.438 241.621 237.761 238.095C236.981 234.035 234.297 231.011 230.944 228.765C227.595 226.522 224.058 226.108 220.163 225.47C221.355 220.542 223.634 205.788 227.52 203.228C236.771 201.354 268.716 212.456 274.069 209.808C283.919 206.988 293.919 201.981 304.026 200.477Z"/>
	<path fill="#FDFEFE" d="M274.069 209.808C283.919 206.988 293.919 201.981 304.026 200.477C297.679 205.001 285.987 212.428 277.903 211.057C276.538 210.826 275.288 210.484 274.069 209.808Z"/>
	<path fill="#F19C48" d="M275.309 268.743C275.91 268.709 276.211 268.678 276.77 268.946C279.209 270.112 280.051 273.551 280.881 275.892C278.879 279.404 275.775 283.795 276.62 288.039C278.984 287.1 282.683 279.999 284.532 277.893C286.597 275.541 288.378 274.575 291.541 274.374C291.904 275.497 291.01 277.721 290.707 278.888L292.159 279.62C293.415 278.149 294.665 276.694 296.026 275.317L297.022 275.533C298.441 277.794 298.718 281.443 298.459 284.058C297.835 290.356 293.948 295.916 289.137 299.83C282.938 304.873 276.242 306.813 268.361 306.019C260.475 305.166 252.39 303.235 244.731 301.207C246.748 294.064 252.594 286.985 249.523 279.12C248.844 277.381 247.602 275.93 245.843 275.234C241.551 273.537 235.426 275.675 231.402 277.365C230.556 275.494 229.917 273.786 230.563 271.835C235.742 267.093 252.455 273.815 259.523 273.479C264.794 273.229 270.43 270.6 275.309 268.743Z"/>
	<path fill="#F19C48" d="M299.865 229.213C300.125 229.332 300.363 229.459 300.605 229.612C301.97 230.475 302.914 231.822 303.185 233.413C303.667 236.236 302.637 239.728 301.013 242.037C299.771 243.803 298.388 244.761 296.252 245.116C294.319 244.441 293.884 243.754 292.581 242.242C293.972 240.787 296.562 240.748 298.211 239.192C298.603 237.685 298.565 237.511 297.816 236.146C295.988 235.558 294.911 236.635 293.264 236.2C294.366 232.519 296.7 231.061 299.865 229.213Z"/>
	<path fill="#8EB873" d="M2.52783 168.078C29.8367 168.516 59.5703 177.583 83.3544 190.839C87.9439 193.397 96.5024 200.759 100.703 201.72C100.861 211.647 97.1286 220.447 95.2726 230.038C94.0069 236.579 94.1519 243.298 94.6216 249.915C87.8838 253.365 81.4864 258.516 75.8929 263.568Q66.8289 261.827 57.6902 260.532Q48.5516 259.238 39.3603 258.393Q30.1691 257.549 20.9475 257.156Q11.7259 256.764 2.49605 256.824C3.08572 227.3 2.52534 197.616 2.52783 168.078Z"/>
	<path fill="#C5EEFC" d="M1278.48 1.23619L1280.51 1.21226C1281.98 7.84716 1281.02 16.0097 1281.01 22.8759L1281.02 63.6192L1281.01 137.77C1281.01 150.434 1281.7 163.535 1280.82 176.155L1280.24 176.155C1278.28 174.921 1275.61 174.351 1273.39 173.671L1275.7 173.279C1276.79 173.954 1277.53 174.091 1278.81 174.119C1278.93 173.903 1279.04 173.721 1279.07 173.473C1280.5 163.067 1279.35 151.193 1279.47 140.665C1279.89 103.861 1280.38 67.121 1280.27 30.3061C1280.25 24.8959 1281.25 7.65968 1279.87 3.22695C1279.69 2.67469 1278.84 1.74963 1278.48 1.23619Z"/>
	<path fill="#FDFEFE" d="M80.2661 59.5534C85.0211 59.2 90.0913 59.9243 94.6155 61.3856C105.411 64.8726 111.747 71.4311 116.779 81.2453Q117.879 81.1844 118.979 81.1429C124.755 80.9288 129.587 81.7549 133.921 85.8352C136.705 88.4569 138.509 92.159 138.573 96.0156C138.635 99.7764 136.586 103.457 133.991 106.075C131.437 108.652 128.159 110.298 124.641 111.107C114.956 113.334 86.1592 111.847 73.964 111.822C61.0599 111.809 26.2709 114.229 16.6686 108.072C14.9713 106.984 13.2089 105.336 12.8299 103.274C12.5606 101.808 13.1858 100.315 14.0064 99.1305C17.1233 94.6337 22.212 93.0186 27.3118 92.1771C28.6287 90.4171 29.9567 88.5821 31.4568 86.9735C37.9045 80.0592 46.2747 80.4597 55.0143 80.1287C56.3575 77.1677 57.7357 74.2712 59.695 71.6573C64.8819 64.7372 71.751 60.7401 80.2661 59.5534Z"/>
	<path fill="#FDFEFE" d="M1087.32 74.6873C1093.28 74.2392 1099.47 75.8298 1104.6 78.8758C1111.63 83.0494 1115.44 89.0095 1117.42 96.7899Q1119.47 96.5912 1121.52 96.5211C1126.29 96.4041 1130.96 97.449 1134.46 100.846C1136.86 103.172 1138.53 106.2 1138.56 109.594C1138.58 112.022 1137.9 114.431 1136.11 116.152C1131.05 120.993 1093.52 118.66 1083.81 118.536C1073.86 118.058 1044.67 121.965 1037.87 116.716C1036.4 115.579 1035.47 113.978 1035.27 112.126C1034.93 108.994 1036.48 105.346 1038.43 102.942C1044.23 95.7793 1053.78 93.4094 1062.5 92.5524C1063.51 91.7707 1064.08 90.8774 1064.77 89.8234C1070.44 81.131 1077.31 76.7954 1087.32 74.6873Z"/>
	<path fill="#E4EBC9" d="M962.386 53.0025C970.609 51.5617 983.32 52.2695 990.348 57.2931C991.237 57.9287 991.787 58.7678 992.261 59.7353L992.305 60.8734C991.057 60.4125 989.631 59.1845 988.395 59.4338C987.991 61.9471 987.635 63.7934 985.424 65.3779C983.766 66.5667 981.848 67.4231 979.905 68.032C979.377 68.8447 978.172 68.9729 977.368 69.4794C976.343 70.1246 975.611 71.1852 974.563 71.8195C971.916 73.4212 967.912 74.2667 964.895 75.0912C959.567 76.5475 953.245 78.1285 948.139 75.1537C946.158 73.9996 944.709 72.2778 944.184 70.0126C943.549 67.2751 944.56 64.5652 946.045 62.2957C949.974 56.2901 955.768 54.4174 962.386 53.0025Z"/>
	<path fill="#FDFEFE" d="M962.386 53.0025C970.609 51.5617 983.32 52.2695 990.348 57.2931C991.237 57.9287 991.787 58.7678 992.261 59.7353L992.305 60.8734C991.057 60.4125 989.631 59.1845 988.395 59.4338C987.991 61.9471 987.635 63.7934 985.424 65.3779C983.766 66.5667 981.848 67.4231 979.905 68.032C979.922 67.98 979.942 67.9289 979.955 67.876C980.588 65.4557 981.458 59.2211 980.16 57.1636C977.381 52.7579 967.138 54.1515 962.386 53.0025Z"/>
	<path fill="#010002" fill-opacity="0.019607844" d="M0.721714 0L1280.53 0L1280.51 1.21226L1278.48 1.23619C1262.06 0.124895 1245.08 1.07148 1228.59 1.07201L1130.34 1.07255L825.761 1.06861L282.033 1.05447C188.466 1.05225 94.7732 0.0041635 1.21781 1.16653L0.721714 0Z"/>
</svg>
