<svg width="128" height="139" viewBox="0 0 128 139" fill="none" xmlns="http://www.w3.org/2000/svg">
<path d="M16.3864 126.739C16.3864 120.391 21.5325 115.245 27.8806 115.245H47.8039C54.152 115.245 59.2981 120.391 59.2981 126.739C59.2981 133.087 54.152 138.233 47.8039 138.233H27.8806C21.5325 138.233 16.3864 133.087 16.3864 126.739Z" fill="#D9D9D9"/>
<path d="M127.158 68.7365C127.158 86.3881 127.158 95.2139 124.386 102.215C120.373 112.349 112.349 120.373 102.215 124.386C95.2139 127.158 86.3881 127.158 68.7365 127.158H59.2628C41.6113 127.158 32.7855 127.158 25.7842 124.386C15.6502 120.373 7.62614 112.349 3.61377 102.215C0.841795 95.2139 0.841795 86.3881 0.841797 68.7365L0.841798 59.2628C0.841799 41.6113 0.8418 32.7855 3.61378 25.7842C7.62615 15.6502 15.6502 7.62614 25.7843 3.61377C32.7855 0.841795 41.6113 0.841795 59.2629 0.841797L68.7365 0.841798C86.3881 0.841799 95.2139 0.8418 102.215 3.61378C112.349 7.62615 120.373 15.6502 124.386 25.7843C127.158 32.7855 127.158 41.6113 127.158 59.2629V68.7365Z" fill="#E7924A"/>
<path d="M56.9997 46.9997C56.9997 56.3885 49.3885 63.9997 39.9997 63.9997C30.6109 63.9997 22.9997 56.3885 22.9997 46.9997C22.9997 37.6109 30.6109 29.9997 39.9997 29.9997C49.3885 29.9997 56.9997 37.6109 56.9997 46.9997Z" fill="white"/>
<path d="M40.6298 46.9993C40.6298 51.5199 36.9652 55.1845 32.4446 55.1845C27.9241 55.1845 24.2595 51.5199 24.2595 46.9993C24.2595 42.4788 27.9241 38.8141 32.4446 38.8141C36.9652 38.8141 40.6298 42.4788 40.6298 46.9993Z" fill="black"/>
<path d="M104.925 46.9997C104.925 56.3885 97.3143 63.9997 87.9255 63.9997C78.5366 63.9997 70.9255 56.3885 70.9255 46.9997C70.9255 37.6109 78.5366 29.9997 87.9255 29.9997C97.3143 29.9997 104.925 37.6109 104.925 46.9997Z" fill="white"/>
<path d="M88.5556 46.9993C88.5556 51.5199 84.891 55.1845 80.3704 55.1845C75.8499 55.1845 72.1852 51.5199 72.1852 46.9993C72.1852 42.4788 75.8499 38.8141 80.3704 38.8141C84.891 38.8141 88.5556 42.4788 88.5556 46.9993Z" fill="black"/>
<path d="M68.7028 126.739C68.7028 120.391 73.849 115.245 80.197 115.245H100.12C106.468 115.245 111.615 120.391 111.615 126.739C111.615 133.087 106.468 138.233 100.12 138.233H80.197C73.8489 138.233 68.7028 133.087 68.7028 126.739Z" fill="#D9D9D9"/>
</svg>
