<svg width="125" height="135" viewBox="0 0 125 135" fill="none" xmlns="http://www.w3.org/2000/svg">
<path d="M13.8233 123C13.8233 116.652 18.9694 111.506 25.3175 111.506H45.2408C51.5889 111.506 56.735 116.652 56.735 123C56.735 129.348 51.5889 134.494 45.2408 134.494H25.3175C18.9694 134.494 13.8233 129.348 13.8233 123Z" fill="#D9D9D9"/>
<path d="M48.2087 4.52328C56.5097 -1.50776 67.7501 -1.50776 76.0511 4.52328L114.47 32.4361C122.771 38.4671 126.244 49.1574 123.074 58.9158L108.399 104.08C105.228 113.838 96.1345 120.445 85.8739 120.445H38.3858C28.1252 120.445 19.0315 113.838 15.8608 104.08L1.18619 58.9158C-1.98451 49.1574 1.48897 38.4671 9.78999 32.4361L48.2087 4.52328Z" fill="#E7924A"/>
<path d="M54.9991 53C54.9991 62.3888 47.3879 70 37.9991 70C28.6102 70 20.9991 62.3888 20.9991 53C20.9991 43.6112 28.6102 36 37.9991 36C47.3879 36 54.9991 43.6112 54.9991 53Z" fill="white"/>
<path d="M38.6292 52.9996C38.6292 57.5202 34.9646 61.1848 30.444 61.1848C25.9235 61.1848 22.2588 57.5202 22.2588 52.9996C22.2588 48.4791 25.9235 44.8145 30.444 44.8145C34.9646 44.8145 38.6292 48.4791 38.6292 52.9996Z" fill="black"/>
<path d="M102.925 53C102.925 62.3888 95.3137 70 85.9249 70C76.536 70 68.9249 62.3888 68.9249 53C68.9249 43.6112 76.536 36 85.9249 36C95.3137 36 102.925 43.6112 102.925 53Z" fill="white"/>
<path d="M86.555 52.9996C86.555 57.5202 82.8904 61.1848 78.3698 61.1848C73.8493 61.1848 70.1846 57.5202 70.1846 52.9996C70.1846 48.4791 73.8493 44.8145 78.3698 44.8145C82.8904 44.8145 86.555 48.4791 86.555 52.9996Z" fill="black"/>
<path d="M66.1397 123C66.1397 116.652 71.2858 111.506 77.6339 111.506H97.5572C103.905 111.506 109.051 116.652 109.051 123C109.051 129.348 103.905 134.494 97.5572 134.494H77.6339C71.2858 134.494 66.1397 129.348 66.1397 123Z" fill="#D9D9D9"/>
</svg>
