<svg width="120" height="120" viewBox="0 0 120 120" fill="none" xmlns="http://www.w3.org/2000/svg">
<path d="M0.789062 57.18C0.789063 26.0362 27.2985 0.789062 59.9996 0.789062C92.7007 0.789063 119.21 26.0362 119.21 57.18L119.21 96.6537C119.21 109.111 108.606 119.21 95.5259 119.21C91.6488 119.21 87.9893 118.323 84.7591 116.75C83.1131 115.949 81.4708 115.07 79.8217 114.188C74.0178 111.083 68.1279 107.932 61.685 107.932H58.3141C51.8712 107.932 45.9814 111.083 40.1775 114.188C38.5283 115.07 36.8861 115.949 35.2401 116.75C32.0098 118.323 28.3503 119.21 24.4733 119.21C11.3928 119.21 0.789062 109.111 0.789062 96.6537V57.18Z" fill="#E7924A"/>
<path d="M52.9996 52.9996C52.9996 62.3884 45.3884 69.9996 35.9996 69.9996C26.6107 69.9996 18.9996 62.3884 18.9996 52.9996C18.9996 43.6107 26.6107 35.9996 35.9996 35.9996C45.3884 35.9996 52.9996 43.6107 52.9996 52.9996Z" fill="white"/>
<path d="M36.6297 52.9992C36.6297 57.5198 32.9651 61.1844 28.4445 61.1844C23.924 61.1844 20.2594 57.5198 20.2594 52.9992C20.2594 48.4787 23.924 44.814 28.4445 44.814C32.9651 44.814 36.6297 48.4787 36.6297 52.9992Z" fill="black"/>
<path d="M100.925 52.9996C100.925 62.3884 93.3142 69.9996 83.9254 69.9996C74.5365 69.9996 66.9254 62.3884 66.9254 52.9996C66.9254 43.6107 74.5365 35.9996 83.9254 35.9996C93.3142 35.9996 100.925 43.6107 100.925 52.9996Z" fill="white"/>
<path d="M84.5555 52.9992C84.5555 57.5198 80.8909 61.1844 76.3703 61.1844C71.8498 61.1844 68.1851 57.5198 68.1851 52.9992C68.1851 48.4787 71.8498 44.814 76.3703 44.814C80.8909 44.814 84.5555 48.4787 84.5555 52.9992Z" fill="black"/>
</svg>
