<svg width="118" height="118" viewBox="0 0 118 118" fill="none" xmlns="http://www.w3.org/2000/svg">
<path d="M8.80343 59.0002C3.64357 52.8183 0.535156 44.8394 0.535156 36.1289C0.535156 16.4953 16.3277 0.579102 35.8088 0.579102C44.6258 0.579102 52.6873 3.83939 58.871 9.22902C65.0403 3.83939 73.0829 0.579102 81.8793 0.579102C101.315 0.579102 117.071 16.4953 117.071 36.1289C117.071 44.8394 113.969 52.8183 108.822 59.0001C113.969 65.182 117.071 73.1609 117.071 81.8714C117.071 101.505 101.315 117.421 81.8793 117.421C73.0829 117.421 65.0403 114.161 58.871 108.771C52.6873 114.161 44.6258 117.421 35.8088 117.421C16.3277 117.421 0.535156 101.505 0.535156 81.8714C0.535156 73.1609 3.64357 65.182 8.80343 59.0002Z" fill="#E7924A"/>
<path d="M51.9997 49.0002C51.9997 58.389 44.3886 66.0002 34.9997 66.0002C25.6109 66.0002 17.9997 58.389 17.9997 49.0002C17.9997 39.6113 25.6109 32.0002 34.9997 32.0002C44.3886 32.0002 51.9997 39.6113 51.9997 49.0002Z" fill="white"/>
<path d="M35.6299 48.9998C35.6299 53.5203 31.9652 57.185 27.4447 57.185C22.9241 57.185 19.2595 53.5203 19.2595 48.9998C19.2595 44.4792 22.9241 40.8146 27.4447 40.8146C31.9652 40.8146 35.6299 44.4792 35.6299 48.9998Z" fill="black"/>
<path d="M99.9255 49.0002C99.9255 58.389 92.3143 66.0002 82.9255 66.0002C73.5367 66.0002 65.9255 58.389 65.9255 49.0002C65.9255 39.6113 73.5367 32.0002 82.9255 32.0002C92.3143 32.0002 99.9255 39.6113 99.9255 49.0002Z" fill="white"/>
<path d="M83.5556 48.9998C83.5556 53.5203 79.891 57.185 75.3705 57.185C70.8499 57.185 67.1853 53.5203 67.1853 48.9998C67.1853 44.4792 70.8499 40.8146 75.3705 40.8146C79.891 40.8146 83.5556 44.4792 83.5556 48.9998Z" fill="black"/>
</svg>
