<svg width="118" height="117" viewBox="0 0 118 117" fill="none" xmlns="http://www.w3.org/2000/svg">
<path d="M82.0078 0.0449219C101.443 0.0449219 117.199 15.9611 117.199 35.5947C117.199 44.3052 114.098 52.2839 108.95 58.4658C112.701 62.9705 115.365 68.4298 116.534 74.4307C114.072 72.9925 111.207 72.168 108.149 72.168C98.9532 72.168 91.4981 79.6231 91.498 88.8193C91.498 97.9149 98.7904 105.306 107.848 105.467C101.419 112.489 92.2225 116.887 82.0078 116.887C73.2116 116.887 65.1692 113.627 59 108.237C52.8163 113.627 44.7545 116.887 35.9375 116.887C16.4565 116.887 0.664062 100.97 0.664062 81.3369C0.664128 72.6265 3.77281 64.6476 8.93262 58.4658C3.77275 52.2839 0.664062 44.3052 0.664062 35.5947C0.664075 15.9612 16.4565 0.0450424 35.9375 0.0449219C44.7545 0.0449219 52.8163 3.30568 59 8.69531C65.1692 3.30577 73.2116 0.0450293 82.0078 0.0449219Z" fill="#E7924A"/>
<path d="M100.053 48.4658C100.053 57.8547 92.4416 65.4658 83.0527 65.4658C73.6639 65.4658 66.0527 57.8547 66.0527 48.4658C66.0527 39.077 73.6639 31.4658 83.0527 31.4658C92.4416 31.4658 100.053 39.077 100.053 48.4658Z" fill="white"/>
<path d="M99.6829 48.4655C99.6829 52.986 96.0182 56.6506 91.4977 56.6506C86.9771 56.6506 83.3125 52.986 83.3125 48.4655C83.3125 43.9449 86.9771 40.2803 91.4977 40.2803C96.0182 40.2803 99.6829 43.9449 99.6829 48.4655Z" fill="black"/>
</svg>
