<svg width="117" height="117" viewBox="0 0 117 117" fill="none" xmlns="http://www.w3.org/2000/svg">
<path d="M81.7695 0.0449219C101.205 0.0449219 116.961 15.9611 116.961 35.5947C116.961 44.3052 113.86 52.2839 108.712 58.4658C113.86 64.6477 116.961 72.6265 116.961 81.3369C116.961 100.971 101.205 116.887 81.7695 116.887C72.9734 116.887 64.9309 113.627 58.7617 108.237C52.578 113.627 44.5162 116.887 35.6992 116.887C16.2182 116.887 0.425781 100.97 0.425781 81.3369C0.425847 72.6265 3.53453 64.6476 8.69434 58.4658C3.53447 52.2839 0.425781 44.3052 0.425781 35.5947C0.425794 15.9612 16.2182 0.0450424 35.6992 0.0449219C44.5162 0.0449219 52.578 3.30568 58.7617 8.69531C64.9309 3.30577 72.9733 0.0450293 81.7695 0.0449219Z" fill="#E7924A"/>
<path d="M99.8145 48.4658C99.8145 57.8547 92.2033 65.4658 82.8145 65.4658C73.4256 65.4658 65.8145 57.8547 65.8145 48.4658C65.8145 39.077 73.4256 31.4658 82.8145 31.4658C92.2033 31.4658 99.8145 39.077 99.8145 48.4658Z" fill="white"/>
<path d="M99.4446 48.4655C99.4446 52.986 95.78 56.6506 91.2594 56.6506C86.7388 56.6506 83.0742 52.986 83.0742 48.4655C83.0742 43.9449 86.7388 40.2803 91.2594 40.2803C95.78 40.2803 99.4446 43.9449 99.4446 48.4655Z" fill="black"/>
</svg>
