<?xml version="1.0" encoding="utf-8" ?>
<svg xmlns="http://www.w3.org/2000/svg" xmlns:xlink="http://www.w3.org/1999/xlink" viewBox="0 0 1024 1024">
	<path fill="#222" d="M226.004 451.021C207.596 450.796 191.486 446.249 178.353 432.678C171.626 425.727 165.141 415.587 162.573 406.23C159.706 395.786 160.974 382.988 160.975 372.214C160.977 360.741 160.809 349.233 161.047 337.764C161.135 333.489 161.818 330.311 163.592 326.42C167.558 317.719 172.823 309.513 177.332 301.076C191.692 274.204 206.874 247.876 221.933 221.405C227.83 211.037 244.024 178.594 250.582 172.168C252.517 170.272 254.031 169.348 256.776 169.172C265.018 168.645 273.472 169.008 281.737 169.018L327.265 169.064L472.768 169.175L664.756 169.157L726.633 169.078C737.552 169.055 748.583 168.715 759.493 169.074C766.108 169.292 771.467 169.722 776.295 174.984C781.1 180.221 784.281 188.521 787.705 194.808L807.523 230.737L848.732 302.969C852.313 309.123 861.281 321.454 863.083 327.015C863.679 328.852 863.771 331.054 863.818 332.985C864.09 344.192 863.584 355.451 863.726 366.67C863.841 375.726 864.829 385.321 864.048 394.315C862.721 409.578 854.039 425.805 842.236 435.533C830.917 444.862 816.123 450.774 801.312 449.244C800.521 449.168 799.734 449.064 798.95 448.934C799.645 480.621 799.057 512.47 799.034 544.17L798.981 768.002C808.1 767.991 841.643 766.728 847.803 768.876C850.445 769.797 853.094 772.432 855.062 774.396C862.128 781.448 868.085 790.038 874.33 797.838C878.024 802.451 882.474 807.038 885.714 811.934C886.838 813.592 887.554 815.04 887.893 817.032C888.756 822.104 888.902 840.845 888.014 845.93C887.555 848.561 886.618 851.181 884.995 853.327C882.862 856.148 880.449 856.511 877.064 856.856C868.841 857.694 860.027 857.007 851.74 857.003L800.332 856.978L625.935 856.573L307.5 856.469L205.26 856.67C189.552 856.698 173.749 857.142 158.051 856.749C152.226 856.604 146.309 856.548 141.664 852.609C132.907 845.185 136.279 826.431 135.598 815.702L135.555 815.08C136.404 813.791 137.27 812.512 138.152 811.246C144.795 802.285 151.644 793.48 158.695 784.837C163.185 779.225 167.594 773.329 172.489 768.077C190.382 767.681 208.332 768.009 226.231 768.052L226.204 606.756L226.004 451.021ZM271.821 406.086C279.103 420.161 289.648 430.603 305.006 435.418C318.036 439.504 331.678 437.81 343.661 431.441C355.1 425.361 362.715 416.191 367.667 404.331C369.603 413.807 379.145 423.427 386.916 428.612C398.507 436.267 412.685 438.952 426.273 436.066C440.559 432.968 453.014 424.29 460.868 411.962C462.193 409.887 463.35 407.716 464.498 405.541C469.522 417.674 480.102 428.142 492.209 433.174C504.948 438.469 518.946 438.168 531.626 432.842C545.752 426.907 553.382 417.342 560.56 404.305C563.491 414.587 573.045 424.876 582.233 430.038C594.574 436.973 610.017 438.878 623.615 434.891C637.367 430.858 648.561 420.981 655.256 408.451C655.781 407.465 656.287 406.468 656.774 405.461C657.717 408.024 659.079 410.202 660.513 412.506C669.348 424.758 681.091 434.272 696.419 436.674C709.895 438.785 724.905 434.776 735.799 426.677C743.441 420.996 748.128 413.867 752.708 405.661C757.693 418.093 767.022 427.627 779.378 432.88C792.218 438.424 806.746 438.586 819.707 433.327C832.04 428.299 841.478 418.619 846.556 406.342C848.385 401.92 849.361 397.394 849.864 392.646C850.934 382.548 850.214 371.761 850.187 361.598C850.159 351.183 850.681 340.436 850.1 330.049L849.628 329.474C841.074 318.956 834.025 304.986 827.121 293.181C812.165 267.444 797.443 241.573 782.956 215.569C778.799 208.208 769.765 190.295 765.137 184.9C763.834 183.381 762.267 183.501 760.388 183.286C753.935 182.547 747.186 182.922 740.687 182.918L707.14 182.912L596.039 182.894L376.89 182.811C338.762 182.798 300.457 181.808 262.349 182.72C257.167 184.013 256.436 186.13 253.848 190.448C245.504 204.368 237.884 218.768 230.001 232.954L200.225 286.023C193.324 298.401 177.952 322.243 174.373 334.409C172.684 340.15 173.969 356.694 173.971 363.497C173.974 373.026 173.51 382.678 173.966 392.192C174.105 395.095 174.452 397.959 175.144 400.785C178.059 412.685 186.286 423.74 196.756 430.068C208.605 437.187 222.818 439.24 236.197 435.765C250.536 432.168 262.28 423.065 269.677 410.328C270.474 408.957 271.158 407.525 271.821 406.086ZM630.75 768.106L729.019 768.025L729.11 510.521C719.94 509.348 709.505 509.691 700.3 510.229C682.713 510.908 665.036 510.706 647.435 510.71C632.982 510.713 618.461 510.996 604.014 510.636L604.086 682.772C604.142 711.181 603.872 739.63 604.35 768.034L630.75 768.106ZM598.386 489.606C593.153 490.601 588.538 492.619 585.403 497.164C583.005 500.641 582.306 505.07 582.061 509.214C581.409 520.214 582.129 531.547 582.203 542.583C582.409 563.759 582.481 584.936 582.42 606.113L582.423 719.575C582.394 735.645 581.988 751.694 582.162 767.77C584.255 767.765 586.374 767.83 588.461 767.685L588.511 587.505L588.43 538.351C588.334 528.08 587.534 517.363 588.541 507.148C588.848 504.028 590.173 501.347 592.385 499.098C594.33 497.121 599.168 496.848 601.858 496.673C609.077 496.202 616.487 496.515 623.724 496.503L663.923 496.451C687.802 496.407 711.965 495.298 735.808 496.28C736.559 496.31 737.309 496.348 738.059 496.394C740.367 497.064 742.02 497.956 743.171 500.161C744.346 502.414 744.422 505.223 744.489 507.721C744.754 517.458 744.466 527.277 744.465 537.02L744.406 605.445L744.337 700.5C744.439 723.04 744.905 745.612 744.662 768.149L752.052 768.339L751.887 572.044C751.754 556.932 751.764 541.819 751.917 526.708C751.935 518.413 752.567 509.341 751.368 501.155C750.925 498.125 749.139 495.555 747.001 493.447C744.227 490.712 740.43 490.22 736.698 489.8C730.747 489.132 724.432 489.53 718.427 489.536L687.101 489.51C658.356 489.483 629.39 488.717 600.667 489.526C599.906 489.547 599.146 489.574 598.386 489.606ZM448.75 688.347L495.207 688.376C502.682 688.375 510.683 689.007 518.066 688.158C520.681 687.857 524.751 687.199 526.708 685.25C528.992 682.975 530.896 679.427 531.281 676.21C532.163 668.827 531.515 660.7 531.491 653.249L531.323 608.004L531.382 537.549C531.391 527.664 531.873 517.66 531.524 507.791C531.343 502.674 530.231 498.171 526.423 494.515C523.675 491.876 521.473 491.266 517.733 490.832C511.574 490.118 505.036 490.519 498.828 490.522L464.768 490.548C429.272 490.587 393.727 490.321 358.236 490.757L311.936 490.943C304.271 490.948 295.726 490.162 288.157 491.196C285.31 491.585 281.652 492.274 279.592 494.465C277.181 497.039 275.648 500.312 275.212 503.812C274.168 512.801 274.784 522.466 274.828 531.514L274.98 578.99L274.877 642.813C274.888 652.185 274.275 661.88 274.913 671.199C275.299 676.826 276.476 680.949 280.87 684.842C283.696 687.347 286.787 687.913 290.456 688.266C296.51 688.847 302.862 688.488 308.944 688.482L341.959 688.441L448.75 688.347Z"/>
	<path fill="#222" d="M700.601 188.543L760.679 188.667C765.852 195.451 769.798 204.095 773.996 211.577L801.644 261.217L829.278 309.447C832.495 315.041 836.671 320.522 839.413 326.297L839.095 326.626L756.794 326.832C750.65 312.959 745.306 298.591 739.467 284.571C726.209 252.741 712.843 220.775 700.601 188.543Z"/>
	<path fill="#222" d="M263.677 188.455C283.552 188.688 303.482 189.03 323.354 188.627C308.512 221.136 295.763 254.883 282.324 288.001C277.578 299.696 272.181 316.29 266.361 327.014L248.25 326.968L187.341 326.99C192.671 313.29 200.854 300.453 207.955 287.6C219.837 265.847 231.897 244.192 244.137 222.638C248.022 215.699 259.58 192.379 263.677 188.455Z"/>
	<path fill="#222" d="M553.031 188.501L613.248 188.69C616.778 200.166 619.263 212.162 622.163 223.828L640.405 298.2C641.83 303.934 647.966 322.612 647.863 326.529C629.8 326.761 611.723 326.523 593.658 326.566C585.166 326.585 576.206 326.086 567.763 326.972C562.524 280.884 559.564 234.422 553.031 188.501Z"/>
	<path fill="#222" d="M411.916 188.295L470.429 188.508C466.53 219.897 463.562 251.516 460.564 283.005C459.168 297.662 458.227 312.373 456.337 326.98L434.931 326.908L376.138 327.026C382.332 302.506 388.651 278.017 395.096 253.562C400.792 231.882 406.916 210.132 411.916 188.295Z"/>
	<path fill="#222" d="M627.645 188.52L687.772 188.732C693.693 202.448 698.367 216.888 703.516 230.926C709.612 247.543 716.481 263.834 722.898 280.325C728.757 295.381 734.135 310.896 740.937 325.558L740.237 326.481C733.014 327.047 725.568 326.703 718.321 326.71L683.497 326.769C677.02 326.733 669.263 325.867 662.937 327.038C662.418 323.023 660.993 318.89 659.943 314.972C657.928 307.613 656 300.232 654.159 292.828C645.521 258.01 635.951 223.417 627.645 188.52Z"/>
	<path fill="#222" d="M483.447 188.522C502.292 188.726 521.29 187.899 540.104 188.759C540.793 198.597 542.078 208.374 542.941 218.196L552.573 326.846C549.44 326.659 546.265 326.696 543.125 326.638C519.323 326.424 495.537 326.884 471.739 326.922L483.447 188.522Z"/>
	<path fill="#222" d="M337.244 188.572L398.138 188.552C395.269 199.514 391.753 210.373 388.649 221.278L369.069 291.241C365.818 303.018 361.595 315.048 359.196 327.002L343.375 327.001L283.491 327.027C286.695 316.118 291.912 305.219 296.12 294.627L315.26 245.064L329.025 208.745C331.551 202.094 333.871 194.815 337.244 188.572Z"/>
	<path fill="#222" d="M375.067 336.629C383.019 337.271 391.463 336.604 399.472 336.639L457.444 336.814C456.184 352.442 459.75 385.76 455.557 398.476C453.658 404.236 450.215 409.051 446.36 413.654C444.856 415.357 443.154 416.801 441.368 418.197C432.52 425.007 421.348 428.063 410.266 426.704C399.315 425.308 389.38 419.582 382.682 410.807C379.297 406.346 376.681 401.187 375.51 395.691C373.782 387.582 373.836 345.323 375.067 336.629Z"/>
	<path fill="#222" d="M181.866 336.982L264.572 337.001C264.661 354.661 265.445 372.81 264.459 390.42C263.912 400.179 260.012 409.142 252.682 415.711C244.817 422.719 234.967 427.209 224.347 427.429C213.359 427.657 202.259 422.767 194.423 415.16C181.379 402.495 181.791 387.293 181.733 370.391C181.695 359.25 182.1 348.124 181.866 336.982Z"/>
	<path fill="#222" d="M574.607 336.754L650.03 336.615C650.02 349.085 649.947 361.556 649.81 374.025C649.73 380.617 649.966 387.458 649.219 394C648.098 403.82 641.307 412.457 633.766 418.393C626.834 424.439 616.319 427.228 607.272 426.93C595.923 426.464 585.209 421.562 577.437 413.278C573.367 408.854 570.036 403.341 568.49 397.501C565.989 388.057 567.104 376.792 567.172 367.065C567.243 357.021 567.202 346.957 567.564 336.919L574.607 336.754Z"/>
	<path fill="#222" d="M279.152 336.653C287.189 337.292 295.536 336.876 303.602 336.852C322.51 336.797 341.506 336.29 360.408 336.784C359.938 352.083 362.394 385.308 358.465 398.155C356.445 404.761 352.994 410 348.37 415.053C340.615 422.688 329.691 427.73 318.714 427.608C308.218 427.492 297 422.253 289.74 414.748C285.309 410.193 282.153 404.555 280.589 398.396C278.086 388.752 279.04 378.17 279.054 368.281C279.016 357.738 279.048 347.195 279.152 336.653Z"/>
	<path fill="#222" d="M471.76 336.667C498.744 337.341 526.036 337.318 553.026 336.685C553.056 349.103 554.362 386.937 551.616 396.744C549.62 403.873 545.838 409.675 540.691 414.909C533.338 421.448 524.128 426.241 514.16 426.744C503.442 427.284 491.947 423.096 484.014 415.895C478.787 411.158 475.005 405.041 473.104 398.248C471.319 391.786 471.899 384.868 471.845 378.228C471.734 364.429 472.376 350.43 471.76 336.667Z"/>
	<path fill="#222" d="M715.283 336.756C725.203 336.753 735.103 336.875 745.026 336.725C744.976 347.989 745.007 359.253 745.118 370.516C745.158 378.785 745.916 387.759 744.025 395.842C741.551 406.086 735.159 414.951 726.222 420.535C717.324 426.062 706.689 428.486 696.387 426.109C688.547 424.15 681.579 420.487 675.817 414.778C671.013 410.018 667.115 404.03 665.317 397.473C662.686 387.878 664.237 374.98 664.321 364.911C664.356 355.61 664.335 346.308 664.255 337.008C681.265 337.041 698.274 336.957 715.283 336.756Z"/>
	<path fill="#222" d="M760.05 336.493C768.327 337.627 777.459 336.927 785.815 336.897C803.974 336.83 822.124 336.442 840.284 336.695C840.325 337.296 840.353 337.897 840.37 338.498C840.701 350.236 841.811 386.651 839.239 396.201C837.312 403.358 833.461 409.543 828.37 414.865C820.86 422.316 810.953 427.095 800.286 427.104C789.61 427.112 778.383 422.512 770.852 414.927C766.139 410.189 762.78 404.276 761.123 397.801C758.914 389.018 759.961 378.867 759.995 369.818L760.05 336.493Z"/>
	<path fill="#ADADB1" fill-opacity="0.47058824" d="M568.445 331.115C574.069 330.665 579.939 330.982 585.59 331.005L615.858 331.069C625.284 331.059 643.631 329.956 652.129 331.242L652.392 331.712L651.125 332.055C623.29 332.208 595.315 332.42 567.49 332.025L567.163 331.391L566.944 331.964L566.219 331.693L568.445 331.115Z"/>
	<defs>
		<linearGradient id="gradient_0" gradientUnits="userSpaceOnUse" x1="312.6925" y1="328.1171" x2="312.26736" y2="333.37964">
			<stop offset="0" stop-color="#B7B3BB" stop-opacity="0"/>
			<stop offset="1" stop-color="#ABAAAB" stop-opacity="0.10588235"/>
		</linearGradient>
	</defs>
	<path fill="url(#gradient_0)" d="M314.745 330.25C321.34 328.969 329.049 330.282 335.789 330.201C333.324 330.648 330.979 330.588 328.491 330.522C334.41 331.645 341.496 330.801 347.579 331.018L347.549 331.18C341.781 332.336 335.974 332.221 330.125 332.129C315.964 331.136 301.55 332.639 287.398 332.208C295.156 329.429 306.21 331.432 314.745 330.25Z"/>
	<path fill="#606267" fill-opacity="0.89411765" d="M844.957 371.488L845.315 370.552C845.876 374.257 845.555 378.301 845.54 382.049C845.492 394.26 844.782 403.397 837.285 413.514C830.623 422.505 818.679 430.57 807.418 432.006C806.658 432.108 805.895 432.18 805.13 432.225L806.593 430.893C806.742 430.908 806.891 430.934 807.04 430.937C814.973 431.121 826.543 423.779 831.998 418.357C839.992 410.409 844.898 399.411 844.905 388.111C845.02 382.57 845.037 377.028 844.957 371.488Z"/>
	<path fill="#C1BEC4" fill-opacity="0.35294119" d="M483.481 331.042L527.337 330.977C536.103 330.949 545.011 330.6 553.757 331.084C550.029 331.532 545.689 330.77 542.188 331.921C535.239 332.832 527.107 331.944 520.042 331.922C511.024 331.893 501.763 332.503 492.777 331.94C489.887 331.219 486.486 331.456 483.481 331.042Z"/>
	<path fill="#DDDCDD" fill-opacity="0.15294118" d="M749.261 336.348C749.748 336.424 749.457 336.337 750.063 336.778C749.175 350.452 749.948 364.448 750.106 378.158C750.167 383.412 750.547 389.037 750.016 394.263C749.886 395.536 749.435 396.337 748.753 397.369C749.039 381.593 749.424 365.735 749.398 349.963C749.395 347.73 748.581 337.681 749.261 336.348Z"/>
	<path fill="#ADADB1" fill-opacity="0.70588237" d="M421.19 331.918C410.596 332.385 399.816 331.989 389.2 331.967C383.15 331.955 376.347 332.605 370.418 331.673C375.2 330.195 403.844 331.048 410.734 331.093C414.154 331.632 417.975 330.822 421.19 331.918Z"/>
	<path fill="#DDDCDD" fill-opacity="0.78039217" d="M647.426 309.199C645.737 303.542 635.845 268.898 636.612 266.032L637.059 266.214C637.07 266.357 637.075 266.5 637.092 266.643C637.668 271.483 639.498 276.682 640.767 281.404C643.286 290.603 645.739 299.819 648.125 309.053L647.426 309.199Z"/>
	<path fill="#C1BEC4" fill-opacity="0.16078432" d="M659.347 349.673C661.145 352.46 660.488 374.289 659.818 378.453C657.692 372.711 658.96 356.398 659.347 349.673Z"/>
	<path fill="#ADADB1" fill-opacity="0.52156866" d="M424.993 331.105C435.221 331.014 452.223 329.607 461.75 331.832C451.406 332.521 440.722 331.932 430.342 331.891C428.949 330.902 426.711 331.177 424.993 331.105Z"/>
	<path fill="#C1BEC4" fill-opacity="0.50588238" d="M396.977 428.504L397.7 428.319C402.436 430.011 409.392 432.381 414.421 432.234C417.763 432.136 424.494 429.945 427.262 431.427C426.396 431.701 425.536 431.87 424.642 432.022C416.465 433.406 404.049 433.55 396.977 428.504Z"/>
	<defs>
		<linearGradient id="gradient_1" gradientUnits="userSpaceOnUse" x1="711.56934" y1="250.40175" x2="714.75073" y2="248.69479">
			<stop offset="0" stop-color="#FBF7FA" stop-opacity="0"/>
			<stop offset="1" stop-color="#F0E9F2" stop-opacity="0.031372551"/>
		</linearGradient>
	</defs>
	<path fill="url(#gradient_1)" d="M711.723 241.844C713.495 243.391 714.07 246.929 714.257 249.158C714.324 249.946 714.168 249.528 714.909 250.297C716.184 251.621 716.593 252.52 717.119 254.277L716.715 254.96L714.464 254.508L713.967 253.672L714.253 253.55C712.847 251.01 712.136 248.488 711.306 245.732C711.558 244.733 711.716 243.849 711.723 242.821L711.723 241.844Z"/>
	<path fill="#C1BEC4" fill-opacity="0.29411766" d="M557.297 373.18C559.355 376.397 558.397 388.65 557.765 392.642C556.573 386.727 556.403 379.15 557.297 373.18Z"/>
	<path fill="#DDDCDD" fill-opacity="0.47843137" d="M647.426 309.199L648.125 309.053C649.777 312.715 652.855 324.912 653.291 329.019C650.067 323.5 648.922 315.398 647.426 309.199Z"/>
	<path fill="#ADADB1" fill-opacity="0.64705884" d="M492.777 331.94C484.977 332.202 477.172 331.735 469.368 331.696C473.804 330.593 478.923 330.987 483.481 331.042C486.486 331.456 489.887 331.219 492.777 331.94Z"/>
	<path fill="#C1BEC4" fill-opacity="0.22352941" d="M653.911 381.192C655.909 384.295 655.444 392.673 654.768 396.215C654.724 396.181 654.672 396.155 654.636 396.113C653.013 394.252 653.921 384.141 653.911 381.192Z"/>
	<path fill="#C1BEC4" fill-opacity="0.43529412" d="M269.118 385.331L269.576 385.71C270.974 388.685 269.241 395.471 268.608 398.704L268.122 398.572C267.373 395.735 268.907 388.713 269.118 385.331Z"/>
	<path fill="#C1BEC4" fill-opacity="0.33333334" d="M410.734 331.093C415.475 331.017 420.259 330.807 424.993 331.105C426.711 331.177 428.949 330.902 430.342 331.891C427.276 332.062 424.257 332.014 421.19 331.918C417.975 330.822 414.154 331.632 410.734 331.093Z"/>
	<path fill="#C1BEC4" fill-opacity="0.85490197" d="M810.952 331.25C816.75 330.564 826.242 329.795 831.668 331.893C824.798 331.605 817.777 332.02 810.952 331.25Z"/>
	<path fill="#020102" fill-opacity="0.81568629" d="M843.872 347.763L845.05 348.479C845.169 351.724 845.613 355.869 844.637 358.979C843.877 355.334 843.971 351.478 843.872 347.763Z"/>
	<path fill="#020102" fill-opacity="0.31764707" d="M843.938 339.711L845.036 340.513C844.926 343.18 844.751 345.819 845.05 348.479L843.872 347.763C843.317 345.344 843.031 342.054 843.938 339.711Z"/>
	<path fill="#ADADB1" fill-opacity="0.63137257" d="M473.67 411.766C475.536 412.337 481.314 419.519 483.134 421.303L482.451 421.523C478.818 418.851 476.243 415.421 473.67 411.766Z"/>
	<path fill="#DDDCDD" fill-opacity="0.36078432" d="M645.01 273.241C645.621 273.241 645.25 273.172 645.994 273.805C646.783 276.536 648.129 279.825 648.111 282.648C647.817 282.597 647.587 282.362 647.338 282.198C646.505 279.242 645.535 276.27 645.01 273.241Z"/>
	<path fill="#DDDCDD" fill-opacity="0.094117649" d="M370.483 339.179C370.855 339.385 370.614 339.209 370.897 339.973C369.719 342.789 370.782 347.387 370.234 350.635C368.503 347.078 369.44 342.834 370.483 339.179Z"/>
	<path fill="#ADADB1" fill-opacity="0.71764708" d="M553.757 331.084L556.654 331.411L556.545 331.78C551.815 332.194 546.934 332.069 542.188 331.921C545.689 330.77 550.029 331.532 553.757 331.084Z"/>
	<path fill="#020102" fill-opacity="0.10588235" d="M371.617 371.847C372.333 374.765 371.833 381.206 370.687 383.958C370.554 379.933 370.205 375.693 371.617 371.847Z"/>
	<path fill="#DDDCDD" fill-opacity="0.35294119" d="M805.13 432.225C803.225 432.576 800.98 433.171 799.094 432.67C801.159 431.347 804.184 431.141 806.593 430.893L805.13 432.225Z"/>
	<path fill="#ADADB1" fill-opacity="0.26274511" d="M467.192 332.326C468.915 336.741 467.226 341.341 467.255 345.875C467.285 341.33 466.636 336.866 467.192 332.326Z"/>
	<path fill="#020102" fill-opacity="0.61176473" d="M843.938 339.711C843.812 337.642 844.022 335.845 844.397 333.81L844.832 333.546C845.242 335.906 845.128 338.136 845.036 340.513L843.938 339.711Z"/>
	<path fill="#928B99" fill-opacity="0.32941177" d="M844.957 371.488C845.037 377.028 845.02 382.57 844.905 388.111C843.705 383.269 844.241 376.41 844.957 371.488Z"/>
	<path fill="#DDDCDD" fill-opacity="0.58039218" d="M641.901 259.292C643.01 260.975 643.945 264.357 643.699 266.393L643.062 266.217C642.543 263.903 642.045 261.669 641.901 259.292Z"/>
	<path fill="#222" d="M288.093 496.167C298.238 495.623 308.621 496.025 318.79 496.041L375.073 496.078L462.947 496.063C478.783 496.07 494.683 495.792 510.512 496.178C513.16 496.242 516.54 496.085 518.987 497.151C520.968 498.015 523.081 499.78 523.802 501.863C526.406 509.396 525.06 563.433 525.084 574.221C525.223 597.924 525.187 621.627 524.978 645.329C524.948 653.939 525.387 662.599 525.165 671.198C525.107 673.421 524.942 675.907 523.889 677.906C522.666 680.227 520.876 681.231 518.477 682.06C506.086 682.577 493.511 682.29 481.102 682.365L400.444 682.508L330.424 682.553C318.281 682.558 305.979 682.972 293.852 682.491C291.407 682.394 288.552 682.342 286.35 681.199C283.914 679.935 282.273 677.624 281.443 675.055C279.345 668.558 280.506 650.754 280.509 642.873L280.48 597.851L280.437 536.71C280.436 526.293 280.042 515.683 280.51 505.287C280.593 503.439 280.736 501.719 281.681 500.087C283.145 497.56 285.394 496.82 288.093 496.167ZM409.013 667.089C419.894 667.073 507.267 667.719 509.915 666.457L510.112 666.025C510.171 614.374 511.19 562.571 510.101 510.934C486.051 510.334 461.889 510.691 437.827 510.626C428.346 510.6 418.495 511.179 409.062 510.528C408.757 562.715 408.74 614.902 409.013 667.089ZM295.841 667.003L365.986 667.079C372.306 667.085 387.9 667.998 393.283 666.911C393.048 660.488 393.69 654.161 393.932 647.751C394.207 640.491 394.033 633.172 394.04 625.906L394.008 510.973L295.539 510.874C296.24 562.891 295.675 614.973 295.841 667.003Z"/>
	<path fill="#222" d="M627.484 606.108C638.256 604.443 648.327 611.857 649.938 622.637C651.549 633.416 644.086 643.45 633.298 645.008C622.585 646.555 612.637 639.155 611.037 628.45C609.437 617.746 616.788 607.76 627.484 606.108ZM632.92 633.992C635.531 632.65 637.539 631.387 638.477 628.459C639.195 626.247 638.931 623.833 637.751 621.829C636.444 619.662 634.293 618.139 631.815 617.627C630.918 617.446 630.017 617.45 629.106 617.443C626.568 618.784 624.588 620.218 623.641 623.048C622.908 625.24 623.009 627.666 624.103 629.723C625.165 631.72 627.156 633.3 629.354 633.846C630.53 634.138 631.722 634.07 632.92 633.992Z"/>
</svg>
