<?xml version="1.0" encoding="utf-8" ?>
<svg xmlns="http://www.w3.org/2000/svg" xmlns:xlink="http://www.w3.org/1999/xlink" width="424" height="536">
	<path fill="#8B441F" d="M182.876 29.1756C184.965 29.041 187.146 29.2498 189.252 29.2297C195.985 29.1657 202.686 29.2631 209.414 29.2692L260.16 29.1304L312.696 29.1525Q325.518 29.0232 338.339 29.1505C341.871 29.1644 345.443 29.0062 348.969 29.1317C350.263 29.1777 351.54 29.5037 352.609 30.2616C354.044 31.2792 354.869 32.9666 355.234 34.6492C355.709 36.8332 355.505 39.3182 355.499 41.5466C355.483 47.0527 354.911 57.1707 355.762 62.0888L355.818 62.3941C360.311 67.3353 364.834 69.5985 371.229 71.2513C373.359 71.8018 375.538 72.2224 377.484 73.2875C380.031 74.681 382.091 77.0746 382.891 79.8857C384.036 83.9129 383.459 99.1402 383.464 104.227L383.483 155.919L383.476 389.098L383.462 451.283L383.453 469.941C383.45 473.407 383.621 476.995 383.319 480.445C383.196 481.849 382.745 483.35 382.052 484.58C380.244 487.788 376.935 490.152 373.419 491.124C368.981 492.35 361.721 491.719 357 491.77Q340.305 492.017 323.609 491.959L275.361 491.967C267.285 491.96 259.071 492.248 251.011 491.904C250.42 491.879 250.071 491.77 249.556 491.48C249.069 491.775 248.706 491.871 248.135 491.903C244.724 492.093 241.217 491.926 237.797 491.928L217.657 491.937L155.002 491.886Q133.012 492.007 111.023 491.762C101.849 491.714 92.3464 492.347 83.2958 490.657C76.0536 489.304 67.5498 484.735 62.0857 479.833C52.5475 471.277 48.0767 456.674 47.5212 444.174C47.0977 434.644 47.3941 424.953 47.3821 415.407L47.3425 361.657L47.3711 195.972L47.3813 97.996L47.4136 70.9381C47.4124 66.0683 47.045 60.845 47.6558 56.0253C48.2288 51.5036 51.5863 47.4437 54.5737 44.186C61.7695 36.3391 72.9164 32.6843 83.1183 30.8588C87.0778 30.1503 91.1392 30.1263 95.1504 30.0017C102.127 29.7851 109.09 29.7706 116.068 29.7318L151.297 29.3232C161.81 29.2913 172.37 29.5911 182.876 29.1756Z"/>
	<path fill="#FBA561" d="M52.3466 66.6528C52.1593 58.9956 52.6202 53.299 58.1288 47.4783C67.5977 37.4729 82.0144 34.86 95.1909 34.5627C115.237 34.1103 135.361 34.4211 155.416 34.3947L272.998 34.3348L326.315 34.3093L340.025 34.3092C343.496 34.2965 347.121 34.0685 350.547 34.6716C351.317 39.0779 351.599 54.4498 350.915 58.7367C342.666 52.3857 347.768 46.5711 342.082 42.619C337.95 42.0032 333.681 42.1921 329.511 42.1968L309.633 42.2904L239.379 42.2505L135.329 42.2004L104.29 42.2073C98.9027 42.1929 93.113 41.7454 87.773 42.2798C83.9505 42.6624 71.6798 47.9154 68.5496 50.2539C65.3775 52.6238 62.3816 56.184 61.8477 60.2391C61.4882 62.9693 62.4989 65.7067 64.1732 67.839C68.5528 73.4167 77.7489 75.8395 84.4997 76.5722C92.1025 77.3975 99.9741 77.0156 107.619 77.0003L144.482 76.9289L262.761 76.9213L339.746 76.8748C345.55 76.8339 351.38 76.8791 357.178 76.6071C361.155 76.4205 365.483 75.688 369.441 75.9959C372.112 76.2037 375.164 76.7653 376.893 79.0092C378.173 80.6705 378.317 82.9329 378.451 84.9502C378.819 90.5171 378.61 96.2088 378.617 101.789L378.64 131.595L378.655 221.693L378.651 409.576L378.653 458.463L378.668 470.654C378.684 473.777 378.942 477.278 378.362 480.355Q378.291 480.715 378.185 481.066Q378.079 481.417 377.94 481.756Q377.801 482.095 377.63 482.419Q377.459 482.743 377.258 483.049Q377.056 483.355 376.826 483.641Q376.596 483.926 376.34 484.188Q376.083 484.45 375.803 484.685Q375.522 484.921 375.22 485.129C373.188 486.498 370.707 486.726 368.325 486.787C361.312 486.967 354.233 486.745 347.212 486.748L303.522 486.774L179.871 486.76L122.863 486.764L104.063 486.791C96.8975 486.794 89.8859 486.988 82.8483 485.402C73.5177 483.3 64.7586 477.489 59.628 469.374C54.5402 461.327 52.6143 451.401 52.5968 441.96C51.9695 439.145 52.3001 435.624 52.2886 432.711L52.2588 415.059L52.2903 345.792L52.3067 150.963C52.3364 122.866 52.0256 94.7463 52.3466 66.6528Z"/>
	<path fill="#C56C34" d="M52.3466 66.6528C52.9337 69.7299 52.6916 73.1616 52.6813 76.2862L52.6352 90.466L52.6611 144.915L52.6537 352.272C54.9309 353.126 57.1865 354.745 59.3323 355.924C65.1425 359.116 71.0856 362.272 76.7007 365.798C76.7611 365.827 76.8208 365.858 76.8818 365.885C78.2291 366.498 80.1284 365.967 80.8014 367.454C80.6021 368.123 80.6249 368.186 80.0661 368.589C78.9002 368.57 77.6696 367.693 76.7773 366.993C76.4727 367.057 76.1843 367.104 75.8963 367.224C75.2984 367.753 74.9446 367.878 74.1346 367.827C67.4249 367.4 61.2739 363.647 56.9993 358.639C55.4785 356.857 54.1306 354.93 52.6108 353.152L52.5961 419.155C52.6018 423.143 53.1687 439.547 52.5968 441.96C51.9695 439.145 52.3001 435.624 52.2886 432.711L52.2588 415.059L52.2903 345.792L52.3067 150.963C52.3364 122.866 52.0256 94.7463 52.3466 66.6528Z"/>
	<path fill="#C56C34" d="M84.1931 86.9402C85.6243 86.9346 86.6356 86.8333 87.7637 87.8506C88.1498 88.7724 88.1856 89.7598 88.2027 90.7483C88.3403 98.7028 88.122 106.678 88.1265 114.636L88.1387 175.434L88.0654 419.84C88.056 425.171 88.5225 473.643 87.78 475.305C87.5805 475.752 87.4912 475.679 87.0693 475.846C86.838 476.055 86.5659 476.229 86.313 476.412C85.5151 476.51 84.862 476.511 84.2154 475.966C83.2503 475.152 83.1782 473.768 83.1479 472.598C82.8188 459.862 83.2091 447.006 83.2089 434.258L83.2325 347.55L83.1985 93.5348C83.2053 91.6853 82.8464 88.3443 84.1931 86.9402Z"/>
	<path fill="#C56C34" d="M54.4598 128.093C56.851 128.447 75.5242 138.842 77.5575 140.777C78.0213 141.219 77.9649 141.305 77.9461 141.906Q77.5073 141.971 77.0648 142.002C70.1554 142.514 64.4641 139.387 59.3751 134.994C57.3473 133.244 54.6636 130.925 54.4598 128.093Z"/>
	<path fill="#C56C34" d="M54.8489 140.254C55.7813 140.677 56.6893 141.43 57.6158 141.931L69.1447 148.237C71.6364 149.588 74.7421 150.635 76.9818 152.305C77.2232 152.909 77.1812 152.889 76.9491 153.505C74.9812 153.931 72.7351 153.773 70.7525 153.515Q70.255 153.445 69.7616 153.351Q69.2682 153.257 68.78 153.139Q68.2918 153.02 67.81 152.878Q67.3283 152.736 66.8541 152.57Q66.3799 152.404 65.9145 152.215Q65.4491 152.026 64.9936 151.815Q64.5381 151.603 64.0935 151.369Q63.649 151.135 63.2165 150.88Q62.784 150.624 62.3647 150.348Q61.9454 150.071 61.5402 149.774Q61.135 149.477 60.7449 149.161Q60.3548 148.844 59.9808 148.509Q59.6068 148.174 59.2498 147.82Q58.8928 147.467 58.5537 147.096Q58.2145 146.726 57.8941 146.339Q57.5736 145.952 57.2726 145.55C56.253 144.184 54.6033 141.943 54.8489 140.254Z"/>
	<path fill="#C56C34" d="M54.6414 366.285C54.7162 366.294 54.7922 366.296 54.8657 366.312C56.7594 366.729 64.8207 372.087 67.2296 373.417C69.8133 374.842 72.824 375.855 75.2847 377.434C75.9073 377.833 76.3124 378.412 76.723 379.014C72.642 378.707 68.6198 379.099 64.7354 377.525C60.0462 375.624 56.5643 370.807 54.6414 366.285Z"/>
	<path fill="#FDEDE0" d="M87.4929 47.2463C92.7992 46.8862 98.2175 47.1043 103.535 47.1273L128.641 47.1665L213.183 47.1864L296.969 47.1859L324.256 47.1197C329.408 47.1099 334.644 46.9136 339.784 47.2608C340.213 54.6792 341.482 59.3148 348.365 63.0346C350.296 64.0783 352.048 64.9383 353.465 66.6637C354.634 68.0875 355.296 69.7726 356.022 71.4459C348.597 71.8502 341.132 71.7368 333.696 71.7648L166.309 71.9189L113.476 71.9326C104.205 71.9412 94.5977 72.5201 85.3619 71.788C80.5171 71.4039 75.6946 70.3184 71.5117 67.7499C68.6585 65.9979 67.2011 64.1889 66.4058 60.9199C66.6574 60.056 66.939 59.169 67.4225 58.4039C68.4044 56.8501 69.9636 55.5231 71.4754 54.506C74.359 52.5659 84.2981 47.8776 87.4929 47.2463Z"/>
</svg>
