<?xml version="1.0" encoding="utf-8" ?>
<svg xmlns="http://www.w3.org/2000/svg" xmlns:xlink="http://www.w3.org/1999/xlink" width="424" height="536">
	<path fill="#8D631E" d="M276.919 29.1816L324.018 29.1407C331.928 29.1326 341.066 28.5956 348.828 29.1854C350.29 29.2965 351.489 29.4721 352.729 30.3419C353.74 31.0507 354.597 31.9852 355.021 33.1597C357.149 39.0527 354.631 54.5053 355.833 61.8152L355.895 62.1825C359.941 67.7263 365.333 69.5557 371.652 71.3166C373.537 71.842 375.421 72.3087 377.174 73.2043C379.704 74.4968 382.015 76.7435 382.857 79.5133C384.119 83.6699 383.469 105.557 383.466 111.168L383.486 175.49L383.479 373.118L383.467 447.216C383.452 457.773 383.636 468.346 383.46 478.9C383.423 481.083 383.129 482.875 382.054 484.799C380.258 488.016 377.109 490.141 373.588 491.089C368.608 492.43 356.965 491.746 351.391 491.755L312.859 491.793L212.476 491.776C193.91 491.779 175.307 492.021 156.746 491.76C155.807 491.747 155.124 491.782 154.287 491.304C153.395 491.751 152.753 491.762 151.774 491.78C139.996 491.993 128.172 491.771 116.389 491.755L100.723 491.727C94.5011 491.711 88.3136 491.82 82.2171 490.376C74.5094 488.55 66.9006 484.648 61.227 479.089C53.5139 471.532 49.7232 461.471 48.2551 450.956C47.2568 443.805 47.3616 436.567 47.3816 429.364L47.4148 408.105L47.3484 335.158L47.2494 63.3121C47.1703 54.598 48.8089 49.9032 55.1193 43.5484C62.1441 36.4742 71.3859 32.9491 81.0274 31.207C90.8609 29.4301 101.152 29.7632 111.118 29.6881L144.963 29.4109L276.919 29.1816Z"/>
	<path fill="#FBD061" d="M52.2838 96.5024C52.4929 88.7743 52.3131 81.0088 52.2933 73.2767C52.2787 67.5618 51.4537 60.5717 53.2369 55.1089C54.355 51.6838 56.8324 48.6319 59.4245 46.1985C66.2213 39.8177 75.3203 36.6662 84.4096 35.3994C96.7898 33.6739 109.89 34.44 122.375 34.4414L183.027 34.3979L289.902 34.3908L327.814 34.3416C334.185 34.3364 340.647 34.105 347.011 34.3599C348.196 34.4074 349.379 34.4901 350.553 34.6658C351.231 38.7166 351.074 42.9684 351.138 47.0662C351.199 50.9332 351.435 54.9508 351.034 58.803C347.458 56.1273 346.025 53.6886 345.392 49.2893C345.063 47.002 344.854 44.5377 342.815 43.0567C341.717 42.2589 339.112 42.3184 337.786 42.2667C327.63 41.8709 317.334 42.2842 307.165 42.2893L249.142 42.2625L130.07 42.2246L101.129 42.2136C96.3291 42.2084 90.5999 41.6062 85.9089 42.5466C83.7351 42.9824 81.7534 44.1845 79.7141 45.0184C73.5598 47.5353 67.6414 49.2838 63.8363 55.2267C62.2421 57.7165 61.188 60.3307 61.889 63.3162C62.75 66.9825 65.7257 69.812 68.8315 71.707C73.9417 74.825 80.1135 76.2375 86.0328 76.7076C91.1385 77.1131 96.301 77.0122 101.42 77.0066L123.565 76.9447L190.792 76.8605L295.436 76.8578C315.434 76.8631 335.529 77.2736 355.513 76.6453C361.795 76.4478 375.962 73.3061 378.115 81.6315C379.116 85.5049 378.643 91.2013 378.649 95.2522L378.663 114.888L378.658 199.143L378.689 386.961L378.688 447.202L378.716 466.544C378.722 470.331 378.866 474.183 378.614 477.962C378.495 479.749 378.354 481.291 377.372 482.859C376.276 484.609 374.348 485.899 372.334 486.353C368.61 487.192 364.117 486.779 360.298 486.772L342.474 486.742L273.102 486.742L145.9 486.721L110.297 486.77C103.59 486.781 96.7204 487.085 90.0371 486.513C82.3967 485.859 75.5793 483.59 69.1917 479.282C60.6086 473.494 55.6955 464.176 53.7826 454.174C52.411 447.003 52.3041 439.631 52.3065 432.354L52.1249 432.34C52.4124 416.752 52.142 401.109 52.15 385.515C52.1558 374.398 52.5863 363.146 52.1108 352.042L51.6883 351.834C51.0001 348.309 51.5062 343.727 51.5327 340.089Q51.6587 328.515 51.6346 316.941L51.5679 261.85C51.5372 248.876 51.2656 235.976 51.6699 222.999L51.8337 223.332C51.6719 224.69 51.9037 226.184 52.0798 227.532C52.3571 224.118 52.1963 220.565 52.1921 217.135L52.1656 199.119C52.1557 186.093 52.6297 172.904 52.1014 159.897C51.9959 160.578 51.9362 161.323 51.6953 161.968C50.9325 147.809 51.2164 133.494 51.55 119.32L51.8023 119.117L51.6141 118.455L51.5685 119.043L51.8168 119.112Q51.9178 120.602 52.0753 122.087C52.5151 116.453 51.8797 110.722 52.3218 105.079L52.2838 96.5024Z"/>
	<path fill="#C39334" d="M52.0753 122.087C52.5151 116.453 51.8797 110.722 52.3218 105.079C52.8259 112.16 52.4334 119.509 52.433 126.623L52.4321 168.102L52.4262 290.461L52.4234 330.986C52.4232 337.879 52.2037 344.837 52.4539 351.721C55.1574 354.12 58.7174 355.65 61.8737 357.387C66.8144 360.107 71.8173 362.788 76.6131 365.756C76.6731 365.786 76.7324 365.818 76.7929 365.847C78.0853 366.477 80.0397 366.174 80.6818 367.59L80.4765 368.345C79.9439 368.624 79.8805 368.664 79.2738 368.458C78.3904 368.157 77.5451 367.473 76.8972 366.813L76.2729 366.835C75.7073 367.436 75.3703 367.823 74.4737 367.833C73.4159 367.844 72.2431 367.494 71.2101 367.264C65.85 366.075 61.7069 363.739 57.9743 359.679C55.944 357.47 54.3209 354.982 52.4843 352.623C52.0684 371.846 52.4151 391.158 52.4198 410.392L52.4363 424.844C52.4388 427.242 52.6818 429.994 52.3065 432.354L52.1249 432.34C52.4124 416.752 52.142 401.109 52.15 385.515C52.1558 374.398 52.5863 363.146 52.1108 352.042L51.6883 351.834C51.0001 348.309 51.5062 343.727 51.5327 340.089Q51.6587 328.515 51.6346 316.941L51.5679 261.85C51.5372 248.876 51.2656 235.976 51.6699 222.999L51.8337 223.332C51.6719 224.69 51.9037 226.184 52.0798 227.532C52.3571 224.118 52.1963 220.565 52.1921 217.135L52.1656 199.119C52.1557 186.093 52.6297 172.904 52.1014 159.897C51.9959 160.578 51.9362 161.323 51.6953 161.968C50.9325 147.809 51.2164 133.494 51.55 119.32L51.8023 119.117L51.6141 118.455L51.5685 119.043L51.8168 119.112Q51.9178 120.602 52.0753 122.087Z"/>
	<path fill="#64430A" d="M52.1108 352.042L51.6883 351.834C51.0001 348.309 51.5062 343.727 51.5327 340.089Q51.6587 328.515 51.6346 316.941L51.5679 261.85C51.5372 248.876 51.2656 235.976 51.6699 222.999L51.8337 223.332C51.6719 224.69 51.9037 226.184 52.0798 227.532C52.3024 247.957 52.1114 268.4 52.1179 288.827L52.1108 352.042Z"/>
	<path fill="#64430A" d="M52.1014 159.897C51.9959 160.578 51.9362 161.323 51.6953 161.968C50.9325 147.809 51.2164 133.494 51.55 119.32L51.8023 119.117L51.6141 118.455L51.5685 119.043L51.8168 119.112Q51.9178 120.602 52.0753 122.087C52.2621 134.647 52.4171 147.342 52.1014 159.897Z"/>
	<path fill="#C39334" d="M84.2016 86.9501C85.1401 86.9258 86.4171 86.8455 87.2552 87.3444C87.7883 87.6616 87.9011 88.0269 88.0223 88.6053C88.4608 90.6983 88.2197 93.2836 88.2205 95.4287L88.1862 108.631L88.2118 152.142L88.1617 337.267L88.0937 425.629Q88.2128 441.987 88.0996 458.345C88.095 463.5 88.3364 468.742 88.0989 473.888C88.0713 474.485 88.0061 475.191 87.6112 475.67C87.3289 476.011 87.1762 475.932 86.7635 475.988C86.5753 476.161 86.5454 476.208 86.2925 476.34C85.7114 476.642 85.1458 476.501 84.5748 476.29C83.3838 475.172 83.2302 473.597 83.1677 472.037C82.9781 467.301 83.1873 462.489 83.2083 457.743L83.2136 434.062L83.2569 354.744L83.196 93.2989C83.1972 91.3646 82.8094 88.4465 84.2016 86.9501Z"/>
	<path fill="#C39334" d="M54.4865 128.147C57.7997 128.894 73.9738 138.057 77.0364 140.404C77.682 140.899 77.7747 141.056 77.8699 141.863C77.66 141.899 77.4506 141.941 77.2385 141.96C70.8178 142.536 65.3486 139.888 60.4925 135.899C58.2269 134.037 54.7956 131.248 54.4865 128.147Z"/>
	<path fill="#C39334" d="M54.5335 140.362C55.6632 140.496 58.9177 142.629 60.0482 143.237C63.5083 145.098 66.8916 147.11 70.3796 148.917C72.3042 149.915 74.4115 150.694 76.282 151.769C77.0282 152.198 77.0556 152.457 77.2785 153.235C77.1966 153.265 77.1155 153.297 77.033 153.325C73.6079 154.497 68.2989 153.464 65.0927 151.913C60.4491 149.666 56.2091 145.272 54.5335 140.362Z"/>
	<path fill="#C39334" d="M54.6744 366.268C55.6314 366.542 56.5727 367.238 57.4362 367.743C60.9957 369.825 64.5222 372.044 68.1765 373.953C70.455 375.143 73.0236 376.072 75.1939 377.42C75.8515 377.828 76.3098 378.415 76.7766 379.021C72.6522 378.762 68.4117 379.055 64.5263 377.412C60.1674 375.568 56.4447 370.569 54.6744 366.268Z"/>
	<path fill="#FEFCEF" d="M87.5548 47.2331C92.2839 46.8735 97.1201 47.1053 101.865 47.128L124.582 47.1689L199.672 47.1884L295.651 47.1871L323.703 47.128C329.049 47.1162 334.437 46.9602 339.776 47.2293C340.231 54.5287 341.41 59.222 348.183 62.9388C350.158 64.0228 351.994 64.9053 353.454 66.6761C354.627 68.0979 355.299 69.7599 356.026 71.4359C348.736 71.8768 341.384 71.734 334.082 71.7602L166.646 71.9077L113.423 71.9194C104.164 71.9284 94.5996 72.4956 85.3716 71.7861C80.5737 71.4173 75.7238 70.3019 71.5758 67.7781C68.6743 66.0127 67.1865 64.1599 66.3685 60.8402C66.3954 60.7623 66.4211 60.6841 66.4491 60.6066L66.593 60.2211C66.8206 59.6013 67.0457 59.0165 67.3905 58.4518C68.3481 56.8833 69.9702 55.5225 71.4778 54.5067C74.4653 52.494 84.1941 47.9711 87.5548 47.2331Z"/>
</svg>
