<?xml version="1.0" encoding="utf-8" ?>
<svg xmlns="http://www.w3.org/2000/svg" xmlns:xlink="http://www.w3.org/1999/xlink" viewBox="0 0 1024 1024" >
	<path fill="#0F0E0A" transform="scale(2 2)" d="M376.418 141.443C372.877 141.352 371.901 137.148 371.024 134.384C369.643 130.028 363.078 109.487 366.756 106.792C368.331 106.583 369.949 106.232 371.248 107.43C375.014 110.902 381.443 136.325 376.418 141.443Z"/>
	<path transform="scale(2 2)" d="M147.032 135.488C142.797 132.838 131.486 110.171 139.072 106.792C143.714 107.764 144.187 114.846 145.218 118.627C146.1 121.864 151.893 135.309 147.032 135.488Z"/>
	<path fill="#0F0E0A" transform="scale(2 2)" d="M123.349 145.209C120.02 143.835 98.2152 129.677 96.8695 127.287C95.5349 124.915 96.6225 123.324 98.8605 122.239C104.036 122.323 133.491 142.359 123.349 145.209Z"/>
	<path fill="#0F0E0A" transform="scale(2 2)" d="M400.647 145.209C391.699 150.172 402.375 125.653 411.943 123.015C424.612 122.341 401.563 144.31 400.647 145.209Z"/>
	<path transform="scale(2 2)" d="M63.0357 335.868C44.4951 328.413 48.4524 306.715 49.2114 290.821C50.3173 267.663 55.4731 198.058 66.8177 177.681C76.7221 159.891 94.5325 160.9 112.365 159.518C150.747 156.544 188.971 156.455 227.412 157.183C283.043 158.238 338.771 160.621 394.291 164.387C405.056 165.118 416.065 165.521 426.715 167.324C444.182 170.28 447.855 176.408 452.408 193.229C452.425 202.936 453.512 212.142 453.281 222.205C452.738 245.898 447.098 328.105 429.157 345.915C414.69 360.276 386.385 356.882 367.845 356.865L326.769 356.853C322.242 356.807 317.687 356.307 313.147 356.175L252.211 353.846C211.334 352.106 170.53 349.911 129.768 346.308C111.5 344.694 92.9599 343.702 75.0532 339.499C71.9335 338.767 65.5088 336.121 63.0357 335.868ZM169.554 167.377C150.768 167.479 103.644 167.61 85.7424 172.782C71.6839 176.843 68.8416 204.255 66.904 216.04C64.5412 230.41 53.5579 313.733 62.2249 322.329C70.6137 330.649 107.465 333.668 120.194 334.861L155.244 337.88C191.744 340.682 228.299 342.892 264.88 344.341C288.339 345.27 311.882 345.417 335.312 346.747L335.674 346.719C358.881 345.007 393.18 351.362 414.014 344.174C425.374 340.254 428.127 331.177 431.1 320.541C436.701 300.5 453.905 195.334 437.544 181.516C429.893 175.055 397.078 174.791 387.173 174.166C363.658 172.683 340.145 171.617 316.604 170.649L243.464 168.158C219.774 167.387 193.276 166.426 169.554 167.377Z"/>
	<path fill="#FECA05" transform="scale(2 2)" d="M452.408 193.229C465.978 205.123 463.302 224.341 462.816 241C462.047 267.359 459.53 294.439 454.156 320.248C449.227 343.917 447.242 365.121 419.628 366.663C404.113 367.53 388.889 367.03 373.408 366.699C361.379 366.442 350.298 366.599 338.201 365.998L306.045 364.591C300.91 364.416 295.76 364.69 290.625 364.474C241.196 362.39 191.733 359.637 142.499 354.755C121.101 352.634 79.5608 350.761 63.3798 336.179L63.0357 335.868C65.5088 336.121 71.9335 338.767 75.0532 339.499C92.9599 343.702 111.5 344.694 129.768 346.308C170.53 349.911 211.334 352.106 252.211 353.846L313.147 356.175C317.687 356.307 322.242 356.807 326.769 356.853L367.845 356.865C386.385 356.882 414.69 360.276 429.157 345.915C447.098 328.105 452.738 245.898 453.281 222.205C453.512 212.142 452.425 202.936 452.408 193.229Z"/>
	<path fill="#FECA05" transform="scale(2 2)" d="M392.028 206.239C362.977 209.469 365.239 209.214 359.945 236.17C356.763 252.369 350.841 275.722 354.363 292.171C350.525 292.567 346.748 293.767 342.955 294.084C337.369 283.795 329.163 274.502 324.581 263.71C333.936 260.731 342.104 255.437 346.767 246.531C365.43 210.892 319.66 193.128 307.39 218.89C299.083 236.329 296.716 282.367 295.518 301.786C287.426 302.371 262.046 307.582 256.734 307.044C273.385 297.618 281.246 286.271 286.469 267.385C291.98 247.454 286.962 218.968 264.004 212.839C215.814 199.972 191.317 297.603 235.718 308.556C237.598 309.02 239.649 309.063 241.465 309.664C231.874 311.761 222.182 313.106 212.501 314.705L185.85 318.844C176.241 320.352 166.719 321.71 157.081 322.932C134.824 325.756 110.471 333.444 94.4281 312.403C79.0067 292.176 93.27 265.865 111.017 252.614C122.968 258.455 141.657 261.646 144.376 275.788C149.936 304.703 105.902 319.276 106.768 289.375C106.866 285.988 108.091 280.65 104.664 278.416C90.6715 269.289 85.908 304.563 106.876 315.883C133.791 330.412 165.863 300.145 156.364 268.883C150.841 250.708 133.922 249.592 119.857 242.115C130.377 232.455 156.365 222.677 169.82 219.447C172.863 218.716 183.603 216.921 185.322 216.053C181.852 226.918 180.337 263.777 179.198 277.199L177.966 292.434C177.611 296.455 175.768 303.857 178.693 307.286C182.486 311.731 189.202 308.601 190.228 303.497C190.851 300.399 190.864 296.917 191.123 293.753L192.764 273.882C194.583 253.718 196.933 233.487 198.073 213.276C204.729 213.132 222.128 213.596 225.394 207.065C225.618 207.131 298.28 201.62 305.055 201.177L360.162 197.111C372.569 196.194 387.496 191.394 392.028 206.239Z"/>
	<path transform="scale(2 2)" d="M225.394 207.065C222.128 213.596 204.729 213.132 198.073 213.276C196.933 233.487 194.583 253.718 192.764 273.882L191.123 293.753C190.864 296.917 190.851 300.399 190.228 303.497C189.202 308.601 182.486 311.731 178.693 307.286C175.768 303.857 177.611 296.455 177.966 292.434L179.198 277.199C180.337 263.777 181.852 226.918 185.322 216.053C179.077 214.661 164.713 218.972 160.494 215.265C158.918 213.88 158.784 210.627 160.34 209.171C164.219 205.541 212.8 200.838 219.016 200.812C223.594 200.793 225.567 202.36 225.394 207.065Z"/>
	<path transform="scale(2 2)" d="M111.017 252.614C89.7256 238.554 96.9285 210.944 118.257 203.336C141.454 195.062 157.96 220.113 143.065 224.355C136.864 226.121 136.133 218.476 132.084 216.212C120.105 209.513 100.053 231.917 119.857 242.115C133.922 249.592 150.841 250.708 156.364 268.883C165.863 300.145 133.791 330.412 106.876 315.883C85.908 304.563 90.6715 269.289 104.664 278.416C108.091 280.65 106.866 285.988 106.768 289.375C105.902 319.276 149.936 304.703 144.376 275.788C141.657 261.646 122.968 258.455 111.017 252.614Z"/>
	<path transform="scale(2 2)" d="M354.363 292.171C350.841 275.722 356.763 252.369 359.945 236.17C365.239 209.214 362.977 209.469 392.028 206.239C395.076 206.189 399.301 205.581 401.707 207.79C409.367 214.822 399.448 219.692 392.957 220.823C387.431 220.557 381.946 221.543 376.418 221.586C374.227 231.587 371.749 241.742 370.349 251.893C377.611 250.336 384.695 248.543 392.028 247.273C396.452 246.486 404.715 244.599 405.802 251.117C407.304 260.129 393.468 260.921 387.587 261.933C381.032 263.062 374.19 264.394 367.906 266.61C366.949 272.275 365.36 287.469 368.647 292.004C374.534 300.129 397.94 280.663 404.76 288.752C413.725 299.386 383.105 305.782 377.973 306.506C366.893 308.069 356.717 303.712 354.363 292.171Z"/>
	<path transform="scale(2 2)" d="M324.581 263.71C329.163 274.502 337.369 283.795 342.955 294.084C345.344 299.689 343.282 307.229 335.995 303.713C332.97 302.253 330.59 298.767 328.454 296.231C321.583 285.572 316.941 275.934 310.684 265.438C310.043 275.96 308.49 289.943 308.738 300.107C308.143 303.471 307.718 308.795 304.753 310.873C297.514 315.946 295.3 307.489 295.518 301.786C296.716 282.367 299.083 236.329 307.39 218.89C319.66 193.128 365.43 210.892 346.767 246.531C342.104 255.437 333.936 260.731 324.581 263.71ZM325.631 218.593C320.178 219.132 316.142 221.475 311.485 224.171L311.47 243.775C311.46 246.944 311.146 250.237 311.485 253.384C314.535 252.966 317.54 252.163 320.602 251.893C341.197 242.94 341.376 218.62 325.631 218.593Z"/>
	<path transform="scale(2 2)" d="M256.734 307.044C251.592 308.732 246.925 309.751 241.465 309.664C239.649 309.063 237.598 309.02 235.718 308.556C191.317 297.603 215.814 199.972 264.004 212.839C286.962 218.968 291.98 247.454 286.469 267.385C281.246 286.271 273.385 297.618 256.734 307.044ZM250.187 223.281C224.448 229.825 212.197 305.383 250.187 294.87C281.678 281.775 284.669 220.881 250.187 223.281Z"/>
	<path fill="#FECA05" transform="scale(2 2)" d="M311.485 224.171C316.142 221.475 320.178 219.132 325.631 218.593C341.376 218.62 341.197 242.94 320.602 251.893C317.54 252.163 314.535 252.966 311.485 253.384C311.146 250.237 311.46 246.944 311.47 243.775L311.485 224.171Z"/>
	<path fill="#FECA05" transform="scale(2 2)" d="M376.418 221.586C381.946 221.543 387.431 220.557 392.957 220.823C392.974 229.49 393.338 238.698 392.028 247.273C384.695 248.543 377.611 250.336 370.349 251.893C371.749 241.742 374.227 231.587 376.418 221.586Z"/>
	<path fill="#FECA05" transform="scale(2 2)" d="M250.187 294.87C212.197 305.383 224.448 229.825 250.187 223.281C284.669 220.881 281.678 281.775 250.187 294.87Z"/>
	<path fill="#FECA05" transform="scale(2 2)" d="M328.454 296.231C322.366 297.33 314.435 298.126 308.738 300.107C308.49 289.943 310.043 275.96 310.684 265.438C316.941 275.934 321.583 285.572 328.454 296.231Z"/>
	<path fill="#0F0E0A" transform="scale(2 2)" d="M83.2362 390.016C73.9526 389.219 93.454 372.632 94.4281 371.676C98.2093 367.963 102.128 362.562 107.083 360.416C117.109 362.244 91.1776 387.517 83.2362 390.016Z"/>
	<path fill="#0F0E0A" transform="scale(2 2)" d="M134.938 404.391C125.791 400.851 129.66 374.319 133.893 370.771C135.05 370.633 136.646 370.38 137.079 371.804C137.808 374.204 139.159 393.855 139.154 397.23C139.15 400.894 138.822 403.252 134.938 404.391Z"/>
</svg>
