<?xml version="1.0" encoding="utf-8" ?>
<svg xmlns="http://www.w3.org/2000/svg" xmlns:xlink="http://www.w3.org/1999/xlink" width="199" height="175">
	<path fill="#28292D" transform="scale(1.16867 1.16867)" d="M40.9498 18.0631C42.9262 17.9635 44.6413 18.098 46.549 18.6594C54.7842 21.0829 67.9989 33.1072 72.0072 40.447C79.4982 36.9425 92.9477 37.6619 100.735 40.1032Q103.399 35.9614 106.743 32.3471C111.895 26.8841 121.568 18.2041 129.502 18.0157C131.943 17.9577 134.246 18.6881 136.017 20.4083C143.449 27.6284 142.549 50.6576 141.304 60.2981C140.987 62.7586 139.208 66.8954 139.556 69.1579C139.843 71.0189 141.972 73.4214 142.941 75.1267C146.71 81.7613 149.53 89.5228 149.656 97.2202C149.804 106.268 146.281 114.438 140.024 120.917Q138.78 122.127 137.461 123.256Q136.142 124.384 134.754 125.426Q133.365 126.467 131.913 127.418Q130.461 128.368 128.951 129.224Q127.441 130.08 125.879 130.837Q124.317 131.594 122.71 132.25Q121.103 132.906 119.457 133.457Q117.812 134.009 116.134 134.454C98.0126 139.124 72.116 139.25 54.2206 133.249C50.0638 131.855 46.1861 129.911 42.4195 127.68C34.4833 122.977 26.9495 114.887 24.6322 105.764C21.3525 92.8523 26.075 81.4411 32.6155 70.4722C32.1623 66.4034 31.144 62.4184 30.7385 58.3351C29.8104 48.9899 29.7387 30.015 35.1377 22.0461C36.6228 19.8541 38.3566 18.5684 40.9498 18.0631Z"/>
	<path fill="#F2B269" transform="scale(1.16867 1.16867)" d="M41.9392 23.7683C47.9153 23.8245 56.2685 31.6842 60.2272 35.7153C63.7885 39.3417 66.8783 43.167 69.1439 47.7379C78.632 43.574 91.3645 42.7424 101.113 46.5337C101.966 46.8657 102.753 47.2717 103.53 47.7533C104.906 45.1395 106.311 42.6302 108.095 40.2696C112.533 34.394 121.037 26.4625 128.188 24.2544C129.073 23.9811 130.038 23.8451 130.962 23.9772C135.108 27.6553 135.61 34.6765 135.92 39.8875C136.34 46.9668 136.421 64.088 132.251 69.527C138.362 78.5211 143.901 87.8785 143.569 99.1262C142.434 108.641 139.191 114.433 131.603 120.406C116.539 132.266 91.9994 134.094 73.5152 131.872C59.9137 130.236 44.1736 125.261 35.3958 114.039Q34.768 113.251 34.2047 112.415Q33.6415 111.58 33.1465 110.702Q32.6515 109.825 32.2277 108.911Q31.804 107.996 31.4543 107.052Q31.1046 106.107 30.8311 105.137Q30.5576 104.167 30.362 103.179Q30.1664 102.19 30.0501 101.189Q29.9337 100.189 29.8972 99.1816C29.8926 99.167 29.8868 99.1527 29.8833 99.1378C29.5459 97.6979 29.6991 95.6874 29.855 94.2154C30.7944 85.3443 35.2925 78.0107 39.7377 70.5151C35.7703 62.0956 35.9293 47.576 36.7735 38.305C37.2213 33.3873 37.9273 27.111 41.9392 23.7683Z"/>
	<path fill="#FBECD3" transform="scale(1.16867 1.16867)" d="M78.4197 93.8211C84.0613 92.6402 90.3607 91.9933 95.9108 93.9679C96.5201 93.6439 96.8435 93.7783 97.4886 93.9781C100.94 95.047 104.165 96.7641 107.582 97.9296C119.082 101.853 131.928 103.146 143.569 99.1262C142.434 108.641 139.191 114.433 131.603 120.406C116.539 132.266 91.9994 134.094 73.5152 131.872C59.9137 130.236 44.1736 125.261 35.3958 114.039Q34.768 113.251 34.2047 112.415Q33.6415 111.58 33.1465 110.702Q32.6515 109.825 32.2277 108.911Q31.804 107.996 31.4543 107.052Q31.1046 106.107 30.8311 105.137Q30.5576 104.167 30.362 103.179Q30.1664 102.19 30.0501 101.189Q29.9337 100.189 29.8972 99.1816L30.0323 98.9027C30.7965 98.6134 34.4667 100.281 35.5193 100.566C38.106 101.266 40.9723 101.473 43.6434 101.506C52.1736 101.612 60.8264 100.633 68.8881 97.6722C71.7248 96.6305 74.4715 95.2082 77.2548 94.0206C77.6835 93.8376 77.9502 93.7617 78.4197 93.8211Z"/>
	<path fill="#28292D" transform="scale(1.16867 1.16867)" d="M78.4197 93.8211C84.0613 92.6402 90.3607 91.9933 95.9108 93.9679C96.0479 94.8951 96.1551 95.784 95.8931 96.7001C95.0374 99.6922 91.6368 101.946 89.0466 103.376C89.1374 104.956 89.0563 106.615 90.1661 107.877C92.9478 111.038 98.082 105.875 101.374 106.062C102.006 106.38 102.277 106.504 102.538 107.214C102.76 107.819 102.863 108.796 102.557 109.372C101.472 111.416 97.5951 112.889 95.4225 113.544C92.2225 114.51 90.174 113.912 87.266 112.342C85.7073 113.068 83.9356 113.78 82.2089 113.902C79.6027 114.085 74.3646 111.869 72.3974 110.14C72.0256 109.813 71.5341 109.335 71.5152 108.813C71.4863 108.012 71.6446 106.911 72.2199 106.319C73.6816 104.815 79.8732 108.715 82.1257 108.732C82.9416 108.739 83.6666 108.515 84.249 107.924C85.4999 106.656 85.3134 104.878 85.3188 103.244C83.2907 101.922 81.0346 100.349 79.62 98.3628C78.6044 96.937 78.1387 95.5558 78.4197 93.8211Z"/>
	<path fill="#EC8957" transform="scale(1.16867 1.16867)" d="M39.7377 70.5151C35.7703 62.0956 35.9293 47.576 36.7735 38.305C37.2213 33.3873 37.9273 27.111 41.9392 23.7683C43.5402 27.6913 46.5089 31.2685 48.589 34.98C51.952 40.9809 54.4724 47.0729 57.0812 53.4182C51.105 57.9845 43.63 64.0092 39.7377 70.5151Z"/>
	<path fill="#EC8957" transform="scale(1.16867 1.16867)" d="M130.962 23.9772C135.108 27.6553 135.61 34.6765 135.92 39.8875C136.34 46.9668 136.421 64.088 132.251 69.527C132.003 68.911 130.927 67.892 130.477 67.3411C126.357 62.289 121.706 56.927 116.055 53.572C117.102 50.75 118.525 47.9853 119.773 45.2435C121.524 41.3989 123.207 37.4301 125.252 33.7316C127.08 30.4249 129.574 27.5274 130.962 23.9772Z"/>
	<path fill="#28292D" transform="scale(1.16867 1.16867)" d="M108.297 76.4944C108.322 76.4944 108.347 76.4939 108.373 76.4945C108.823 76.5039 109.3 76.4971 109.741 76.6011C110.91 76.8768 112.07 77.9839 112.694 78.9708C114.234 81.4095 114.449 84.9208 113.824 87.6747C113.279 90.0714 112.143 92.1618 110.042 93.4983C109.502 93.4789 108.895 93.4044 108.376 93.2511C106.976 92.8376 105.842 91.6083 105.172 90.3579C103.758 87.7219 103.623 84.0672 104.505 81.2462C105.19 79.0544 106.254 77.5536 108.297 76.4944Z"/>
	<path fill="#28292D" transform="scale(1.16867 1.16867)" d="M64.028 76.4536C64.0934 76.4534 64.1587 76.4532 64.224 76.4555C64.7277 76.4733 65.2826 76.4717 65.7681 76.6202C67.0653 77.017 68.1435 78.2064 68.7637 79.3702C70.1826 82.0327 70.2892 85.6388 69.4113 88.486C68.7648 90.5828 67.7255 92.2767 65.7565 93.3192C65.2612 93.3257 64.7436 93.3424 64.2533 93.2652C63.2103 93.101 62.0125 92.0617 61.4085 91.2199C59.8295 89.0191 59.5124 85.4203 59.9577 82.8201C60.4352 80.0322 61.7412 78.0585 64.028 76.4536Z"/>
</svg>
