<?xml version="1.0" encoding="utf-8" ?>
<svg xmlns="http://www.w3.org/2000/svg" xmlns:xlink="http://www.w3.org/1999/xlink" width="744" height="602">
	<path transform="scale(3.95793 3.95793)" d="M116.469 20.5751C120.434 20.2185 124.627 21.1526 127.946 23.3846Q128.707 23.8929 129.414 24.4744Q130.12 25.0559 130.765 25.7048Q131.411 26.3537 131.988 27.0636Q132.565 27.7735 133.069 28.5373Q133.573 29.3011 133.999 30.1113Q134.424 30.9214 134.767 31.7699Q135.11 32.6184 135.366 33.4968Q135.623 34.3752 135.791 35.2747C136.581 39.4591 135.316 43.9316 132.917 47.3936C129.666 52.0851 124.908 54.3701 119.452 55.3451C120.098 59.4402 119.602 64.5713 119.598 68.7767Q119.508 82.92 119.761 97.0607C121.926 97.3099 124 97.8485 125.989 98.7402C130.412 100.722 134.366 104.464 136.106 109.045C137.87 113.69 137.782 119.878 135.761 124.368C133.61 129.146 129.915 132.402 125.056 134.244Q124.192 134.578 123.299 134.825Q122.406 135.072 121.493 135.229Q120.58 135.386 119.656 135.451Q118.731 135.517 117.805 135.49Q116.879 135.463 115.96 135.344Q115.042 135.225 114.139 135.016Q113.237 134.806 112.359 134.508Q111.482 134.21 110.639 133.826C106.057 131.743 102.341 128.172 100.587 123.389C98.4731 117.622 99.449 110.747 101.989 105.302C99.2025 103.871 96.5169 101.639 93.9008 99.8614C89.061 96.798 84.3875 93.4657 79.6512 90.2448C74.1397 86.4967 68.5561 82.8478 63.3622 78.6618C58.7596 82.0483 53.4817 83.2743 47.8668 82.4602C42.8237 81.729 38.1752 78.6625 35.1588 74.5951C31.9335 70.2462 30.9472 65.4082 31.7625 60.114C32.4757 55.4827 35.2341 51.2421 39.0062 48.4959C43.4364 45.2705 48.7381 43.9835 54.1476 44.8718C60.3741 45.8943 64.5552 49.5065 68.1263 54.4677C75.7696 52.0504 83.3319 48.7117 90.775 45.7106C93.9047 44.4488 97.4492 42.5252 100.762 41.9725C100.652 37.0924 101.413 32.1095 104.255 27.997C107.294 23.5978 111.333 21.508 116.469 20.5751ZM69.1427 57.6235C70.6733 62.6843 70.733 67.5775 68.1521 72.3558C67.3657 73.8117 66.4133 75.0531 65.2231 76.1982C69.8382 79.1897 74.2633 82.5135 78.8156 85.6071C82.3011 87.9758 86.1013 90.1778 89.4238 92.739C94.214 96.0019 98.9617 99.7133 103.974 102.606C108.027 99.6942 111.93 97.4175 117.105 97.4036C116.346 93.4584 116.721 88.9124 116.69 84.8823Q116.562 74.0447 116.548 63.2062C116.549 61.5314 116.951 56.8762 116.381 55.4639C110.778 53.1563 108.007 52.71 104.132 47.6084C103.504 46.782 102.734 45.0419 101.937 44.4713C99.064 47.2123 74.947 54.444 69.1427 57.6235Z"/>
	<path fill="#F1A561" transform="scale(3.95793 3.95793)" d="M114.601 100.38Q114.985 100.305 115.372 100.249Q115.759 100.193 116.149 100.156Q116.538 100.118 116.929 100.1Q117.32 100.082 117.711 100.083Q118.103 100.085 118.493 100.105Q118.884 100.125 119.273 100.164Q119.662 100.204 120.049 100.262Q120.436 100.321 120.82 100.398Q121.203 100.475 121.583 100.571Q121.962 100.667 122.336 100.781Q122.71 100.895 123.078 101.028Q123.447 101.16 123.808 101.311Q124.169 101.461 124.522 101.629Q124.876 101.797 125.221 101.982Q125.565 102.167 125.901 102.368Q126.236 102.57 126.561 102.788Q126.886 103.006 127.2 103.239Q127.514 103.472 127.816 103.721Q128.118 103.969 128.408 104.232Q128.698 104.495 128.974 104.772Q129.251 105.049 129.513 105.339Q129.776 105.629 130.024 105.932Q130.272 106.234 130.505 106.549Q130.738 106.863 130.955 107.188Q131.172 107.514 131.374 107.849Q131.575 108.185 131.759 108.53Q131.944 108.875 132.111 109.229Q132.278 109.582 132.428 109.944Q132.578 110.305 132.71 110.673Q132.842 111.042 132.956 111.416Q133.07 111.79 133.165 112.17Q133.26 112.549 133.337 112.933Q133.414 113.317 133.471 113.704Q133.529 114.091 133.568 114.48Q133.607 114.869 133.627 115.26Q133.646 115.651 133.647 116.042Q133.647 116.433 133.629 116.824Q133.61 117.215 133.572 117.604Q133.535 117.993 133.478 118.381Q133.421 118.768 133.346 119.152Q133.27 119.535 133.176 119.915Q133.082 120.295 132.969 120.669Q132.856 121.044 132.725 121.413Q132.594 121.781 132.446 122.143Q132.297 122.505 132.13 122.859Q131.964 123.213 131.781 123.559Q131.597 123.904 131.397 124.241Q131.197 124.577 130.98 124.903Q130.764 125.229 130.532 125.544Q130.3 125.859 130.053 126.162Q129.806 126.465 129.544 126.756Q129.282 127.047 129.006 127.324Q128.731 127.602 128.442 127.866Q128.153 128.13 127.852 128.379Q127.55 128.628 127.237 128.863Q126.923 129.097 126.599 129.316Q126.275 129.534 125.94 129.737Q125.605 129.939 125.261 130.125Q124.917 130.311 124.564 130.48Q124.211 130.649 123.85 130.8Q123.489 130.952 123.122 131.085Q122.754 131.219 122.38 131.334Q122.006 131.45 121.627 131.547Q121.248 131.644 120.865 131.722Q120.48 131.801 120.091 131.86Q119.702 131.92 119.311 131.961Q118.919 132.001 118.526 132.022Q118.134 132.044 117.74 132.045Q117.347 132.047 116.954 132.03Q116.561 132.012 116.169 131.975Q115.778 131.939 115.388 131.883Q114.999 131.827 114.613 131.751Q114.227 131.676 113.845 131.582Q113.463 131.488 113.086 131.375Q112.709 131.263 112.338 131.132Q111.967 131 111.603 130.851Q111.239 130.702 110.883 130.535Q110.527 130.368 110.179 130.184Q109.831 130 109.493 129.798Q109.155 129.597 108.828 129.38Q108.5 129.162 108.183 128.929Q107.866 128.695 107.562 128.447Q107.257 128.198 106.965 127.935Q106.673 127.671 106.394 127.394Q106.115 127.116 105.85 126.825Q105.585 126.535 105.335 126.231Q105.084 125.927 104.849 125.612Q104.614 125.297 104.395 124.97Q104.176 124.643 103.973 124.306Q103.77 123.969 103.584 123.623Q103.398 123.276 103.229 122.921Q103.061 122.565 102.91 122.202Q102.758 121.839 102.625 121.469Q102.492 121.098 102.378 120.722Q102.263 120.346 102.167 119.964Q102.071 119.583 101.994 119.197Q101.917 118.811 101.859 118.422Q101.801 118.033 101.762 117.642Q101.723 117.25 101.704 116.857Q101.684 116.464 101.684 116.071Q101.684 115.677 101.703 115.284Q101.722 114.892 101.761 114.5Q101.799 114.109 101.857 113.719Q101.915 113.33 101.992 112.944Q102.068 112.559 102.164 112.177Q102.26 111.795 102.374 111.419Q102.488 111.043 102.621 110.672Q102.754 110.302 102.905 109.939Q103.056 109.575 103.224 109.22Q103.393 108.864 103.578 108.517Q103.764 108.171 103.967 107.833Q104.169 107.496 104.388 107.169Q104.607 106.843 104.842 106.527Q105.077 106.211 105.327 105.908Q105.577 105.604 105.842 105.313Q106.106 105.022 106.385 104.744Q106.664 104.466 106.956 104.203Q107.248 103.939 107.552 103.69Q107.857 103.441 108.173 103.208Q108.49 102.974 108.818 102.756Q109.145 102.538 109.483 102.337Q109.821 102.135 110.168 101.951Q110.516 101.766 110.872 101.599Q111.228 101.432 111.592 101.282Q111.956 101.133 112.327 101.002Q112.697 100.87 113.074 100.757Q113.451 100.644 113.833 100.55Q114.215 100.455 114.601 100.38Z"/>
	<path fill="#F1A561" transform="scale(3.95793 3.95793)" d="M47.9641 48.0375Q48.3461 47.9723 48.7309 47.9259Q49.1156 47.8794 49.5022 47.8519Q49.8888 47.8244 50.2762 47.8159Q50.6637 47.8073 51.0511 47.8178Q51.4385 47.8283 51.8249 47.8577Q52.2114 47.8871 52.5959 47.9355Q52.9804 47.9838 53.3621 48.0509Q53.7438 48.118 54.1217 48.2037Q54.4997 48.2895 54.873 48.3936Q55.2463 48.4978 55.614 48.6201Q55.9818 48.7424 56.3431 48.8826Q56.7044 49.0228 57.0584 49.1805Q57.4124 49.3382 57.7582 49.5131Q58.1041 49.688 58.4409 49.8796Q58.7778 50.0712 59.1049 50.2791Q59.4319 50.487 59.7484 50.7107Q60.0649 50.9343 60.3701 51.1733Q60.6752 51.4122 60.9683 51.6657Q61.2614 51.9193 61.5417 52.1869Q61.822 52.4546 62.0888 52.7356Q62.3557 53.0166 62.6084 53.3104Q62.8612 53.6042 63.0993 53.91Q63.3373 54.2158 63.5601 54.5329Q63.7829 54.85 63.9899 55.1777Q64.1969 55.5053 64.3876 55.8427Q64.5782 56.1801 64.7522 56.5264Q64.9261 56.8728 65.0828 57.2272Q65.2396 57.5817 65.3788 57.9433Q65.5179 58.305 65.6392 58.6731Q65.7605 59.0412 65.8636 59.4148Q65.9668 59.7883 66.0515 60.1665Q66.1361 60.5447 66.2022 60.9266Q66.2682 61.3085 66.3155 61.6931Q66.3628 62.0778 66.3911 62.4643Q66.4195 62.8508 66.4289 63.2382Q66.4383 63.6257 66.4287 64.0131Q66.4191 64.4005 66.3905 64.787Q66.3619 65.1735 66.3144 65.5581Q66.2669 65.9428 66.2006 66.3246Q66.1344 66.7064 66.0495 67.0846Q65.9646 67.4627 65.8612 67.8362Q65.7579 68.2097 65.6364 68.5777Q65.5149 68.9457 65.3755 69.3073Q65.2361 69.669 65.0792 70.0233Q64.9222 70.3777 64.7481 70.7239Q64.574 71.0701 64.3831 71.4074Q64.1922 71.7447 63.9851 72.0722Q63.7779 72.3997 63.5549 72.7167Q63.332 73.0337 63.0937 73.3394Q62.8555 73.645 62.6026 73.9387Q62.3496 74.2323 62.0826 74.5132Q61.8156 74.7941 61.5352 75.0615Q61.2547 75.329 60.9615 75.5824Q60.6683 75.8358 60.363 76.0745Q60.0577 76.3133 59.7411 76.5368Q59.4245 76.7602 59.0973 76.968Q58.7701 77.1757 58.4331 77.3671Q58.0961 77.5585 57.7502 77.7332Q57.4043 77.9079 57.0502 78.0654Q56.6961 78.2229 56.3347 78.3629Q55.9733 78.5029 55.6055 78.625Q55.2377 78.7471 54.8644 78.851Q54.491 78.955 54.113 79.0405Q53.735 79.126 53.3533 79.1929Q52.9705 79.26 52.5849 79.3082Q52.1992 79.3564 51.8117 79.3855Q51.4241 79.4147 51.0356 79.4248Q50.6471 79.435 50.2586 79.426Q49.8701 79.417 49.4825 79.3889Q49.0948 79.3608 48.7091 79.3137Q48.3233 79.2666 47.9403 79.2007Q47.5573 79.1347 47.178 79.05Q46.7987 78.9652 46.4241 78.862Q46.0494 78.7587 45.6803 78.6372Q45.3111 78.5156 44.9484 78.3761Q44.5857 78.2366 44.2303 78.0794Q43.8748 77.9222 43.5276 77.7477Q43.1803 77.5732 42.842 77.3819Q42.5037 77.1906 42.1752 76.9829Q41.8468 76.7752 41.5289 76.5516Q41.211 76.328 40.9045 76.0891Q40.598 75.8501 40.3036 75.5964Q40.0092 75.3427 39.7277 75.0748Q39.4461 74.8069 39.1781 74.5255Q38.91 74.2442 38.6561 73.9499Q38.4022 73.6557 38.163 73.3494Q37.9239 73.043 37.7 72.7253Q37.4762 72.4076 37.2683 72.0793Q37.0604 71.7509 36.8688 71.4128Q36.6773 71.0746 36.5026 70.7275Q36.3279 70.3803 36.1705 70.025Q36.0131 69.6697 35.8733 69.307Q35.7335 68.9444 35.6117 68.5754Q35.4899 68.2063 35.3864 67.8317Q35.2829 67.4571 35.1979 67.0779Q35.1129 66.6986 35.0467 66.3157Q34.9805 65.9327 34.9331 65.547Q34.8858 65.1613 34.8574 64.7737Q34.8291 64.3861 34.8199 63.9975Q34.8106 63.609 34.8204 63.2205Q34.8303 62.832 34.8592 62.4445Q34.8882 62.0569 34.9361 61.6712Q34.984 61.2856 35.0508 60.9027Q35.1177 60.5199 35.2032 60.1408Q35.2888 59.7617 35.3929 59.3872Q35.497 59.0128 35.6193 58.6439Q35.7417 58.2751 35.882 57.9126Q36.0223 57.5502 36.1803 57.1952Q36.3383 56.8401 36.5135 56.4932Q36.6887 56.1463 36.8808 55.8084Q37.0728 55.4706 37.2813 55.1426Q37.4897 54.8145 37.714 54.4972Q37.9383 54.1798 38.1779 53.8738Q38.4175 53.5678 38.6719 53.274Q38.9262 52.9802 39.1947 52.6992Q39.4632 52.4182 39.7452 52.1508Q40.0272 51.8833 40.322 51.6301Q40.6167 51.3768 40.9236 51.1383Q41.2305 50.8999 41.5487 50.6767Q41.8669 50.4536 42.1957 50.2464Q42.5245 50.0392 42.863 49.8484Q43.2016 49.6576 43.5491 49.4837Q43.8967 49.3098 44.2523 49.1531Q44.608 48.9965 44.971 48.8575Q45.3339 48.7185 45.7032 48.5975Q46.0725 48.4766 46.4474 48.3739Q46.8222 48.2712 47.2016 48.187Q47.581 48.1029 47.9641 48.0375Z"/>
	<path fill="#F1A561" transform="scale(3.95793 3.95793)" d="M115.131 24.3689Q115.571 24.2762 116.016 24.2126Q116.461 24.1491 116.909 24.115Q117.358 24.081 117.807 24.0765Q118.257 24.0721 118.706 24.0973Q119.154 24.1226 119.601 24.1773Q120.047 24.2321 120.489 24.3161Q120.93 24.4002 121.365 24.5132Q121.8 24.6262 122.227 24.7676Q122.654 24.909 123.07 25.0783Q123.487 25.2476 123.891 25.4439Q124.296 25.6403 124.686 25.8628Q125.077 26.0854 125.452 26.3333Q125.827 26.5811 126.185 26.8532Q126.543 27.1252 126.882 27.4203Q127.222 27.7153 127.541 28.0321Q127.86 28.3489 128.157 28.686Q128.454 29.0231 128.729 29.3791Q129.004 29.7351 129.254 30.1084Q129.505 30.4818 129.73 30.8708Q129.955 31.2598 130.155 31.6629Q130.354 32.0659 130.526 32.4812Q130.698 32.8965 130.843 33.3222Q130.987 33.748 131.103 34.1823Q131.219 34.6166 131.306 35.0577Q131.393 35.4987 131.451 35.9446Q131.509 36.3904 131.538 36.8391Q131.566 37.2878 131.565 37.7374Q131.564 38.1869 131.533 38.6355Q131.502 39.084 131.441 39.5295Q131.381 39.975 131.291 40.4155Q131.202 40.8561 131.083 41.2898Q130.965 41.7235 130.818 42.1484Q130.671 42.5733 130.497 42.9877Q130.322 43.402 130.121 43.8039Q129.919 44.2058 129.692 44.5936Q129.464 44.9814 129.212 45.3533Q128.959 45.7252 128.683 46.0797Q128.406 46.4341 128.107 46.7696Q127.807 47.1051 127.487 47.4201Q127.166 47.7351 126.825 48.0282Q126.484 48.3214 126.125 48.5914Q125.765 48.8615 125.389 49.1073Q125.012 49.353 124.62 49.5734Q124.229 49.7938 123.823 49.9879Q123.418 50.1821 123 50.349Q122.583 50.5159 122.155 50.655Q121.728 50.7941 121.292 50.9046Q120.856 51.0152 120.414 51.0968Q120.088 51.157 119.759 51.2013Q119.43 51.2456 119.1 51.2738Q118.769 51.302 118.438 51.3141Q118.106 51.3262 117.774 51.3221Q117.443 51.318 117.111 51.2978Q116.78 51.2776 116.45 51.2413Q116.121 51.205 115.793 51.1527Q115.466 51.1004 115.141 51.0322Q114.816 50.9641 114.495 50.8801Q114.174 50.7962 113.858 50.6968Q113.541 50.5974 113.23 50.4826Q112.919 50.3679 112.613 50.2382Q112.308 50.1085 112.009 49.964Q111.711 49.8196 111.419 49.6607Q111.128 49.5019 110.845 49.3291Q110.562 49.1563 110.287 48.97Q110.013 48.7836 109.748 48.584Q109.483 48.3845 109.228 48.1724Q108.973 47.9602 108.728 47.7358Q108.484 47.5115 108.251 47.2755Q108.017 47.0395 107.796 46.7925Q107.575 46.5454 107.365 46.2879Q107.156 46.0304 106.96 45.763Q106.764 45.4956 106.581 45.2189Q106.397 44.9423 106.228 44.657Q106.059 44.3718 105.903 44.0787Q105.748 43.7855 105.607 43.4852Q105.466 43.1848 105.34 42.878Q105.214 42.5711 105.103 42.2585Q104.992 41.9459 104.896 41.6282Q104.801 41.3105 104.72 40.9886Q104.64 40.6667 104.576 40.3412Q104.512 40.0157 104.463 39.6875Q104.415 39.3593 104.382 39.0292Q104.35 38.699 104.334 38.3676Q104.318 38.0363 104.317 37.7045Q104.317 37.3728 104.333 37.0414Q104.349 36.71 104.382 36.3799Q104.414 36.0497 104.462 35.7214Q104.51 35.3932 104.574 35.0677Q104.638 34.7422 104.718 34.4202Q104.798 34.0982 104.893 33.7804Q104.989 33.4627 105.1 33.15Q105.21 32.8373 105.336 32.5304Q105.462 32.2234 105.603 31.923Q105.743 31.6225 105.899 31.3293Q106.054 31.036 106.223 30.7506Q106.392 30.4653 106.575 30.1885Q106.758 29.9117 106.954 29.6442Q107.15 29.3766 107.359 29.119Q107.568 28.8613 107.789 28.6141Q108.011 28.3669 108.244 28.1307Q108.477 27.8946 108.721 27.67Q108.965 27.4455 109.22 27.2331Q109.475 27.0208 109.74 26.8211Q110.005 26.6213 110.279 26.4348Q110.553 26.2482 110.836 26.0752Q111.119 25.9022 111.411 25.7431Q111.702 25.5841 112 25.4395Q112.299 25.2948 112.604 25.1648Q112.909 25.0349 113.221 24.9199Q113.532 24.805 113.848 24.7053Q114.165 24.6056 114.485 24.5215Q114.806 24.4373 115.131 24.3689Z"/>
</svg>
