<?xml version="1.0" encoding="utf-8" ?>
<svg xmlns="http://www.w3.org/2000/svg" xmlns:xlink="http://www.w3.org/1999/xlink" width="1172" height="219">
	<path fill="#ECCDB5" d="M663.039 17.4394C670.811 15.9886 695.197 17.0686 704.787 17.0934C705.029 17.2677 705.24 17.4546 705.419 17.6948C708.559 21.9085 717.833 47.8644 720.362 54.2122C731.034 80.9977 742.737 107.758 752.418 134.905C752.716 135.742 752.792 136.458 752.689 137.342C752.752 137.269 752.815 137.197 752.875 137.122C756.438 132.704 770.513 94.2893 774.107 85.2202C782.748 63.4109 792.241 41.6254 800.066 19.5242C800.36 18.6953 800.415 17.9503 800.315 17.0785C806.854 17.079 843.491 16.033 845.91 18.2506C846.138 19.1788 846.065 19.9715 845.791 20.8741C845.453 21.988 845.01 23.1249 844.215 23.9949C841.391 27.0839 830.394 35.3112 826.742 37.2309C826.811 37.367 826.876 37.503 826.935 37.6443C827.947 40.0863 828.016 139.629 827.378 150.734C827.322 151.709 827.03 152.646 826.648 153.54C830.963 154.02 843.164 158.126 846.587 160.475C846.649 160.732 846.686 160.985 846.673 161.25C846.548 163.719 844.475 166.767 842.701 168.352C837.166 168.771 786.175 168.617 785.276 167.981C785.073 167.339 784.884 166.679 784.805 166.01C783.995 159.192 798.694 152.812 802.59 147.839L802.679 147.723C802.776 147.565 802.842 147.455 802.89 147.274C803.773 143.983 803.384 85.2704 802.929 78.4692C802.86 77.4497 802.576 76.62 802.017 75.7637C802.336 75.2732 802.619 74.7237 802.773 74.1575C803.889 70.0711 803.572 45.9336 801.756 42.6327Q801.948 43.2137 801.974 43.8249C802.032 45.5376 754.199 165.041 751.192 168.369C747.884 168.818 744.022 168.452 740.652 168.476C740.733 168.152 740.79 167.822 740.771 167.487C740.635 165.045 696.633 55.0898 692.039 44.9836C691.326 43.4144 690.435 42.2856 689.106 41.1728C689.514 41.9113 689.939 42.6929 690.212 43.493C691.534 47.3696 691.178 136.499 690.651 147.483C690.6 148.559 690.337 149.475 689.856 150.439C694.556 151.313 706.415 157.507 710.17 160.426C710.205 160.589 710.233 160.762 710.218 160.928C709.995 163.486 707.707 166.794 705.81 168.391C691.691 168.374 677.478 168.857 663.376 168.313L663.078 167.539L661.88 167.903L662.109 168.248C661.754 167.902 661.645 167.489 661.513 167.026C659.215 158.984 675.642 154.028 678.831 148.127C678.847 148.097 678.862 148.067 678.878 148.037C679.111 147.689 679.301 147.335 679.429 146.934C680.595 143.286 679.723 114.422 679.725 108.678L679.715 62.4813C679.711 54.3245 680.001 46.0309 679.612 37.8883C679.571 37.0313 679.337 36.2898 678.952 35.5269C676.691 32.5933 662.945 26.136 659.149 24.8797C660.808 23.108 662.939 19.9355 663.039 17.4394Z"/>
	<path fill="#ECCDB5" d="M908.427 64.3274C918.575 63.6119 929.598 63.807 938.813 68.6084C945.545 72.1159 950.161 77.8591 952.417 85.0779C953.553 88.7105 954.055 92.4908 954.301 96.2783C954.712 102.612 955.234 150.698 953.639 153.752C959.34 155.088 965.42 157.616 970.705 160.135C970.731 160.261 970.752 160.389 970.752 160.517C970.762 163.013 968.551 166.3 966.909 168.048L930.01 168.102C930.328 167.607 930.601 167.062 930.763 166.495C931.661 163.338 931.568 154.315 929.956 151.418C929.917 151.54 929.873 151.661 929.812 151.775C927.926 155.318 910.57 167.74 906.293 169.086C896.702 172.104 885.964 168.45 877.47 164.007C877.216 163.11 875.842 161.805 875.232 161C871.332 155.846 869.123 151.328 868.404 144.847C867.18 133.814 873.86 126.649 881.642 119.872C883.267 118.457 885.387 117.314 886.719 115.626L886.781 115.546L930.09 115.479C930.462 114.883 930.719 114.17 930.876 113.485C932.223 107.602 930.961 95.1001 927.618 89.7582C924.699 85.0921 919.978 82.3098 914.683 81.1187C898.913 77.571 888.853 87.1076 876.63 94.8645C876.052 92.4001 872.381 88.8915 870.254 87.5346C872.695 86.5888 874.98 84.5667 877.043 82.9612C884.281 77.3307 892.43 68.1044 901.171 65.3026C903.393 64.5902 906.103 64.5373 908.427 64.3274ZM921.454 148.647C924.046 147.808 928.879 145.232 930.325 142.914C931.616 140.002 931.855 127.568 930.729 124.587C930.587 124.211 930.385 123.839 930.165 123.504C920.516 123.486 904.864 122.442 895.954 123.795C895.953 123.826 895.952 123.856 895.951 123.887C895.846 126.258 893.91 128.653 893.159 130.921C891.289 136.567 893.27 145.289 897.21 149.709C899.202 151.943 901.885 153.398 904.901 153.582C908.938 153.828 917.881 151.997 921.018 149.142C921.181 148.994 921.322 148.822 921.454 148.647Z"/>
	<path fill="#ECCDB5" d="M294.519 94.6501C292.854 90.6733 280.047 88.3536 278.481 83.9886C277.979 82.591 278.047 79.8322 278.661 78.5126C282.902 75.0117 305.387 64.3907 311.001 62.703C313.069 62.0813 315.565 62.1832 317.715 62.1587C318.05 62.6888 318.311 63.2728 318.447 63.8862C319.439 68.3479 318.56 78.1757 318.561 83.3776C318.562 99.1712 319.409 115.53 318.433 131.257C318.366 132.324 318.096 133.188 317.509 134.087C317.736 134.435 317.944 134.815 318.1 135.2C319.258 138.043 319.225 150.95 318.035 153.783C323.29 155.224 330.252 157.306 334.822 160.203C334.853 160.457 334.862 160.704 334.835 160.959C334.596 163.179 332.728 166.661 330.993 168.061L294.055 168.107C294.495 167.438 294.789 166.609 294.945 165.824C295.625 162.389 295.949 150.943 294.08 148.228C294.065 148.279 294.051 148.331 294.035 148.381C293.299 150.652 273.231 166.906 270.231 168.342C264.367 171.151 254.891 170.175 248.959 168.069C231.3 161.799 231.405 143.888 231.553 128.161C231.627 120.342 231.774 112.519 231.75 104.699C231.741 101.975 232.268 96.9851 231.074 94.554C231.059 94.5223 231.042 94.4912 231.026 94.4598C227.537 89.7793 218.708 89.2994 215.359 83.991C214.402 82.4747 214.46 81.1604 214.823 79.4664C216.695 76.0174 241.463 65.5028 246.611 62.6062C249.037 62.202 251.676 62.2787 254.139 62.187C256.062 65.2302 255.084 79.3341 255.079 83.4601L255.04 118.204C255.041 124.132 254.682 130.393 255.202 136.292C255.491 139.574 257.169 142.519 257.56 145.77L257.574 145.895C263.601 148.786 267.704 150.255 274.627 149.216C281.355 148.207 290.395 144.399 294.573 138.757C295.726 135.877 295.776 97.9389 294.519 94.6501Z"/>
	<path fill="#ECCDB5" d="M510.123 62.6117C510.591 62.7111 511.065 63.0054 511.498 63.2149C515.47 72.7213 516.316 83.8271 519.738 93.6221C522.72 102.158 541.783 143.637 541.512 148.381C541.539 148.358 541.567 148.336 541.594 148.314C543.773 146.495 568.079 95.9817 568.414 92.3611C567.608 90.0986 546.651 75.7918 543.271 73.8352C544.762 71.9949 546.852 68.3832 546.824 65.9916C552.528 65.8584 587.243 64.9771 589.751 66.7351C589.856 67.5626 589.922 68.4097 589.864 69.2438C589.576 73.4272 559.428 133.555 556.415 136.225C556.467 136.578 556.492 136.932 556.441 137.287C555.891 141.103 542.71 164.965 539.904 169.191C535.938 175.164 504.052 216.388 500.351 218.886C498.63 216.322 495.434 214.236 492.764 212.759C495.238 211.427 497.164 209.048 499.024 206.992C511.329 193.395 521.383 175.789 520.379 156.878C520.232 154.113 519.633 151.563 518.738 148.946C516.51 142.424 497.808 96.9201 495.558 94.8916C492.61 90.2239 482.42 89.2409 479.146 83.9271C478.432 82.769 478.138 81.1943 478.468 79.8602C479.198 76.9117 505.633 65.2691 510.123 62.6117Z"/>
	<path fill="#ECCDB5" d="M159.921 29.2295L167.62 29.1401Q167.454 50.3385 167.585 71.5368Q184.805 71.6482 202.024 71.4752L202.055 79.8449C190.925 78.5794 178.733 79.576 167.514 79.6633L167.465 120.249C167.455 126.822 166.883 133.977 167.745 140.488C168.125 143.365 168.947 146.183 170.559 148.625C172.251 151.189 174.683 152.978 177.721 153.562C185.698 155.097 193.169 149.927 199.379 145.714C201.445 148.091 203.407 150.55 205.374 153.008L199.327 157.71C191.904 163.75 185.686 170.022 175.55 170.082C167.545 170.13 158.34 168.38 152.462 162.531C148.585 158.674 146.453 153.46 145.337 148.185C143.367 138.869 144.165 128.759 144.17 119.277L144.19 79.5424L123.338 79.7272C123.252 77.1463 123.419 74.5125 123.487 71.9292C127.591 66.3363 132.436 61.1474 136.957 55.8835L159.921 29.2295Z"/>
	<path fill="#ECCDB5" d="M1015.08 29.4476C1017.38 29.1221 1019.83 29.215 1022.15 29.1469C1022.5 29.6684 1022.78 30.2617 1022.91 30.8784C1023.8 35.2757 1023.81 68.9384 1022.14 71.5245Q1039.69 71.7188 1057.23 71.4294C1057.31 71.5573 1057.38 71.6851 1057.45 71.8235C1058.51 74.1069 1058.06 77.6025 1057.27 79.8911C1049.04 78.417 1031.76 79.5605 1022.4 79.5888C1023.82 83.4242 1023.14 88.9899 1023.14 93.0924C1023.13 104.402 1021.73 135.224 1024.08 144.58C1024.84 147.59 1026.74 149.95 1029.42 151.527C1033.11 153.698 1038.18 154.092 1042.29 152.986C1045.83 152.037 1052.48 148.66 1054.29 145.522C1054.9 145.855 1055.42 146.274 1055.93 146.757C1057.39 148.155 1060.31 151.148 1060.35 153.209C1059.8 154.706 1055.94 156.857 1054.55 157.532C1053.7 159.921 1045.32 165.829 1042.78 167.152C1035.42 170.974 1025.75 170.672 1018 168.212C1012.78 166.559 1008.01 163.576 1005.11 158.844C997.163 145.863 1000.03 109.325 1000.08 92.7419C1000.09 89.1391 1000.8 82.8397 999.108 79.6637C999.084 79.6196 999.06 79.5762 999.035 79.5325Q988.721 79.5089 978.411 79.8153C978.439 79.7533 978.469 79.6919 978.496 79.6294C979.507 77.2914 979.394 74.2806 978.432 71.9627C980.751 70.6453 1013.65 32.2818 1015.08 29.4476Z"/>
	<path fill="#ECCDB5" d="M447.347 0L454.521 0C454.764 0.362614 454.977 0.736849 455.154 1.13633C456.098 3.27529 456.12 138.248 455.565 150.833C455.525 151.75 455.251 152.671 454.926 153.526C458.866 154.148 468.688 158.126 472.067 160.385C472.104 160.556 472.13 160.733 472.117 160.908C471.939 163.284 469.796 166.488 468.064 168.024L431.224 168.113C431.448 167.79 431.647 167.436 431.779 167.065C432.849 164.061 432.457 157.215 431.136 154.369C430.52 156.776 421.234 163.352 418.877 165.072C411.372 170.549 401.827 170.867 392.918 169.451C381.529 167.641 371.895 161.454 365.167 152.137C357.26 141.185 353.785 126.502 355.963 113.159C358.465 97.8393 369.079 83.9734 381.505 75.0652C392.247 67.3644 407.021 62.424 420.271 64.6516C423.664 65.2221 429.511 67.0471 431.575 69.9402Q431.872 69.4739 432.049 68.9498C432.95 66.3263 432.886 33.1814 431.723 30.7329C430.343 26.5564 416.679 22.7654 415.284 16.3737C413.446 7.95382 444.07 5.25916 447.301 0.0781977C447.317 0.0524614 447.332 0.0260659 447.347 0ZM415.094 152.958C420.864 152.239 427.477 149.501 431.979 145.766C432.687 143.883 432.416 107.363 431.992 102.935C431.719 100.08 431.068 97.2937 429.876 94.6782C427.272 88.9659 422.467 84.7036 416.602 82.5382C410.172 80.164 402.511 79.8839 395.782 80.9089C389.758 83.4008 386.028 86.766 383.518 92.8407C378.443 105.125 379.934 123.266 384.992 135.333C387.966 142.428 392.864 149.022 400.187 151.998C404.625 153.801 410.456 154.117 415.094 152.958Z"/>
	<path fill="#ECCDB5" d="M0 125.638C2.87874 125.541 5.96581 124.985 8.23664 127.076C11.6813 130.249 14.3498 134.85 17.4396 138.434C27.2386 149.798 41.1643 158.992 56.68 158.488C63.9033 158.253 71.2521 155.186 76.2264 149.885C79.9639 145.901 82.4271 139.213 82.2529 133.767C82.0834 128.471 79.045 124.158 75.2872 120.677C56.5404 103.311 2.56523 90.0778 1.36362 61.3321C0.912572 50.5417 8.00822 39.9171 15.0197 32.3271C24.0965 22.5014 36.8987 13.7777 50.6197 13.255C66.0792 12.6661 87.201 16.4288 101.529 22.2622Q101.33 40.974 101.543 59.6856L93.7712 59.5064C85.4596 45.777 73.6567 31.6623 57.452 27.6468C51.0607 26.063 42.8675 26.3346 37.1159 29.8248C31.7186 33.1001 27.9931 38.9406 26.5141 45.0064C25.2676 50.1185 25.7461 55.299 28.5246 59.8267C43.5182 84.2598 115.036 93.7625 106.41 130.483C103.23 144.02 90.1843 156.653 78.7334 163.702C73.9432 166.651 68.2949 169.715 62.8083 171.016C48.7088 174.359 25.9901 169.96 11.958 166.596C7.94193 165.634 3.7293 164.577 0 162.789L0 160.986C1.33781 156.047 1.26035 134.732 0 129.66L0 125.638Z"/>
	<path fill="#ECCDB5" d="M1171.87 141.783C1161.73 149.182 1152.41 157.661 1142.27 165.028C1140.34 166.427 1138.29 167.947 1136 168.703C1129.7 170.789 1118.36 170.361 1111.82 169.31C1100.78 167.536 1091.31 160.984 1084.85 151.996C1076.9 140.932 1073.65 126.03 1075.89 112.623C1078.39 97.6998 1088.73 84.218 1100.86 75.5915C1112.37 67.3994 1126.29 62.2942 1140.53 64.6987C1149.25 66.1703 1156.48 71.4086 1161.52 78.54C1167.12 86.4605 1173 102.683 1171.24 112.566L1171.21 112.725C1171.6 114.152 1171.59 114.647 1171.25 116.077C1169.19 117.323 1107.15 116.562 1099.28 116.602L1099.39 116.72C1099.62 116.962 1099.81 117.228 1100 117.491C1101.99 120.176 1102.23 126.951 1103.05 130.352C1105.66 141.278 1114.38 151.297 1125.76 153.12C1137.56 155.012 1148.39 147.522 1157.47 140.916C1159.5 139.441 1164.41 136.348 1165.34 134.134C1168.02 135.727 1170.01 138.742 1171.85 141.206L1171.87 141.783ZM1099.44 108.555L1122.64 108.598C1129.81 108.583 1137.15 108.906 1144.3 108.513C1145.72 104.244 1142.87 95.2731 1140.87 91.3191C1138.54 86.6929 1134.68 82.8905 1129.7 81.2233C1127.07 80.3448 1124.16 80.3409 1121.42 80.3381C1115.99 80.7645 1110.77 81.9584 1107.05 86.2771C1101.01 93.304 1102.54 103.876 1099.44 108.555Z"/>
	<path fill="#ECCDB5" fill-opacity="0.71372551" d="M0 129.66C1.26035 134.732 1.33781 156.047 0 160.986L0 129.66Z"/>
</svg>
