<svg width="188" height="103" viewBox="0 0 188 103" fill="none" xmlns="http://www.w3.org/2000/svg">
<path d="M0.832031 23.3835C0.832031 10.8801 10.968 0.744141 23.4714 0.744141H129.122C141.625 0.744141 151.761 10.8801 151.761 23.3835C151.761 35.8868 141.625 46.0228 129.122 46.0228H23.4714C10.968 46.0228 0.832031 35.8868 0.832031 23.3835Z" fill="#E7924A"/>
<path d="M32.0121 18.7107C31.8672 16.646 30.2372 15.4507 27.6654 15.4507C24.9486 15.4507 23.4635 16.6822 23.4635 18.3485C23.3911 20.2683 25.3109 21.1014 27.5205 21.6086L29.8387 22.1881C34.2217 23.1299 37.4818 25.3757 37.518 29.6501C37.4818 34.3228 33.8233 37.3293 27.5929 37.3293C21.3988 37.3293 17.4505 34.4677 17.3056 28.998H22.4493C22.6666 31.5699 24.6951 32.8377 27.5205 32.8377C30.3096 32.8377 32.1208 31.5699 32.157 29.6501C32.1208 27.9114 30.5632 27.0782 27.7378 26.39L24.9849 25.738C20.6381 24.6513 17.9938 22.5141 17.9576 18.7107C17.9576 14.1104 22.087 10.9952 27.6654 11.0315C33.3524 10.9952 37.0833 14.1466 37.1558 18.7107H32.0121Z" fill="black"/>
<path d="M39.9769 15.7404V11.3212H60.9138V15.7404H53.0896V36.9671H47.8011V15.7404H39.9769Z" fill="black"/>
<path d="M80.0975 11.3212H85.3861V27.9838C85.3861 33.5984 81.148 37.3293 74.809 37.3293C68.4337 37.3293 64.2319 33.5984 64.2319 27.9838V11.3212H69.5204V27.5491C69.5204 30.5194 71.6213 32.6566 74.809 32.6203C77.9966 32.6566 80.0613 30.5194 80.0975 27.5491V11.3212Z" fill="black"/>
<path d="M98.7198 36.9671H89.7365V11.3212H98.8647C106.544 11.3575 111.289 16.1389 111.253 24.1442C111.289 32.1494 106.544 36.9671 98.7198 36.9671ZM95.0251 32.403H98.5025C103.393 32.403 105.964 29.8674 105.964 24.1442C105.964 18.4209 103.393 15.9216 98.5749 15.8853H95.0251V32.403Z" fill="black"/>
<path d="M111.949 11.3212H117.962L123.83 22.4055H124.12L129.988 11.3212H135.929L126.583 27.8389V36.9671H121.295V27.8389L111.949 11.3212Z" fill="black"/>
<path d="M60.1669 59.1842C62.5704 46.914 74.4658 38.9155 86.736 41.319L169.68 57.566C181.95 59.9695 189.949 71.8648 187.545 84.135C185.142 96.4052 173.246 104.404 160.976 102L78.0322 85.7532C65.762 83.3498 57.7635 71.4544 60.1669 59.1842Z" fill="#E7924A"/>
<path d="M79.5687 50.6932L85.9673 51.9465L89.6634 70.3879L89.9478 70.4437L100.257 54.7456L106.727 56.0129L101.797 81.1805L96.6783 80.1778L99.9092 63.6838L99.6959 63.642L89.9522 78.7126L86.4685 78.0303L83.1308 60.3973L82.9175 60.3555L79.6867 76.8495L74.6389 75.8607L79.5687 50.6932Z" fill="black"/>
<path d="M110.181 82.8226L104.564 81.7225L118.167 58.2539L124.921 59.5768L128.665 86.4434L123.049 85.3432L122.293 79.2155L113.193 77.433L110.181 82.8226ZM115.315 73.5671L121.785 74.8344L120.537 64.6238L120.324 64.582L115.315 73.5671Z" fill="black"/>
<path d="M131.496 65.3679L132.346 61.0311L152.892 65.0557L152.043 69.3925L144.364 67.8885L140.284 88.7193L135.094 87.7027L139.175 66.8719L131.496 65.3679Z" fill="black"/>
<path d="M151.219 90.8611L156.148 65.6936L172.998 68.994L172.148 73.3308L160.489 71.047L159.291 77.1611L170.098 79.2779L169.262 83.5436L158.456 81.4268L157.258 87.541L168.989 89.8387L168.139 94.1755L151.219 90.8611Z" fill="black"/>
</svg>
