<?xml version="1.0" encoding="utf-8" ?>
<svg xmlns="http://www.w3.org/2000/svg" xmlns:xlink="http://www.w3.org/1999/xlink" width="474" height="274">
	<path fill="#ED883D" transform="scale(1.00834 1.00834)" d="M149.627 106.472C144.844 96.602 145.385 67.9693 146.475 56.2786C146.912 51.5872 147.727 46.8293 148.726 42.226C151.054 31.4987 154.908 18.6044 164.722 12.3963C166.901 11.0183 168.709 10.7553 171.227 11.3488C186.691 14.9923 207.791 44.6679 215.829 57.8567C218.944 57.5761 222.026 57.0099 225.155 56.8242Q230.23 56.5506 235.311 56.7008Q240.392 56.8511 245.442 57.4241Q250.493 57.9972 255.478 58.9891Q260.463 59.981 265.348 61.3849C279.334 47.0606 293.499 36.5416 311.712 28.211C318.651 25.0371 326.086 22.1136 333.798 21.7627C336.595 21.6354 340.5 21.6254 342.648 23.6603C348.107 28.8337 349.444 42.9025 349.632 50.1163C349.753 54.7487 349.818 59.4387 349.472 64.0634C349.124 68.7067 348.26 73.3667 347.422 77.9429C344.526 93.7599 340.75 105.655 335.024 120.579C334.143 122.874 332.101 129.558 330.656 131.079C332.528 132.819 336.864 147.311 338.304 150.818C340.023 155.003 341.98 159.239 344.614 162.928C346.773 165.952 349.289 168.773 351.95 171.362C354.28 173.629 360.381 177.257 361.522 180.099C361.882 180.999 361.592 182.356 361.234 183.217C360.063 186.03 356.705 188.919 354.625 191.184C340.698 206.346 322.122 217.977 303.52 226.558C299.627 228.355 295.552 229.763 291.603 231.434C292.725 232.252 293.792 233.622 294.781 234.628C300.283 240.22 318.235 260.048 320.534 266.872C320.753 267.524 320.818 267.868 320.529 268.488C319.295 269.213 317.522 268.862 316.159 268.712C310.71 269.254 305.013 268.969 299.537 268.97L269.742 268.946C262.815 268.954 255.896 269.194 248.968 269.168C246.415 269.159 243.646 269.347 241.122 269.026C232.938 269.282 224.688 269.043 216.495 269.039L167.238 268.976Q164.433 268.917 161.632 268.767C162.281 265.968 163.23 263.23 163.947 260.445Q167.671 245.458 172.115 230.668C165.922 226.923 159.299 224.541 152.933 221.22C136.419 212.602 108.748 191.017 103.277 172.889C102.933 171.748 102.83 170.793 103.551 169.778C105.592 166.906 112.09 164.021 115.229 161.786C117.887 159.892 120.287 157.566 122.447 155.126C131.519 144.878 136.193 131.817 142.213 119.732C144.469 115.203 147.273 110.953 149.627 106.472Z"/>
	<path fill="#FEE9BC" transform="scale(1.00834 1.00834)" d="M108.016 174.329C117.294 170.741 134.13 175.508 144.322 176.715C146.784 177.007 149.392 177.38 151.869 177.199C158.908 176.685 163.85 169.521 170.886 168.935C172.46 168.804 174.273 169.001 175.514 170.075C176.648 171.057 177.512 172.687 177.627 174.177C177.676 173.15 177.861 172.529 178.647 171.814C181.311 169.39 187.094 169.679 190.445 169.901C193.388 170.097 198.891 170.296 200.906 172.76C201.822 173.879 201.725 175.276 201.675 176.636C211.514 176.123 221.284 176.879 230.694 179.983C236.448 181.881 242.017 184.309 247.762 186.233C276.454 195.844 298.181 196.666 327.772 190.792C334.425 189.471 341.304 188.206 347.798 186.239C349.101 185.844 353.963 183.832 354.964 184.28C354.715 186.943 344.068 195.65 341.357 197.896C325.31 211.188 306.536 221.265 287.232 228.926C284.065 230.183 280.674 232.043 277.298 232.543C276.933 231.515 276.242 230.856 275.32 230.318C274.962 231.249 274.365 231.835 273.634 232.494C274.862 233.603 276.293 236.252 276.82 237.83C280.098 237.114 283.844 236.219 286.721 234.437C293.664 239.396 311.977 260.824 316.159 268.712C310.71 269.254 305.013 268.969 299.537 268.97L269.742 268.946C262.815 268.954 255.896 269.194 248.968 269.168C246.415 269.159 243.646 269.347 241.122 269.026C232.938 269.282 224.688 269.043 216.495 269.039L167.238 268.976L166.902 268.681C166.746 266.827 167.984 263.951 168.445 262.107C169.618 257.417 170.43 252.681 171.754 248.02C173.1 243.278 175.002 238.647 176.03 233.828Q176.157 233.244 176.236 232.652C176.552 230.188 176.191 228.372 174.09 226.927C168.321 222.958 161.196 220.746 155.005 217.441Q153.218 216.508 151.463 215.516Q149.708 214.525 147.986 213.477Q146.264 212.429 144.577 211.326Q142.89 210.222 141.24 209.064Q139.59 207.906 137.979 206.695Q136.368 205.484 134.797 204.221Q133.226 202.958 131.697 201.644Q130.168 200.33 128.682 198.968Q127.197 197.605 125.757 196.194Q124.317 194.784 122.923 193.327Q121.53 191.87 120.185 190.369Q118.84 188.868 117.544 187.323Q116.249 185.779 115.005 184.193Q113.76 182.607 112.568 180.982Q111.376 179.356 110.238 177.692Q109.1 176.029 108.016 174.329Z"/>
	<path fill="#ED883D" transform="scale(1.00834 1.00834)" d="M258.002 235.32C260.987 234.893 271.745 233.973 273.634 232.494C274.862 233.603 276.293 236.252 276.82 237.83C280.098 237.114 283.844 236.219 286.721 234.437C293.664 239.396 311.977 260.824 316.159 268.712C310.71 269.254 305.013 268.969 299.537 268.97L269.742 268.946C262.815 268.954 255.896 269.194 248.968 269.168C246.415 269.159 243.646 269.347 241.122 269.026C243.571 268.679 246.227 268.875 248.705 268.878Q254.567 268.901 260.427 268.787C259.671 261.068 259.256 253.241 258.722 245.5C258.488 242.097 258.434 238.709 258.002 235.32Z"/>
	<path fill="#292729" transform="scale(1.00834 1.00834)" d="M177.627 174.177C177.676 173.15 177.861 172.529 178.647 171.814C181.311 169.39 187.094 169.679 190.445 169.901C193.388 170.097 198.891 170.296 200.906 172.76C201.822 173.879 201.725 175.276 201.675 176.636C201.423 177.477 201.085 178.351 200.682 179.133C198.487 183.385 194.797 185.058 190.478 186.429C190.336 189.439 190.225 192.394 190.243 195.409C192.317 197.161 194.342 198.623 196.88 199.632C201.591 201.506 206.958 201.604 211.149 198.498C212.543 197.464 214.116 195.872 215.707 195.246C216.359 194.99 216.591 195.015 217.186 195.298C217.423 195.76 217.647 196.218 217.707 196.74C217.822 197.734 217.496 198.622 216.883 199.393C214.178 202.793 208.967 205.009 204.724 205.413C199.05 205.954 193.062 204.007 188.664 200.401L188.524 200.481C183.954 203.011 179.083 204.223 173.924 202.725C171.655 202.066 168.128 200.453 166.967 198.247C166.345 197.063 166.628 195.348 167.012 194.135C167.261 193.347 167.542 192.893 168.271 192.51L168.808 192.75C169.456 193.539 169.55 194.695 169.733 195.675C169.951 195.903 170.18 196.118 170.414 196.329C172.75 198.445 176.158 199.865 179.342 199.659C181.317 199.532 183.048 198.709 184.351 197.209C186.883 194.295 186.497 190.549 186.247 186.988C185.014 186.242 183.708 185.516 182.558 184.646C178.998 181.953 178.235 178.321 177.627 174.177Z"/>
	<path fill="#292729" transform="scale(1.00834 1.00834)" d="M149.627 106.472C144.844 96.602 145.385 67.9693 146.475 56.2786C146.912 51.5872 147.727 46.8293 148.726 42.226C151.054 31.4987 154.908 18.6044 164.722 12.3963C166.901 11.0183 168.709 10.7553 171.227 11.3488C186.691 14.9923 207.791 44.6679 215.829 57.8567C218.944 57.5761 222.026 57.0099 225.155 56.8242Q230.23 56.5506 235.311 56.7008Q240.392 56.8511 245.442 57.4241Q250.493 57.9972 255.478 58.9891Q260.463 59.981 265.348 61.3849C279.334 47.0606 293.499 36.5416 311.712 28.211C318.651 25.0371 326.086 22.1136 333.798 21.7627C336.595 21.6354 340.5 21.6254 342.648 23.6603C348.107 28.8337 349.444 42.9025 349.632 50.1163C349.753 54.7487 349.818 59.4387 349.472 64.0634C349.124 68.7067 348.26 73.3667 347.422 77.9429C344.526 93.7599 340.75 105.655 335.024 120.579C334.143 122.874 332.101 129.558 330.656 131.079C332.528 132.819 336.864 147.311 338.304 150.818C340.023 155.003 341.98 159.239 344.614 162.928C346.773 165.952 349.289 168.773 351.95 171.362C354.28 173.629 360.381 177.257 361.522 180.099C361.882 180.999 361.592 182.356 361.234 183.217C360.063 186.03 356.705 188.919 354.625 191.184C340.698 206.346 322.122 217.977 303.52 226.558C299.627 228.355 295.552 229.763 291.603 231.434C292.725 232.252 293.792 233.622 294.781 234.628C300.283 240.22 318.235 260.048 320.534 266.872C320.753 267.524 320.818 267.868 320.529 268.488C319.295 269.213 317.522 268.862 316.159 268.712C311.977 260.824 293.664 239.396 286.721 234.437C283.844 236.219 280.098 237.114 276.82 237.83C276.293 236.252 274.862 233.603 273.634 232.494C274.365 231.835 274.962 231.249 275.32 230.318C276.242 230.856 276.933 231.515 277.298 232.543C280.674 232.043 284.065 230.183 287.232 228.926C306.536 221.265 325.31 211.188 341.357 197.896C344.068 195.65 354.715 186.943 354.964 184.28C355.011 184.261 355.06 184.245 355.106 184.223C356.189 183.716 357.229 182.659 357.642 181.537C356.966 179.692 353.103 177.667 351.5 176.347C347.347 172.927 343.791 168.7 340.724 164.299C338.149 160.602 336.139 156.453 334.46 152.283C332.731 147.989 331.335 143.559 330.004 139.128C329.256 136.636 328.634 133.97 327.642 131.568C327.416 131.019 327.129 130.604 326.689 130.204C326.897 129.987 327.054 129.786 327.206 129.527C327.686 128.714 328.434 127.208 328.194 126.281C331.672 124.067 339.367 96.9497 340.77 91.7276C342.494 85.3153 348.73 56.576 345.834 51.5457C345.849 51.5134 345.865 51.4816 345.878 51.4487C345.9 51.3941 345.919 51.3382 345.939 51.2832C346.051 50.9871 346.146 50.6944 346.168 50.3764C346.529 45.044 344.375 31.6847 340.631 27.7173C339.175 26.1741 337.476 25.4599 335.368 25.4192C331.232 25.3392 326.795 26.8589 322.884 28.1199C307.654 33.0293 293.024 42.1457 280.833 52.4227C275.821 56.6472 271.077 61.2856 266.318 65.7921C256.341 61.4942 232.659 60.157 221.373 60.9013C218.966 61.06 216.535 61.2128 214.141 61.5115C211.877 61.7939 209.382 62.4355 207.11 62.2959L206.935 61.95C206.991 61.7867 206.999 61.7304 207.079 61.5922C207.714 60.4939 210.404 59.8595 211.617 59.5592C211.284 58.7686 210.896 57.9934 210.501 57.2315C204.44 45.5394 184.003 19.7807 171.497 15.9591C169.558 15.3666 167.621 15.3291 165.807 16.3094C161.015 18.8999 157.845 25.5606 156.308 30.5311C156.368 30.5376 156.427 30.5462 156.487 30.5505C157.42 30.6165 158.238 30.3 159.114 30.0284C164.342 28.4061 165.768 28.6221 169.637 32.8597C171.297 34.6773 172.702 36.7215 173.935 38.848C176.762 43.7268 183.104 57.603 184.189 62.8429C184.356 63.6508 184.309 64.4957 184.269 65.3146L184.251 65.6515C180.782 71.4825 173.949 75.5721 169.725 81.0685C169.941 82.491 168.267 84.4877 167.48 85.6104C164.833 89.3839 161.955 92.9994 159.43 96.858C154.483 104.421 150.351 112.415 146.328 120.497C140.86 131.485 136.427 143.809 129.114 153.727C125.313 158.883 120.441 163.593 114.888 166.829C112.017 168.502 108.96 169.925 106.294 171.92L108.016 174.329Q109.1 176.029 110.238 177.692Q111.376 179.356 112.568 180.982Q113.76 182.607 115.005 184.193Q116.249 185.779 117.544 187.323Q118.84 188.868 120.185 190.369Q121.53 191.871 122.923 193.327Q124.317 194.784 125.757 196.194Q127.197 197.605 128.682 198.968Q130.168 200.33 131.697 201.644Q133.226 202.958 134.797 204.221Q136.368 205.484 137.979 206.695Q139.59 207.906 141.24 209.064Q142.89 210.222 144.577 211.326Q146.264 212.429 147.986 213.477Q149.708 214.525 151.463 215.516Q153.218 216.508 155.005 217.441C161.196 220.746 168.321 222.958 174.09 226.927C176.191 228.372 176.552 230.188 176.236 232.652Q176.157 233.244 176.03 233.828C175.002 238.647 173.1 243.278 171.754 248.02C170.43 252.681 169.618 257.417 168.445 262.107C167.984 263.951 166.746 266.827 166.902 268.681L167.238 268.976Q164.433 268.917 161.632 268.767C162.281 265.968 163.23 263.23 163.947 260.445Q167.671 245.458 172.115 230.668C165.922 226.923 159.299 224.541 152.933 221.22C136.419 212.602 108.748 191.017 103.277 172.889C102.933 171.748 102.83 170.793 103.551 169.778C105.592 166.906 112.09 164.021 115.229 161.786C117.887 159.892 120.287 157.566 122.447 155.126C131.519 144.878 136.193 131.817 142.213 119.732C144.469 115.203 147.273 110.953 149.627 106.472Z"/>
	<path fill="#F8A65E" transform="scale(1.00834 1.00834)" d="M156.308 30.5311C156.368 30.5376 156.427 30.5462 156.487 30.5505C157.42 30.6165 158.238 30.3 159.114 30.0284C164.342 28.4061 165.768 28.6221 169.637 32.8597C171.297 34.6773 172.702 36.7215 173.935 38.848C176.762 43.7268 183.104 57.603 184.189 62.8429C184.356 63.6508 184.309 64.4957 184.269 65.3146L184.251 65.6515C180.782 71.4825 173.949 75.5721 169.725 81.0685C161.784 86.6603 157.136 94.4682 151.373 102.027C151.552 96.3545 150.142 90.5175 149.831 84.8358C148.857 67.0408 150.19 47.4078 156.308 30.5311Z"/>
	<path fill="#F8A65E" transform="scale(1.00834 1.00834)" d="M287.771 81.6172C290.192 80.0676 291.811 76.5772 293.535 74.2884C294.618 72.8504 295.886 71.4987 297.061 70.1334C302.97 63.2639 309.258 56.0395 316.211 50.2304C320.807 46.3903 326.692 42.2247 333.016 42.8444C337.58 43.2916 342.782 46.4128 345.576 50.0475C346.028 50.6345 345.918 50.8433 345.834 51.5457C348.73 56.576 342.494 85.3153 340.77 91.7276C339.367 96.9497 331.672 124.067 328.194 126.281C324.112 123.888 317.96 113.162 314.921 109.031C310.595 103.151 293.694 83.6471 287.771 81.6172Z"/>
	<path fill="#292729" transform="scale(1.00834 1.00834)" d="M240.391 149.51C241.203 149.457 242.111 149.473 242.888 149.723C244.678 150.298 246.083 151.605 246.938 153.261C248.979 157.211 248.708 162.371 247.373 166.496C246.317 169.761 244.666 171.952 241.617 173.506C240.837 173.563 240.075 173.494 239.329 173.253C237.26 172.585 235.77 171.176 234.826 169.235C232.944 165.365 233.072 160.094 234.487 156.082C235.617 152.875 237.366 150.947 240.391 149.51Z"/>
	<path fill="#292729" transform="scale(1.00834 1.00834)" d="M169.183 141.732C169.777 141.708 170.458 141.746 171.035 141.895C172.988 142.402 174.51 143.773 175.479 145.511C177.684 149.468 178.019 155.107 176.739 159.412C175.834 162.457 174.309 164.344 171.541 165.844C170.495 166.057 169.497 165.984 168.512 165.565C166.636 164.767 165.45 162.99 164.703 161.166C162.92 156.807 162.708 150.753 164.565 146.392C165.565 144.043 166.825 142.685 169.183 141.732Z"/>
	<path fill="#BCEAFB" transform="scale(1.00834 1.00834)" d="M69.9472 72.3563C76.9118 71.3613 84.8661 73.644 90.8692 77.0918C98.9608 81.739 104.609 89.9095 106.995 98.8586C109.403 107.887 108.742 116.322 105.057 124.887C103.885 127.61 102.508 130.318 100.617 132.619C98.0313 135.766 94.5155 138.129 92.4425 141.693C92.2734 146.155 94.1967 150.569 94.2782 155.212C90.2845 155.341 85.6866 155.226 81.913 153.805C80.1169 153.129 78.3045 152.014 76.4316 151.631C73.6097 151.054 70.3104 151.428 67.4375 151.423C64.6073 151.334 61.7652 151.886 58.9262 151.899C51.3507 151.936 43.254 148.821 37.3864 144.083C30.372 138.42 24.9069 130.205 23.9436 121.101C22.8405 110.676 26.308 100.36 32.8729 92.2887C42.3577 80.627 55.0234 73.8685 69.9472 72.3563Z"/>
	<path fill="#FEE9BC" transform="scale(1.00834 1.00834)" d="M352.979 269.739C353.004 269.704 353.03 269.67 353.053 269.634C353.488 268.966 355.632 258.63 356.479 256.439C362.587 240.638 370.986 224.886 385.682 215.483C388.452 213.711 391.476 212.325 394.463 210.964C399.316 208.752 404.132 206.923 409.329 205.672C415.924 204.084 431.244 201.994 437.016 205.598C438.196 206.334 439.241 207.432 439.526 208.831C440.588 214.05 434.269 224.063 432.438 229.331C431.321 232.544 430.665 236.114 430.698 239.52C430.759 245.877 432.515 254.1 434.355 260.248C435.264 263.287 436.469 266.286 437.197 269.372C437.412 270.285 437.544 270.878 437.155 271.744L437.158 272L399.145 272L357.143 272L353.946 272L352.978 272L353.463 271.115C353.446 270.405 353.391 270.325 352.979 269.739Z"/>
	<path fill="#292729" transform="scale(1.00834 1.00834)" d="M352.979 269.739C353.004 269.704 353.03 269.67 353.053 269.634C353.488 268.966 355.632 258.63 356.479 256.439C362.587 240.638 370.986 224.886 385.682 215.483C388.452 213.711 391.476 212.325 394.463 210.964C399.316 208.752 404.132 206.923 409.329 205.672C415.924 204.084 431.244 201.994 437.016 205.598C438.196 206.334 439.241 207.432 439.526 208.831C440.588 214.05 434.269 224.063 432.438 229.331C431.321 232.544 430.665 236.114 430.698 239.52C430.759 245.877 432.515 254.1 434.355 260.248C435.264 263.287 436.469 266.286 437.197 269.372C437.412 270.285 437.544 270.878 437.155 271.744C435.858 270.818 433.479 270.537 431.92 270.169C432.227 269.307 431.229 266.783 430.968 265.859C428.427 256.846 424.623 244.093 425.81 234.767C426.149 232.103 426.898 229.425 427.828 226.911C428.988 223.775 435.068 212.181 434.304 209.837C434.126 209.6 433.977 209.482 433.714 209.346C428.093 206.419 411.645 209.747 405.687 211.575C386.195 217.553 371.8 232.178 363.825 250.691C361.51 256.064 360.386 262.241 357.612 267.367L357.522 267.531L357.293 267.981C357.708 269.158 358.062 270.257 357.493 271.471C357.4 271.669 357.276 271.828 357.143 272L353.946 272L352.978 272L353.463 271.115C353.446 270.405 353.391 270.325 352.979 269.739Z"/>
	<path fill="#9A6F5E" transform="scale(1.00834 1.00834)" d="M353.946 272C354.745 271.191 354.612 270.006 354.817 268.968C354.938 268.357 355.041 267.941 355.573 267.605C355.988 267.794 356.361 268.008 356.746 268.25L357.293 267.981C357.708 269.158 358.062 270.257 357.493 271.471C357.4 271.669 357.276 271.828 357.143 272L353.946 272Z"/>
	<path fill="#ED883D" transform="scale(1.00834 1.00834)" d="M357.522 267.531C358.711 268.064 360.192 267.369 361.335 266.933C366.926 264.805 385.054 254.456 390.408 256.839C394.134 258.498 396.956 264.072 398.333 267.746C398.754 268.871 399.536 270.855 399.145 272L357.143 272C357.276 271.828 357.4 271.669 357.493 271.471C358.062 270.257 357.708 269.158 357.293 267.981L357.522 267.531Z"/>
	<defs>
		<linearGradient id="gradient_0" gradientUnits="userSpaceOnUse" x1="337.33365" y1="269.08929" x2="337.74817" y2="273.22763">
			<stop offset="0" stop-color="#787E79"/>
			<stop offset="1" stop-color="#81838D"/>
		</linearGradient>
	</defs>
	<path fill="url(#gradient_0)" transform="scale(1.00834 1.00834)" d="M352.979 269.739C353.391 270.325 353.446 270.405 353.463 271.115L352.978 272L321.069 272C321.287 271.567 321.69 270.645 322.141 270.443C325.511 268.93 350.73 271.036 352.979 269.739Z"/>
</svg>
