<svg width="24" height="25" viewBox="0 0 24 25" fill="none" xmlns="http://www.w3.org/2000/svg">
<mask id="mask0_765_3993" style="mask-type:alpha" maskUnits="userSpaceOnUse" x="1" y="1" width="22" height="23">
<ellipse cx="12.0002" cy="12.5" rx="11.0002" ry="11" fill="#D9D9D9"/>
</mask>
<g mask="url(#mask0_765_3993)">
<rect y="0.5" width="24.0004" height="24" fill="#006FFD"/>
</g>
<path fill-rule="evenodd" clip-rule="evenodd" d="M9.63401 11.313C9.63401 10.7607 10.0817 10.313 10.634 10.313H12.0008C12.5531 10.313 13.0008 10.7607 13.0008 11.313V15.9698H14.2067C14.7589 15.9698 15.2067 16.4175 15.2067 16.9698C15.2067 17.5221 14.7589 17.9698 14.2067 17.9698H9.79492C9.24264 17.9698 8.79492 17.5221 8.79492 16.9698C8.79492 16.4175 9.24264 15.9698 9.79492 15.9698H11.0008V12.313H10.634C10.0817 12.313 9.63401 11.8653 9.63401 11.313Z" fill="white"/>
<path d="M13.2334 8.33827C13.2334 9.06093 12.6476 9.64675 11.9249 9.64675C11.2023 9.64675 10.6164 9.06093 10.6164 8.33827C10.6164 7.61561 11.2023 7.02979 11.9249 7.02979C12.6476 7.02979 13.2334 7.61561 13.2334 8.33827Z" fill="white"/>
</svg>
