<svg width="24" height="25" viewBox="0 0 24 25" fill="none" xmlns="http://www.w3.org/2000/svg">
<mask id="mask0_765_4005" style="mask-type:alpha" maskUnits="userSpaceOnUse" x="1" y="1" width="22" height="23">
<ellipse cx="12.0002" cy="12.5" rx="11.0002" ry="11" fill="#D9D9D9"/>
</mask>
<g mask="url(#mask0_765_4005)">
<rect y="0.5" width="24.0004" height="24" fill="#FFB852"/>
</g>
<path d="M11.4484 6.56C11.6227 6.48324 11.8111 6.44369 12.0015 6.44385C12.1918 6.44389 12.3801 6.48361 12.5542 6.56045C12.7283 6.63729 12.8845 6.74958 13.0128 6.89015C13.141 7.03072 13.2386 7.19649 13.2993 7.37688C13.3599 7.55727 13.3823 7.74832 13.365 7.93785L12.819 13.9468C12.7978 14.1489 12.7025 14.3359 12.5516 14.4718C12.4006 14.6077 12.2047 14.683 12.0015 14.683C11.7984 14.683 11.6025 14.6077 11.4515 14.4718C11.3005 14.3359 11.2053 14.1489 11.184 13.9468L10.6365 7.93785C10.6192 7.7482 10.6416 7.55702 10.7024 7.37653C10.7631 7.19603 10.8609 7.03019 10.9893 6.8896C11.1178 6.74901 11.2741 6.63675 11.4484 6.56Z" fill="white"/>
<path d="M13.3101 17.2476C13.3101 17.9703 12.7242 18.5561 12.0016 18.5561C11.2789 18.5561 10.6931 17.9703 10.6931 17.2476C10.6931 16.5249 11.2789 15.9391 12.0016 15.9391C12.7242 15.9391 13.3101 16.5249 13.3101 17.2476Z" fill="white"/>
</svg>
