<svg width="12" height="13" viewBox="0 0 12 13" fill="none" xmlns="http://www.w3.org/2000/svg">
<mask id="mask0_765_4015" style="mask-type:alpha" maskUnits="userSpaceOnUse" x="0" y="1" width="12" height="11">
<path fill-rule="evenodd" clip-rule="evenodd" d="M0.96967 1.46967C1.26256 1.17678 1.73744 1.17678 2.03033 1.46967L11.0303 10.4695C11.3232 10.7624 11.3232 11.2373 11.0303 11.5302C10.7374 11.8231 10.2626 11.8231 9.96967 11.5302L0.96967 2.53031C0.676777 2.23742 0.676777 1.76255 0.96967 1.46967Z" fill="#006FFD"/>
<path fill-rule="evenodd" clip-rule="evenodd" d="M11.0303 1.46967C10.7374 1.17678 10.2626 1.17678 9.96967 1.46967L0.96967 10.4695C0.676777 10.7624 0.676777 11.2373 0.96967 11.5302C1.26256 11.8231 1.73744 11.8231 2.03033 11.5302L11.0303 2.53031C11.3232 2.23742 11.3232 1.76255 11.0303 1.46967Z" fill="#006FFD"/>
</mask>
<g mask="url(#mask0_765_4015)">
<rect y="0.5" width="12" height="11.9998" fill="#71727A"/>
</g>
</svg>
