<?xml version="1.0" encoding="utf-8" ?>
<svg xmlns="http://www.w3.org/2000/svg" xmlns:xlink="http://www.w3.org/1999/xlink" viewBox="0 0 638 455" >
	<path transform="scale(2.95234 2.95234)" d="M125.269 24.3291C125.299 24.3253 125.329 24.3211 125.358 24.3176C131.524 23.6127 139.206 27.5503 143.927 31.2795C146.546 33.3491 148.805 36.4508 149.192 39.8412C149.713 44.4043 147.519 49.2045 143.739 51.7734C143.138 52.1817 141.723 52.5532 141.34 53.055C141.257 53.164 141.191 53.2053 141.217 53.3438C141.651 55.6753 154.822 59.6869 157.283 60.4594C158.711 60.908 161.528 61.3522 162.604 62.3523C162.912 62.6387 162.971 63.3435 163.009 63.7535C163.143 65.2137 162.8 66.6727 162.429 68.0756C161.615 71.1546 160.383 74.0804 159.35 77.086C158.182 80.4832 157.201 83.9192 156.214 87.3722C155.896 88.487 155.69 89.715 154.931 90.6235C153.901 90.3426 152.763 90.1059 151.786 89.6796C148.789 88.3726 146.035 86.2581 142.629 86.3287C140.617 86.3705 138.861 87.1667 137.483 88.6313C134.244 92.0749 132.25 100.106 132.374 104.798C133.078 106.09 133.781 107.292 134.934 108.236C137.753 110.544 141.045 108.875 144.231 108.553C144.811 108.948 145.481 109.387 145.967 109.893C146.532 110.482 146.785 111.257 146.76 112.064C146.677 114.727 139.505 131.986 137.849 134.876C137.057 136.259 136.21 137.24 135.03 138.315C131.543 137.79 110.094 129.881 108.02 127.64C105.708 125.142 111.178 121.208 111.27 118.4L111.272 118.312C111.322 115.437 110.328 113.239 108.418 111.093C106.582 109.03 104.234 107.569 101.429 107.421C99.4052 107.313 97.4206 107.823 95.9054 109.216C93.0629 111.828 93.5787 115.662 93.4314 119.174C92.9298 119.713 92.4194 120.299 91.8467 120.762C91.106 121.36 90.5027 121.526 89.5732 121.428C85.5379 121.006 79.2199 117.91 75.1319 116.453C72.164 115.396 69.0269 114.6 66.1556 113.303C64.8319 112.706 63.2213 111.936 62.301 110.765C62.0482 110.443 61.8026 110.06 61.803 109.637C61.8065 106.008 65.8305 97.518 67.0592 93.5012C67.6172 91.6771 67.8741 89.8448 68.0966 87.9548C63.5708 87.1712 58.2475 84.2735 55.5056 80.5866C53.3955 77.7493 53.4256 74.5748 53.9104 71.2214C54.5928 66.5004 56.6538 61.8729 60.5771 58.9748C63.8169 56.5816 68.5723 56.5636 72.1717 58.186C73.6931 58.8718 75.1558 59.939 76.7049 60.5098C77.6697 60.8653 78.8385 60.9765 79.8559 61.1324L85.3743 46.1405C86.4399 43.1658 87.3325 39.8595 88.7525 37.0401C89.0997 36.3509 89.5694 35.6607 90.251 35.2679C93.1136 33.6181 103.888 39.253 107.196 40.4713C109.758 41.4147 112.4 42.0656 115.027 42.7984C114.403 41.4622 113.914 40.0504 113.702 38.5873C113.231 35.3394 114.038 32.3741 116.015 29.761Q116.426 29.2075 116.891 28.698Q117.355 28.1884 117.869 27.7279Q118.382 27.2674 118.939 26.8606Q119.495 26.4538 120.09 26.1047Q120.685 25.7556 121.311 25.4679Q121.938 25.1801 122.59 24.9564Q123.242 24.7328 123.914 24.5756Q124.585 24.4183 125.269 24.3291Z"/>
	<path fill="#F8D268" transform="scale(2.95234 2.95234)" d="M124.703 27.7913Q125.364 27.7379 126.027 27.7087C131.406 27.4836 139.122 30.6579 143.061 34.2917C144.955 36.0391 146.256 38.217 146.341 40.8392C146.466 44.7242 144.024 47.888 141.037 50.1104C139.935 50.93 138.574 51.6924 137.65 52.7072C137.165 53.2389 136.847 53.7648 136.881 54.4998C137.066 58.4454 156.415 62.0891 160.137 65.6333C160.164 65.6591 160.19 65.6857 160.217 65.712C160.796 67.2678 154.357 83.9967 153.295 86.679C150.382 85.3015 146.905 83.3255 143.683 82.9702C141.004 82.6747 138.277 83.9708 136.232 85.6354C132.733 88.4821 129.495 97.829 129.057 102.278C128.814 104.75 129.426 107.228 131.037 109.152C133.819 112.472 137.564 112.378 141.48 112.751C142.066 112.807 142.664 112.871 143.063 113.347C143.274 116.741 136.033 133.19 133.823 136.332C130.243 134.896 126.774 132.925 123.228 131.355C119.157 129.553 114.691 128.156 110.848 125.933C112.749 124.305 114.215 122.705 114.639 120.15C115.249 116.481 113.608 113.295 111.554 110.405C109.746 107.879 106.492 105.864 103.586 104.887C101.095 104.05 98.4453 104.096 96.0793 105.303C91.1278 107.829 91.9851 111.978 90.5312 116.407C90.2081 117.391 89.5501 118.478 88.5877 118.941C87.9828 119.231 87.2493 118.98 86.6411 118.771C83.9937 117.865 81.4842 116.515 78.8898 115.463C75.3104 114.011 71.4288 112.888 68.0427 111.026C67.1656 110.544 65.9509 109.833 65.5189 108.889C63.9128 105.379 71.5006 88.2455 73.0692 84.1193C72.0653 84.4026 71.1112 84.944 70.1785 85.4072C67.1823 84.8718 64.2036 84.0366 61.5495 82.5121C59.5513 81.3643 57.926 79.8674 57.3299 77.5743C56.3948 73.9769 57.4191 68.2579 59.2975 65.1345C60.5669 63.0238 62.5275 61.2456 64.9632 60.6521C67.173 60.1136 73.3116 60.765 74.9178 62.4738C75.7515 63.3607 76.2244 64.9291 77.3052 65.5452C77.82 65.8386 78.3519 65.8149 78.912 65.6486C79.9288 65.3467 80.6451 64.8844 81.2295 63.9855C82.6335 61.8256 83.2502 58.8194 84.0594 56.3747C85.6594 51.5416 87.3931 45.9231 89.8489 41.4694C90.4943 40.299 91.4183 38.9922 92.7708 38.6037C97.981 37.1069 110.657 48.0553 116.497 46.1948C119.817 45.1369 115.398 37.1377 117.015 34.0597C118.858 30.5525 120.926 28.9407 124.703 27.7913Z"/>
</svg>
