<?xml version="1.0" encoding="utf-8" ?>
<svg xmlns="http://www.w3.org/2000/svg" xmlns:xlink="http://www.w3.org/1999/xlink" viewBox="0 0 718 537">
	<path transform="scale(3.48751 3.48751)" d="M57.8021 14.6024C60.2162 14.1805 63.215 14.4819 65.6785 14.4823L82.9568 14.4951L144.206 14.4514C149.372 14.4321 153.048 14.9885 156.885 18.8304Q157.631 19.5831 158.269 20.4284Q158.908 21.2736 159.429 22.1963Q159.949 23.1191 160.342 24.1029Q160.735 25.0867 160.994 26.1141C161.874 29.7463 161.485 34.2315 161.486 37.9772L161.47 54.4632L161.347 80.1405C161.325 84.2706 161.873 89.7619 160.911 93.7039C160.234 96.4777 158.62 98.9356 156.607 100.927C154.608 102.904 152.286 104.18 149.556 104.853C145.031 105.969 139.757 105.497 135.112 105.492L116.401 105.462C116.762 109.665 116.798 115.206 116.274 119.378C118.926 119.471 121.613 119.334 124.266 119.271C125.657 119.569 126.894 120.128 127.774 121.288C128.713 122.525 128.942 124.321 128.719 125.823C128.524 127.137 127.906 128.483 126.802 129.273C125.674 130.079 123.3 130.244 121.919 130.332C114.686 130.795 107.195 130.337 99.9323 130.366L85.8472 130.402C83.3273 130.396 80.5473 130.578 78.0598 130.169C75.9635 129.824 74.7414 128.644 73.5426 126.983Q73.4804 125.692 73.4828 124.4C73.4977 123.083 73.993 121.798 74.9551 120.875C77.5982 118.338 83.7823 119.423 87.1487 119.501C87.4134 114.883 86.8646 110.133 87.3707 105.553C80.6151 105.341 73.8249 105.472 67.0649 105.46C63.2271 105.454 59.0284 105.718 55.2519 104.976C52.7244 104.479 50.1744 103.417 48.1641 101.785C45.2418 99.4125 43.0314 95.4996 42.6445 91.7417C42.2812 88.2124 42.5382 84.4517 42.5678 80.9029Q42.6495 72.2072 42.5977 63.5112L42.6283 40.7686C42.6175 36.6544 42.2155 32.1012 42.7539 28.0313C43.1382 25.126 44.088 22.3589 45.9753 20.0813C49.1041 16.3055 53.1075 15.0622 57.8021 14.6024Z"/>
	<path fill="#F6F7F2" transform="scale(3.48751 3.48751)" d="M140.048 17.6223C145.238 17.5844 150.712 17.1261 154.73 21.0878C156.552 22.8843 157.706 25.2243 158.146 27.7367C158.99 32.5536 158.382 40.5272 158.369 45.7219L158.4 82.2005C158.419 88.2946 159.196 93.9029 154.495 98.5942C152.821 100.265 150.966 101.431 148.62 101.843C144.863 102.501 140.965 102.307 137.166 102.3L122.164 102.276L64.1875 102.308C58.9265 102.308 53.5412 102.638 49.4733 98.6447C45.6809 94.9216 45.5665 90.3723 45.5247 85.4094L45.5076 46.9478C45.5084 41.4349 44.9284 32.4859 45.891 27.3748C46.3131 25.1336 47.652 22.962 49.2435 21.3581C51.2021 19.3843 53.47 18.3258 56.207 17.905C59.4218 17.4107 62.8641 17.6401 66.1115 17.6443L82.5101 17.6739L140.048 17.6223Z"/>
	<path transform="scale(3.48751 3.48751)" d="M61.2264 26.5727C66.6936 26.3351 72.2223 26.5029 77.6963 26.5045L107.316 26.5083L130.574 26.5219C134.475 26.5132 138.474 26.2564 142.365 26.4911C143.813 26.5785 145.34 26.8587 146.626 27.5596C148.111 28.3693 148.973 29.7623 149.439 31.3538C150.409 34.6672 149.85 51.7029 149.849 56.1341C149.848 63.8417 150.249 71.7892 149.776 79.4738C149.683 80.9888 149.623 82.7485 148.866 84.0989C147.693 86.1918 146.038 87.3271 143.754 87.9642Q143.653 87.9791 143.552 87.9926C139.56 88.5216 135.279 88.2227 131.245 88.22L109.289 88.2075L78.819 88.22C73.2736 88.221 67.5738 88.5041 62.0529 88.0651C60.4262 87.9357 58.7277 87.6308 57.4051 86.6092C55.7639 85.3415 55.0038 83.4479 54.7584 81.4384C54.4375 78.811 54.6866 75.9629 54.7189 73.3154Q54.7507 67.8129 54.7059 62.3105L54.6903 43.3234C54.6899 39.8383 54.5053 36.2332 54.7958 32.7615C54.9098 31.4002 55.0561 30.0684 55.9268 28.9632C57.2056 27.3402 59.2772 26.8167 61.2264 26.5727Z"/>
	<path fill="#85A7D4" transform="scale(3.48751 3.48751)" d="M137.48 28.625C139.975 28.566 144.424 27.9748 146.335 29.8445C147.595 31.0777 147.753 33.5595 147.764 35.2074L147.714 63.4576C147.738 68.6496 148.214 75.574 147.661 80.5082C147.505 81.8968 147.216 83.2956 146.194 84.3147C145.398 85.1083 144.496 85.5486 143.376 85.6792C140.348 86.0322 137.132 85.8128 134.077 85.7948L119.325 85.7762L66.875 85.786C63.753 85.7867 60.1483 86.4373 57.7144 84.0356C56.3513 82.6905 56.468 79.2968 56.4307 77.4519C56.2349 67.7763 56.4205 58.0635 56.4231 48.3841C56.4244 43.6042 55.9227 37.7231 56.5656 33.053C56.7172 31.9523 57.1535 30.8906 57.9379 30.0884C58.9731 29.0296 60.0899 28.91 61.4978 28.7761C64.578 28.4832 67.7682 28.668 70.8604 28.681L85.5901 28.6785L137.48 28.625Z"/>
	<path fill="#F6F7F2" transform="scale(3.48751 3.48751)" d="M90.205 105.531Q101.86 105.329 113.515 105.536Q113.587 112.486 113.418 119.435C105.714 119.851 97.9629 119.637 90.2536 119.465Q90.1111 112.498 90.205 105.531Z"/>
	<path fill="#F6F7F2" transform="scale(3.48751 3.48751)" d="M94.1428 121.873C101.006 121.784 107.861 121.901 114.722 122.002C117.514 122.043 120.412 121.761 123.186 122.051C123.896 122.125 124.649 122.291 125.228 122.734C125.555 122.984 125.824 123.365 125.882 123.772C126.009 124.671 125.592 125.612 125.061 126.309C122.961 127.35 110.804 126.77 107.942 126.773C104.658 126.772 78.4765 127.242 77.1172 126.372Q76.871 126.214 76.6591 126.012Q76.4472 125.81 76.2773 125.572Q76.1073 125.333 75.9853 125.067Q75.8633 124.801 75.7937 124.517C75.8824 124.105 75.9132 123.876 76.2181 123.557C78.4716 121.197 90.6898 121.917 94.1428 121.873Z"/>
</svg>
