<?xml version="1.0" encoding="utf-8" ?>
<svg xmlns="http://www.w3.org/2000/svg" xmlns:xlink="http://www.w3.org/1999/xlink" viewBox="470 202 856 765" >
	<path fill="#FDF6CF" d="M585.875 202.036C586.025 202 586.172 201.957 586.323 201.929C597.99 199.727 633.136 201.704 647.105 201.711L804.606 201.682L1055.7 201.681L1130.41 201.576C1145.92 201.541 1161.89 200.734 1177.31 202.502Q1179.28 202.724 1181.25 203.008Q1183.22 203.292 1185.17 203.637Q1187.13 203.983 1189.07 204.39Q1191.02 204.797 1192.95 205.264Q1194.88 205.732 1196.79 206.26Q1198.71 206.789 1200.61 207.377Q1202.5 207.965 1204.38 208.612Q1206.26 209.26 1208.12 209.966Q1209.97 210.672 1211.81 211.436Q1213.64 212.2 1215.45 213.021Q1217.26 213.843 1219.04 214.721Q1220.82 215.598 1222.58 216.532Q1224.33 217.465 1226.05 218.453Q1227.78 219.441 1229.47 220.483Q1231.16 221.525 1232.82 222.619Q1234.48 223.713 1236.1 224.859Q1237.39 225.778 1238.65 226.729Q1239.91 227.679 1241.15 228.66Q1242.39 229.641 1243.61 230.653Q1244.82 231.664 1246.01 232.705Q1247.2 233.746 1248.36 234.815Q1249.53 235.885 1250.67 236.983Q1251.8 238.081 1252.91 239.207Q1254.02 240.332 1255.1 241.485Q1256.19 242.637 1257.24 243.816Q1258.29 244.995 1259.32 246.199Q1260.34 247.404 1261.33 248.633Q1262.33 249.862 1263.29 251.115Q1264.26 252.368 1265.19 253.644Q1266.12 254.921 1267.02 256.22Q1267.92 257.519 1268.79 258.839Q1269.66 260.16 1270.5 261.502Q1271.33 262.843 1272.13 264.205Q1272.94 265.567 1273.71 266.948Q1274.48 268.329 1275.21 269.728Q1275.94 271.128 1276.65 272.545Q1277.35 273.962 1278.01 275.396Q1278.68 276.83 1279.31 278.28Q1279.94 279.729 1280.53 281.194Q1281.12 282.659 1281.68 284.138Q1282.24 285.617 1282.76 287.109Q1283.28 288.602 1283.77 290.106Q1284.25 291.611 1284.7 293.127Q1285.15 294.643 1285.56 296.17Q1285.97 297.696 1286.34 299.232Q1286.71 300.769 1287.04 302.313Q1287.38 303.858 1287.68 305.411Q1287.97 306.964 1288.23 308.523C1290.64 322.88 1290.08 337.677 1290.07 352.181L1289.95 404.34L1289.33 593.801L1289.61 768.128L1289.76 820.917C1289.79 831.733 1290.37 842.953 1289.14 853.696Q1288.89 855.736 1288.58 857.766Q1288.27 859.797 1287.9 861.817Q1287.52 863.838 1287.08 865.845Q1286.65 867.852 1286.14 869.845Q1285.64 871.837 1285.08 873.813Q1284.52 875.789 1283.89 877.746Q1283.26 879.703 1282.58 881.639Q1281.89 883.575 1281.14 885.489Q1280.4 887.403 1279.59 889.293Q1278.78 891.182 1277.92 893.045Q1277.05 894.908 1276.13 896.743Q1275.2 898.578 1274.22 900.383Q1273.24 902.188 1272.2 903.961Q1271.16 905.734 1270.07 907.473Q1268.98 909.213 1267.83 910.917Q1266.68 912.622 1265.48 914.289C1243.66 944.662 1211.33 960.23 1175.22 966.2C1134.98 967.724 1094.51 966.541 1054.23 966.671L789.183 966.676L655.599 966.65C633.798 966.683 605.963 968.589 584.959 965.739C561.438 962.548 537.503 952.874 518.998 937.94C493.193 917.115 474.297 884.644 470.84 851.488C469.477 838.413 470.142 825.043 470.196 811.903L470.168 756.102L470.077 553.207L470.029 395.805C469.97 372.293 467.888 335.31 471.062 313.17Q471.389 311.004 471.788 308.849Q472.186 306.695 472.657 304.555Q473.128 302.416 473.67 300.293Q474.212 298.17 474.825 296.067Q475.437 293.963 476.12 291.881Q476.803 289.799 477.554 287.742Q478.306 285.684 479.127 283.652Q479.947 281.621 480.835 279.618Q481.722 277.615 482.677 275.643Q483.631 273.67 484.651 271.731Q485.67 269.792 486.754 267.888Q487.838 265.984 488.985 264.117Q490.132 262.251 491.341 260.423Q492.55 258.596 493.819 256.81Q495.088 255.024 496.416 253.282Q497.744 251.539 499.13 249.842C521.042 222.927 551.262 205.565 585.875 202.036Z"/>
	<path fill="#010101" d="M1071.66 326.266C1077.13 325.867 1080.72 325.822 1085.48 328.954C1097.83 337.092 1123.99 365.319 1135.9 377.047C1144.63 385.645 1154.92 393.882 1162.65 403.341C1165.18 406.432 1167.53 410.154 1168.21 414.152C1169.18 419.83 1167.02 425.541 1163.7 430.069C1156.22 440.282 1143.87 448.934 1134.8 457.932Q1120.09 472.598 1105.62 487.507C1099.96 493.328 1094.42 499.818 1088.12 504.926C1085.31 507.207 1082.33 508.857 1078.67 509.304Q1078.25 509.353 1077.82 509.379Q1077.4 509.405 1076.97 509.409Q1076.54 509.413 1076.12 509.395Q1075.69 509.376 1075.27 509.335Q1074.84 509.294 1074.42 509.23Q1074 509.167 1073.58 509.081Q1073.16 508.996 1072.75 508.888Q1072.34 508.781 1071.93 508.652Q1071.52 508.523 1071.13 508.372Q1070.73 508.222 1070.34 508.051Q1069.95 507.88 1069.56 507.688Q1069.18 507.497 1068.81 507.285Q1068.44 507.074 1068.08 506.843Q1067.72 506.613 1067.38 506.364Q1067.03 506.114 1066.7 505.847Q1066.37 505.58 1066.05 505.296Q1065.74 505.016 1065.44 504.721Q1065.14 504.426 1064.86 504.115Q1064.58 503.805 1064.32 503.48Q1064.05 503.156 1063.8 502.818Q1063.56 502.48 1063.33 502.13Q1063.1 501.779 1062.89 501.418Q1062.68 501.056 1062.48 500.684Q1062.29 500.312 1062.12 499.93Q1061.95 499.548 1061.79 499.158Q1061.64 498.768 1061.51 498.371Q1061.38 497.973 1061.27 497.569Q1061.16 497.166 1061.07 496.756Q1060.98 496.347 1060.91 495.934Q1060.84 495.521 1060.79 495.105Q1060.74 494.689 1060.72 494.271Q1060.69 493.853 1060.69 493.434C1060.62 489.892 1061.63 486.695 1063.36 483.637C1071.3 469.542 1096.13 446.495 1108.24 433.978C1077.69 433.904 1048.35 432.183 1019.49 444.213C976.154 462.276 951.325 502.649 926.442 540.123L861.902 637.953C842.169 667.684 822.633 700.336 796.678 725.042C784.091 737.024 770.517 745.368 754.727 752.466C738.113 759.836 722.447 764.797 704.167 765.541C686.256 766.271 668.151 765.443 650.215 765.537C636.822 765.607 622.132 767.226 608.939 765.363C604.915 764.794 601.141 763.672 598.124 760.813C594.214 757.109 591.988 752.428 591.984 746.993C591.978 739.788 595.914 733.322 602.843 730.814C610.536 728.03 621.443 729.304 629.646 729.328C674.539 729.456 720.402 735.425 759.982 709.649C787.089 691.996 809.816 652.726 827.673 625.672L892.476 527.631C911.629 498.99 930.964 467.729 955.745 443.601C966.017 433.599 977.773 425.443 990.213 418.371C1030.15 395.67 1061.95 397.345 1106.44 397.957C1095.51 387.184 1071.55 366.337 1064 354.155C1061.09 349.459 1059.42 343.759 1060.92 338.276C1062.55 332.315 1066.58 329.239 1071.66 326.266Z"/>
	<path fill="#010101" d="M909.389 616.488Q911.02 616.426 912.652 616.427C916.567 616.424 920.339 616.601 923.564 619.152C930.559 624.685 935.57 635.285 940.754 642.547C953.588 660.528 966.364 679.405 982.085 695.005C1019.35 731.988 1058.59 729.632 1107 729.412C1097.03 719.736 1062.22 688.825 1060.57 676.922C1059.89 672.067 1061.71 666.708 1064.83 662.957C1067.65 659.563 1071.75 657.601 1076.15 657.353C1079.22 657.18 1083.13 657.741 1085.77 659.334C1092.33 663.293 1098.14 670.372 1103.7 675.656L1138.16 708.256C1146.61 716.291 1163.01 729.718 1167.86 739.758C1168.78 741.66 1169.04 744.961 1169.01 747.105C1168.89 756.321 1162.52 761.979 1156.39 767.859C1141.23 781.766 1126.74 796.111 1112.27 810.73C1104.57 818.51 1096.6 828.526 1087.78 834.806C1084.68 837.013 1081.07 838.35 1077.26 838.537Q1076.83 838.557 1076.4 838.554Q1075.98 838.552 1075.55 838.527Q1075.12 838.502 1074.7 838.454Q1074.27 838.407 1073.85 838.337Q1073.43 838.268 1073.01 838.176Q1072.59 838.084 1072.18 837.97Q1071.77 837.856 1071.36 837.721Q1070.95 837.586 1070.56 837.429Q1070.16 837.273 1069.77 837.096Q1069.38 836.919 1069 836.721Q1068.62 836.524 1068.25 836.307Q1067.88 836.09 1067.52 835.853Q1067.17 835.617 1066.82 835.363Q1066.48 835.108 1066.15 834.836Q1065.82 834.563 1065.5 834.274Q1065.19 833.985 1064.89 833.679Q1064.35 833.117 1063.86 832.504Q1063.38 831.892 1062.96 831.235Q1062.54 830.577 1062.18 829.882Q1061.83 829.186 1061.55 828.459Q1061.26 827.732 1061.05 826.98Q1060.84 826.228 1060.71 825.46Q1060.57 824.691 1060.51 823.913Q1060.45 823.134 1060.47 822.354C1060.54 819.005 1061.62 815.533 1063.37 812.693C1069.52 802.696 1097.43 775.069 1107.1 765.62C1078.56 765.698 1048.47 767.699 1020.95 758.842C976.584 744.567 948.558 713.484 922.149 676.796C914.661 666.393 906.163 655.5 900.428 644.045C897.782 638.759 896.011 632.761 898.165 626.95C900.237 621.357 904.258 618.763 909.389 616.488Z"/>
	<path fill="#010101" d="M605.837 398.237C623.487 396.631 642.003 397.699 659.745 397.689C678.323 397.68 697.771 396.483 716.229 398.437C731.122 400.013 744.139 404.796 757.503 411.298C787.442 425.865 807.694 444.95 828.501 470.674C835.298 479.078 867.113 515.137 865.903 523.603C864.851 530.965 856.694 540.073 851.07 544.582C847.538 545.493 845.178 545.691 842.16 543.35C835.603 538.262 830.861 529.299 825.678 522.768C806.638 498.779 787.244 472.281 761.919 454.524C733.304 434.461 714.273 433.962 680.412 433.974L632.731 433.988C623.521 433.988 612.907 435.465 603.943 433.072C599.727 431.946 595.747 429.58 593.652 425.617C591.199 420.977 591.703 414.583 593.437 409.753C595.65 403.587 600.263 400.884 605.837 398.237Z"/>
</svg>
